{"glyphs":{"0":{"ha":619,"x_min":69,"x_max":551,"o":"m 344 939 q 493 826 435 939 q 551 538 551 713 q 543 386 551 460 q 517 237 536 311 q 472 108 499 163 q 404 19 446 53 q 310 -16 361 -16 q 218 16 260 -16 q 150 97 176 48 q 104 205 123 145 q 77 321 85 266 q 69 422 69 376 q 80 538 69 473 q 110 671 90 603 q 164 798 130 740 q 243 881 199 856 q 274 920 248 901 q 344 939 301 939 m 339 24 q 381 51 359 24 q 426 125 404 77 q 465 235 447 173 q 493 375 482 296 q 503 533 503 454 q 495 651 503 596 q 475 743 488 706 q 447 811 463 781 q 415 859 431 841 q 384 889 399 877 q 359 905 369 901 q 345 909 349 909 q 298 899 320 910 l 309 899 q 376 866 365 899 q 372 852 380 857 q 358 854 363 847 q 327 870 346 870 q 313 865 322 870 q 288 845 303 859 q 258 811 273 831 q 226 757 242 791 q 198 681 210 723 q 178 579 186 640 q 170 451 170 519 q 175 366 170 415 q 192 256 180 317 q 222 144 204 195 q 271 59 241 94 q 339 24 302 24 z "},"1":{"ha":311,"x_min":65,"x_max":243,"o":"m 203 932 q 232 917 220 928 q 241 890 243 905 q 207 470 217 673 q 199 178 197 267 q 203 47 200 90 q 193 16 205 28 q 168 9 182 5 q 149 32 153 13 q 127 169 134 89 q 119 312 120 250 q 118 503 118 375 q 125 702 118 586 q 144 880 132 819 q 94 822 96 824 q 74 823 83 812 q 71 840 65 833 q 141 918 114 899 q 196 933 168 937 q 202 932 198 933 l 203 932 z "},"2":{"ha":579,"x_min":68,"x_max":509,"o":"m 332 951 q 460 894 410 951 q 509 743 509 837 q 488 606 509 674 q 432 484 466 538 q 355 371 398 430 q 271 264 311 313 q 192 155 231 215 q 133 42 153 96 q 218 55 164 50 q 303 59 271 59 q 391 37 326 59 q 454 6 455 14 q 441 -5 452 -3 q 429 2 431 -8 q 398 8 419 3 q 357 17 378 14 q 311 20 336 20 q 191 8 274 20 q 91 -9 108 -4 q 74 -2 81 -12 q 70 18 68 8 q 107 126 78 67 q 172 237 136 184 q 250 356 209 290 q 326 486 292 422 q 382 632 359 550 q 404 797 404 714 q 388 876 404 840 q 341 912 372 912 q 270 890 308 912 q 199 830 232 867 q 148 738 167 793 q 135 622 129 682 q 128 603 136 610 q 110 601 120 597 q 98 617 100 605 q 99 728 88 675 q 135 821 110 782 q 194 890 161 861 q 264 936 228 920 q 332 951 300 951 z "},"3":{"ha":631,"x_min":68,"x_max":562,"o":"m 376 484 q 513 417 463 469 q 562 278 562 364 q 541 181 562 231 q 481 90 519 131 q 388 23 444 49 q 269 -3 332 -3 q 198 10 231 -3 q 144 44 165 24 q 106 89 123 64 q 81 137 90 115 q 70 178 73 159 q 79 189 68 186 q 98 180 94 193 q 98 172 98 177 q 168 76 124 116 q 267 36 212 36 q 332 50 299 36 q 395 91 365 64 q 443 164 425 117 q 462 269 462 211 q 415 417 462 370 q 309 438 368 463 q 239 425 258 407 q 240 454 228 436 q 246 460 243 457 q 277 485 251 465 q 321 520 302 505 q 366 566 339 535 q 410 626 393 596 q 439 702 427 656 q 452 795 452 747 q 448 843 452 822 q 439 877 444 863 q 424 899 433 890 q 407 913 414 909 q 388 919 400 917 q 371 922 376 922 q 353 922 365 922 q 268 897 307 922 q 204 834 228 871 q 170 756 181 797 q 165 685 159 715 q 155 671 167 677 q 129 684 138 662 q 124 717 124 696 q 142 813 124 770 q 187 883 161 857 q 243 927 213 909 q 294 952 273 945 q 327 959 316 959 q 484 912 422 959 q 546 774 546 865 q 531 679 546 724 q 492 602 516 634 q 446 547 468 570 q 402 506 424 524 q 376 484 380 488 z "},"4":{"ha":559,"x_min":63,"x_max":492,"o":"m 401 907 q 431 928 408 926 q 473 918 454 931 q 490 886 492 905 q 459 558 471 718 q 445 292 448 399 q 443 119 443 184 q 446 30 444 54 q 434 -1 447 10 q 407 -6 422 -12 q 387 18 391 -1 q 366 149 373 71 q 359 283 359 227 q 358 463 358 340 q 238 452 323 465 q 117 433 152 440 q 76 451 89 428 q 73 492 63 475 q 142 654 109 555 q 194 823 175 753 q 218 899 213 894 q 258 904 228 911 q 289 876 289 897 q 272 757 289 822 q 230 636 255 692 q 182 542 204 581 q 144 478 160 502 q 188 484 149 480 q 275 491 228 488 q 358 489 322 493 l 358 497 q 371 725 358 587 q 401 907 385 863 z "},"5":{"ha":529,"x_min":69,"x_max":461,"o":"m 446 941 q 455 939 450 943 q 460 928 459 935 q 456 914 461 922 q 353 893 447 903 q 201 888 259 882 q 182 731 194 848 q 164 530 170 614 q 254 552 205 553 q 299 548 276 552 q 351 529 321 543 q 401 491 380 515 q 438 426 423 468 q 454 328 454 384 q 431 194 454 257 q 371 90 408 131 q 289 24 334 48 q 199 0 243 0 q 102 42 136 0 q 69 146 69 85 q 82 207 69 178 q 111 236 94 236 q 123 226 124 236 q 115 216 122 217 q 105 195 109 210 q 101 167 101 179 q 128 78 101 123 q 192 34 155 34 q 221 42 202 34 q 266 72 240 50 q 314 126 292 94 q 352 211 336 157 q 368 330 368 264 q 362 390 368 361 q 347 448 357 420 q 315 492 336 475 q 267 509 294 509 q 161 465 203 511 q 155 457 161 462 q 141 449 149 452 q 123 447 132 446 q 104 457 113 447 q 92 485 96 467 q 93 685 85 514 q 120 928 100 856 q 158 937 125 949 q 179 933 168 935 q 198 930 190 931 q 220 929 207 929 q 240 928 234 928 q 262 928 247 928 q 282 928 277 928 q 376 933 312 928 q 446 941 441 938 z "},"6":{"ha":537,"x_min":69,"x_max":468,"o":"m 317 513 q 350 509 333 513 q 390 493 368 505 q 428 460 412 480 q 456 402 445 439 q 468 317 468 366 q 414 84 468 172 q 287 -3 359 -3 q 199 25 238 -3 q 137 96 161 52 q 97 198 113 139 q 75 314 81 256 q 69 433 69 372 q 78 559 69 492 q 105 695 86 626 q 151 820 125 764 q 218 910 178 875 q 305 945 258 945 q 359 932 336 945 q 394 899 382 919 q 414 854 406 878 q 421 809 422 830 q 420 772 421 787 q 412 760 418 764 q 398 762 405 757 q 392 778 392 766 q 370 865 392 826 q 328 904 347 904 q 296 883 315 904 q 257 821 277 863 q 220 725 237 780 q 189 595 202 671 q 174 437 176 519 q 242 490 198 467 q 317 513 287 513 m 305 31 q 363 70 335 31 q 409 172 391 109 q 427 302 427 235 q 414 388 427 351 q 384 444 402 425 q 348 472 366 463 q 315 481 330 481 q 264 467 288 481 q 223 430 241 453 q 195 384 206 406 q 175 338 184 362 q 194 189 179 256 q 237 76 208 121 q 305 31 267 31 z "},"7":{"ha":612,"x_min":67,"x_max":549,"o":"m 458 939 q 494 939 470 945 q 533 919 517 933 q 540 889 549 904 q 448 721 505 830 q 294 406 390 612 q 132 18 199 199 q 111 -2 127 3 q 81 3 94 -7 q 70 37 67 14 q 106 167 73 65 q 186 398 138 269 q 301 670 235 528 q 428 901 368 812 q 327 887 391 894 q 191 878 262 880 q 96 888 120 876 q 77 921 68 901 q 89 929 83 930 q 168 915 104 916 q 309 920 231 913 q 458 939 387 927 z "},"8":{"ha":537,"x_min":69,"x_max":469,"o":"m 376 427 q 445 352 420 392 q 469 248 469 312 q 448 115 469 176 q 382 13 427 54 q 273 -28 336 -28 q 189 -6 226 -28 q 130 48 151 16 q 94 120 108 80 q 74 192 79 160 q 69 252 69 224 q 85 352 69 294 q 133 458 102 410 q 199 509 164 507 q 211 508 207 509 q 145 732 145 588 q 157 795 145 762 q 189 861 168 829 q 243 913 210 892 q 316 934 277 934 q 355 928 336 934 q 393 908 374 923 q 427 869 413 892 q 450 806 441 846 q 459 715 459 766 q 376 427 459 567 m 327 902 q 240 842 275 902 q 204 705 204 783 q 207 652 204 676 q 217 606 210 627 q 231 569 224 585 q 251 537 237 553 q 272 511 264 521 q 297 487 279 501 q 322 467 315 473 q 349 447 330 461 q 406 714 406 581 q 384 849 406 796 q 327 902 361 902 m 227 44 q 241 26 227 44 q 293 8 255 8 q 361 47 331 8 q 406 139 391 87 q 420 241 420 191 q 354 391 420 334 q 353 389 353 390 q 334 381 346 376 q 328 401 321 387 q 330 405 329 402 q 332 409 331 408 q 296 434 330 411 q 247 472 263 458 q 243 465 246 469 q 201 374 227 448 q 176 241 176 300 q 188 131 176 182 q 227 44 199 80 z "},"9":{"ha":581,"x_min":69,"x_max":511,"o":"m 381 901 q 406 926 378 924 q 463 909 436 928 q 477 894 473 902 q 500 768 489 869 q 511 570 511 666 q 494 348 511 448 q 447 186 476 249 q 380 81 418 123 q 303 21 342 39 q 224 4 264 4 q 165 17 193 4 q 121 49 138 31 q 92 88 104 67 q 75 124 80 109 q 69 145 69 139 q 86 166 69 164 q 104 159 100 168 q 104 151 105 155 q 120 119 102 146 q 169 65 138 92 q 227 39 200 39 q 241 40 234 39 q 268 51 249 41 q 303 78 288 60 q 339 133 319 96 q 373 222 359 171 q 397 357 387 274 q 406 545 406 441 q 401 693 406 612 q 368 594 387 642 q 326 499 350 547 q 271 423 301 452 q 210 395 241 395 q 111 468 153 395 q 69 641 69 541 q 130 838 69 760 q 281 916 190 916 q 383 884 347 916 q 381 901 382 895 m 214 428 q 277 497 239 428 q 346 657 315 566 q 391 822 376 748 q 390 824 391 823 q 390 825 390 825 q 336 863 365 863 q 218 783 272 863 q 165 571 165 703 q 181 477 165 527 q 214 428 197 428 z "},"\u0000":{"ha":0,"x_min":0,"x_max":0,"o":""},"\n":{"ha":0,"x_min":0,"x_max":0,"o":""},"\r":{"ha":0,"x_min":0,"x_max":0,"o":""}," ":{"ha":328,"x_min":0,"x_max":0,"o":""},"!":{"ha":247,"x_min":69,"x_max":180,"o":"m 94 60 q 99 66 94 60 q 120 71 104 71 q 146 60 136 71 q 157 34 157 49 q 146 8 157 19 q 120 -3 136 -3 q 94 8 104 -3 q 83 34 83 19 q 94 60 83 49 m 149 142 q 132 109 146 117 q 103 111 117 101 q 86 141 88 121 q 70 575 70 311 q 89 918 69 840 q 113 931 92 928 q 154 926 134 934 q 176 903 174 919 q 166 529 180 869 q 149 142 152 189 z "},"\"":{"ha":342,"x_min":68,"x_max":274,"o":"m 70 943 q 94 961 71 957 q 138 956 117 966 q 159 926 159 946 q 152 767 151 782 q 138 746 153 753 q 106 744 123 738 q 81 774 88 751 q 73 855 78 787 q 70 943 68 924 m 179 926 q 203 961 179 954 q 250 957 227 968 q 274 926 274 945 q 271 837 274 902 q 265 762 267 771 q 244 739 260 742 q 212 745 227 735 q 194 769 196 755 q 184 858 189 803 q 179 926 179 913 z "},"#":{"ha":790,"x_min":68,"x_max":723,"o":"m 690 618 q 720 600 717 618 q 709 579 723 585 q 696 577 703 576 q 591 575 689 578 q 536 395 559 475 q 636 390 584 396 q 651 379 647 389 q 652 362 654 370 q 644 353 649 353 q 522 349 608 353 q 436 29 480 210 q 404 -4 431 6 q 361 1 375 -16 q 354 29 352 11 q 420 345 362 112 q 301 337 376 342 q 225 28 253 151 q 203 4 220 9 q 171 9 186 -1 q 157 37 156 19 q 207 329 168 148 q 86 312 133 321 q 73 321 78 311 q 70 345 68 332 q 81 358 72 357 q 217 375 122 366 q 261 559 238 469 q 164 549 210 555 q 155 558 159 549 q 152 578 151 568 q 162 590 153 589 q 272 600 191 595 q 373 922 333 833 q 388 931 376 929 q 412 931 399 934 q 437 922 425 928 q 456 908 450 916 q 460 890 463 899 q 373 606 431 817 q 492 612 448 610 q 602 932 562 855 q 622 942 606 941 q 653 937 637 943 q 681 920 669 931 q 690 899 693 909 q 604 616 682 859 q 690 618 675 618 m 433 392 q 481 571 446 446 q 444 569 464 570 q 400 567 424 568 q 362 565 376 566 q 313 384 330 448 q 433 392 370 389 z "},"$":{"ha":630,"x_min":69,"x_max":562,"o":"m 495 648 q 499 652 496 649 q 505 657 503 655 q 510 662 507 659 q 515 669 513 666 q 518 677 517 673 q 521 687 520 682 q 521 697 522 692 q 499 710 519 704 q 452 717 478 717 q 376 707 418 717 q 363 438 366 559 q 476 383 436 418 q 515 283 515 348 q 508 252 515 269 q 486 215 501 235 q 440 177 470 195 q 371 149 410 159 q 385 20 377 73 q 373 -2 386 8 q 343 -11 359 -12 q 323 6 328 -9 q 295 140 304 73 q 288 139 293 140 q 280 139 282 139 q 177 177 223 139 q 132 244 132 215 q 153 262 132 262 q 167 256 161 262 q 173 242 173 250 q 165 232 173 235 q 201 205 175 214 q 258 197 227 197 q 287 199 274 197 q 270 408 275 304 q 211 422 234 416 q 158 440 187 428 q 111 467 128 452 q 81 506 94 482 q 69 561 69 530 q 129 680 69 621 q 274 771 188 739 q 300 921 283 873 q 327 937 304 935 q 369 928 349 939 q 389 901 389 918 q 383 795 389 867 q 406 797 398 797 q 520 762 479 797 q 562 682 562 726 q 557 660 562 670 q 546 643 553 650 q 533 632 539 636 q 520 624 528 628 q 511 619 512 620 q 498 621 505 616 q 490 634 492 626 q 495 648 488 642 m 124 508 q 268 461 169 484 q 267 664 264 578 q 164 587 205 630 q 124 508 124 543 m 462 332 q 363 387 462 361 q 366 222 363 293 q 462 332 462 263 z "},"%":{"ha":665,"x_min":69,"x_max":595,"o":"m 191 571 q 107 622 144 571 q 69 747 69 672 q 98 881 69 827 q 169 935 127 935 q 203 925 189 935 q 272 877 248 922 q 295 758 295 831 q 290 704 295 732 q 275 644 286 675 q 243 591 264 612 q 191 571 221 571 m 208 898 q 178 831 195 886 q 160 715 160 777 q 168 651 160 677 q 184 614 176 624 q 199 603 192 604 q 241 665 225 623 q 257 760 257 707 q 241 856 257 815 q 208 898 225 896 m 504 359 q 572 310 549 356 q 595 191 595 264 q 591 138 595 166 q 575 77 586 109 q 543 25 565 45 q 492 5 522 5 q 407 55 445 5 q 370 180 370 106 q 399 315 370 261 q 469 369 428 369 q 504 359 488 369 m 499 37 q 542 99 526 56 q 557 193 557 141 q 542 289 557 249 q 509 332 526 330 q 478 265 496 319 q 460 149 460 210 q 468 84 460 111 q 484 48 476 58 q 499 37 492 38 m 479 932 q 506 941 487 943 q 543 931 524 939 q 572 907 562 923 q 573 874 582 891 q 384 495 480 703 q 229 153 287 287 q 171 18 172 19 q 146 2 163 5 q 116 7 130 -1 q 104 32 102 16 q 196 315 116 110 q 362 705 277 520 q 479 932 447 889 z "},"&":{"ha":725,"x_min":69,"x_max":655,"o":"m 576 540 q 630 530 606 540 q 655 502 655 520 q 642 484 655 484 q 636 485 638 484 q 633 490 635 486 q 629 496 631 494 q 610 499 623 498 q 566 494 596 499 q 503 479 535 488 q 539 448 524 469 q 562 403 555 427 q 573 359 570 378 q 576 325 576 340 q 558 208 576 267 q 508 101 541 150 q 425 22 476 53 q 314 -8 374 -8 q 248 -1 281 -8 q 183 22 215 6 q 125 60 151 37 q 85 117 100 83 q 69 192 69 151 q 118 339 69 287 q 269 416 167 392 q 242 442 262 422 q 210 474 222 462 q 179 511 197 487 q 151 558 161 536 q 132 613 140 581 q 124 680 124 646 q 137 753 124 712 q 172 836 149 795 q 235 906 195 878 q 321 934 275 934 q 416 917 376 934 q 478 872 456 900 q 509 809 499 844 q 516 737 519 774 q 503 665 513 700 q 474 602 492 630 q 451 597 465 588 q 441 620 436 606 q 462 733 460 675 q 446 831 464 791 q 394 870 427 870 q 320 843 354 870 q 267 777 287 817 q 237 699 248 738 q 227 629 227 659 q 233 567 227 597 q 257 502 240 536 q 310 435 275 467 q 396 380 345 404 q 406 364 409 374 q 378 354 402 354 q 361 360 376 354 q 337 369 347 367 q 214 291 257 347 q 171 158 171 235 q 176 120 171 140 q 196 79 182 101 q 240 44 210 58 q 313 30 270 30 q 409 60 366 30 q 478 136 453 90 q 517 228 503 181 q 530 316 530 275 q 512 415 530 377 q 463 467 493 452 q 370 423 418 450 q 351 433 359 417 q 349 456 342 448 q 454 516 379 492 q 576 540 529 540 z "},"'":{"ha":227,"x_min":67,"x_max":159,"o":"m 156 926 q 159 843 159 905 q 156 770 159 781 q 122 743 149 740 q 87 774 95 746 q 73 861 79 808 q 71 936 67 913 q 94 957 73 954 q 134 950 114 960 q 156 926 154 941 z "},"(":{"ha":447,"x_min":69,"x_max":377,"o":"m 339 953 q 223 756 267 899 q 180 404 180 613 q 330 -15 180 90 q 350 -10 338 -7 q 361 -22 361 -14 q 342 -41 360 -31 q 310 -45 323 -52 q 287 -34 306 -43 q 258 -19 267 -24 q 228 -1 248 -14 q 195 26 207 13 q 164 62 182 39 q 134 109 145 85 q 109 171 122 134 q 87 249 95 208 q 74 345 79 290 q 69 462 69 399 q 84 639 69 549 q 129 810 100 730 q 206 943 157 891 q 314 994 254 994 q 359 984 341 994 q 377 962 377 974 q 374 956 377 958 q 366 953 371 954 q 356 952 361 952 q 346 952 352 952 q 339 953 340 953 z "},")":{"ha":447,"x_min":69,"x_max":377,"o":"m 137 991 q 155 983 142 989 q 254 919 218 954 q 377 485 377 798 q 362 308 377 398 q 318 136 347 217 q 240 4 289 56 q 132 -47 192 -47 q 87 -37 105 -47 q 69 -16 69 -27 q 72 -9 69 -12 q 80 -6 75 -7 q 90 -5 85 -5 q 100 -5 94 -5 q 107 -5 106 -5 q 223 191 180 49 q 266 543 266 334 q 117 962 266 857 q 97 957 109 953 q 85 968 85 960 q 105 988 86 978 q 137 991 123 998 z "},"*":{"ha":373,"x_min":65,"x_max":307,"o":"m 273 863 q 299 853 291 863 q 303 831 307 844 q 288 814 299 819 q 257 807 270 808 q 290 746 269 777 q 290 736 294 741 q 279 730 286 731 q 267 731 272 729 q 199 804 233 748 l 198 804 q 186 777 197 801 q 167 741 176 752 q 136 732 156 732 q 99 741 116 731 q 89 765 83 751 q 97 782 90 766 q 110 810 104 798 q 101 814 106 811 q 70 865 66 835 q 83 884 72 881 q 87 884 85 884 q 137 870 121 873 q 166 928 157 913 q 191 940 176 940 q 219 931 205 939 q 234 915 233 923 q 242 859 236 887 q 261 861 252 860 q 273 863 271 863 z "},"+":{"ha":494,"x_min":66,"x_max":430,"o":"m 392 487 q 421 474 413 486 q 420 452 430 463 q 387 441 411 441 q 280 437 366 439 q 271 294 276 314 q 248 265 264 271 q 215 269 231 258 q 193 302 199 280 q 182 435 183 338 q 85 433 108 433 q 70 456 73 433 q 83 481 66 479 q 182 484 95 482 q 191 615 184 591 q 217 629 195 628 q 261 619 240 629 q 282 593 282 608 q 281 486 282 583 q 392 487 368 488 z "},",":{"ha":214,"x_min":67,"x_max":144,"o":"m 106 66 q 133 55 122 66 q 144 29 144 44 q 132 -13 144 5 q 109 -39 120 -31 q 92 -38 103 -43 q 83 -21 81 -32 q 84 -18 83 -20 q 89 -13 86 -16 q 94 -6 92 -9 q 74 11 81 -1 q 70 36 67 22 q 83 57 73 49 q 106 66 93 66 z "},"-":{"ha":443,"x_min":68,"x_max":377,"o":"m 356 484 q 372 471 368 482 q 372 450 377 460 q 356 440 368 439 q 231 442 336 441 q 85 439 125 442 q 73 449 77 438 q 71 471 68 459 q 82 484 73 483 q 220 487 104 487 q 356 484 337 487 z "},".":{"ha":214,"x_min":63,"x_max":144,"o":"m 106 68 q 133 57 122 68 q 144 31 144 46 q 121 -4 144 5 q 80 4 98 -14 q 73 45 63 21 q 106 68 82 68 z "},"/":{"ha":612,"x_min":68,"x_max":547,"o":"m 445 922 q 471 931 453 933 q 509 922 490 929 q 537 898 528 914 q 538 865 547 882 q 349 486 446 694 q 195 144 252 278 q 136 9 137 10 q 112 -7 129 -3 q 81 -2 95 -10 q 70 22 68 6 q 162 306 81 100 q 328 695 242 511 q 445 922 413 880 z "},":":{"ha":214,"x_min":63,"x_max":144,"o":"m 133 549 q 127 544 133 549 q 106 538 122 538 q 80 549 91 538 q 69 576 69 560 q 80 602 69 591 q 106 612 91 612 q 133 602 122 612 q 144 576 144 591 q 133 549 144 560 m 106 366 q 133 355 122 366 q 144 329 144 345 q 121 294 144 304 q 80 302 98 285 q 73 343 63 319 q 106 366 82 366 z "},";":{"ha":214,"x_min":67,"x_max":144,"o":"m 133 553 q 127 548 133 553 q 106 543 122 543 q 80 553 91 543 q 69 580 69 564 q 80 606 69 595 q 106 617 91 617 q 133 606 122 617 q 144 580 144 595 q 133 553 144 564 m 106 372 q 133 361 122 372 q 144 334 144 350 q 132 292 144 311 q 109 267 120 274 q 92 268 103 262 q 83 284 81 273 q 84 287 83 286 q 89 292 86 289 q 94 299 92 296 q 74 316 81 304 q 70 341 67 328 q 83 363 73 354 q 106 372 93 372 z "},"<":{"ha":389,"x_min":65,"x_max":321,"o":"m 300 410 q 315 387 316 402 q 300 376 313 374 q 191 409 288 379 q 89 441 94 439 q 71 464 77 444 q 77 494 65 484 q 185 549 106 519 q 290 580 264 580 q 314 565 306 580 q 318 532 321 549 q 303 507 315 514 q 231 480 286 498 q 166 462 176 463 q 240 433 181 454 q 300 410 299 411 z "},"=":{"ha":443,"x_min":68,"x_max":377,"o":"m 85 513 q 73 523 77 512 q 71 545 68 533 q 82 558 73 557 q 220 561 104 561 q 356 558 337 561 q 372 545 368 556 q 372 524 377 534 q 356 514 368 513 q 231 516 336 515 q 85 513 125 516 m 356 414 q 372 401 368 412 q 372 380 377 390 q 356 370 368 370 q 231 372 336 372 q 85 369 125 372 q 73 379 77 368 q 71 401 68 389 q 82 414 73 413 q 220 417 104 417 q 356 414 337 417 z "},">":{"ha":389,"x_min":67,"x_max":323,"o":"m 300 510 q 317 488 311 507 q 311 457 323 468 q 203 402 282 433 q 99 371 124 371 q 75 387 83 371 q 70 420 67 402 q 85 444 73 437 q 157 471 102 454 q 222 489 212 488 q 148 518 207 496 q 88 541 89 540 q 73 564 73 549 q 85 576 73 577 l 88 575 q 198 542 100 572 q 300 510 295 511 z "},"?":{"ha":558,"x_min":69,"x_max":488,"o":"m 206 61 q 212 66 206 61 q 233 72 217 72 q 259 61 248 72 q 270 35 270 50 q 259 8 270 19 q 233 -3 248 -3 q 206 8 217 -3 q 195 35 195 19 q 206 61 195 50 m 348 899 q 231 859 290 899 q 137 764 173 820 q 102 657 102 707 q 105 646 109 653 q 96 638 102 639 q 89 638 94 637 q 80 641 84 639 q 72 651 75 643 q 69 672 69 659 q 109 784 69 722 q 214 890 148 845 q 346 935 280 935 q 389 928 366 935 q 435 905 412 920 q 473 859 458 889 q 488 788 488 828 q 468 656 488 723 q 418 528 448 589 q 355 407 387 467 q 294 271 323 346 q 254 124 265 197 q 240 107 251 109 q 219 115 229 106 q 207 135 208 123 q 216 274 199 201 q 264 414 233 347 q 327 546 295 480 q 381 686 358 612 q 404 828 404 761 q 390 883 404 867 q 348 899 376 899 z "},"@":{"ha":618,"x_min":69,"x_max":549,"o":"m 314 713 q 415 688 369 713 q 489 623 461 663 q 533 538 517 584 q 549 450 549 493 q 544 390 549 419 q 530 332 540 360 q 503 287 521 304 q 459 270 484 270 q 390 303 421 270 q 345 393 358 336 q 276 315 318 315 q 220 346 243 315 q 197 435 197 377 q 228 541 197 507 q 302 575 259 575 q 357 562 330 576 q 376 570 365 570 q 410 561 397 570 q 422 538 423 551 q 419 414 414 467 q 437 332 425 362 q 461 302 449 302 q 491 349 475 302 q 507 441 507 396 q 453 603 507 535 q 343 670 399 670 q 205 595 264 670 q 146 420 146 521 q 187 289 146 340 q 284 237 229 237 q 348 259 307 237 q 360 260 353 262 q 368 252 366 257 q 365 243 369 247 q 327 222 354 234 q 278 211 300 211 q 133 277 197 211 q 69 439 69 343 q 100 570 69 508 q 187 673 130 633 q 314 713 244 713 m 337 484 q 341 525 337 498 q 300 470 321 524 q 283 366 279 415 q 337 484 311 404 z "},"A":{"ha":732,"x_min":68,"x_max":794,"o":"m 771 328 q 778 335 772 334 q 789 333 784 336 q 793 323 794 330 q 784 244 789 278 q 771 165 779 210 q 754 87 764 119 q 731 24 744 54 q 700 -21 718 -5 q 661 -37 682 -37 q 633 -32 646 -37 q 600 -3 620 -26 q 563 60 579 20 q 532 179 547 100 q 509 363 517 257 q 302 356 425 363 q 268 234 279 275 q 238 136 256 193 q 207 48 220 79 q 182 2 194 17 q 161 -1 173 -9 q 157 13 151 6 q 180 57 168 27 q 209 142 192 87 q 236 235 225 197 q 268 354 246 273 q 84 334 174 347 q 72 340 77 333 q 70 355 68 347 q 79 363 72 363 q 277 386 182 378 q 313 517 298 465 q 349 640 328 569 q 389 757 371 711 q 429 847 408 803 q 471 912 450 890 q 513 933 492 933 q 550 917 534 933 q 574 871 566 901 q 589 802 583 842 q 597 714 595 762 q 600 613 599 667 q 600 504 601 559 q 600 393 600 449 q 686 383 672 389 q 692 381 688 382 q 699 379 696 380 q 704 377 701 378 q 707 373 706 376 q 708 368 708 371 q 702 354 708 358 q 685 356 696 350 q 600 361 657 359 q 618 127 602 220 q 675 -5 634 34 q 704 31 687 -5 q 739 147 720 68 q 771 328 758 226 m 311 389 q 507 395 406 395 q 501 606 501 505 q 503 722 501 644 q 506 834 505 801 q 504 884 507 867 q 414 722 459 848 q 311 389 369 595 z "},"B":{"ha":687,"x_min":69,"x_max":755,"o":"m 734 337 q 748 333 741 342 q 749 318 755 323 q 587 251 704 273 q 461 66 566 144 q 234 -12 355 -12 q 117 15 165 -12 q 69 90 69 41 q 94 172 69 134 q 170 233 119 210 q 146 534 146 357 q 148 645 146 602 q 155 760 149 688 q 173 907 161 832 q 203 930 176 927 q 253 921 229 934 q 274 889 277 909 q 252 705 262 804 q 399 886 312 886 q 465 857 435 886 q 495 774 495 828 q 483 687 495 730 q 458 616 471 644 q 421 557 445 588 q 389 517 398 526 q 364 492 380 508 q 453 487 413 498 q 518 454 493 475 q 561 403 543 432 q 585 346 578 374 q 591 294 591 319 l 591 283 q 734 337 686 300 m 240 437 q 248 258 241 345 q 352 268 306 268 q 516 273 471 269 q 532 343 532 315 q 519 393 532 372 q 485 425 507 414 q 439 441 463 436 q 387 446 415 446 q 353 443 369 446 q 328 437 337 440 q 311 430 319 434 q 300 425 302 426 q 265 433 283 420 q 259 448 252 441 q 391 634 350 528 q 411 845 432 741 q 295 711 342 830 q 240 437 248 592 m 195 36 q 299 54 250 36 q 387 102 349 72 q 453 167 425 133 q 500 239 481 201 q 392 235 453 235 q 252 222 305 235 q 258 163 254 194 q 264 115 262 132 q 267 91 267 98 q 255 61 267 68 q 230 62 243 54 q 212 84 217 70 q 178 195 192 134 q 108 82 108 155 q 109 66 108 71 q 118 52 111 61 q 144 40 125 43 q 195 36 163 36 z "},"C":{"ha":532,"x_min":69,"x_max":596,"o":"m 572 327 q 580 335 574 334 q 591 331 587 336 q 595 321 596 326 q 318 -16 493 -16 q 184 44 242 -16 q 98 200 127 105 q 69 408 69 296 q 110 651 69 528 q 218 858 150 775 q 360 941 287 941 q 406 930 385 941 q 444 898 427 919 q 468 839 461 876 q 469 753 475 802 q 460 741 468 744 q 446 743 452 739 q 439 756 439 747 q 436 815 441 789 q 424 859 431 842 q 406 886 416 875 q 390 902 397 897 q 380 906 383 906 q 318 865 353 906 q 251 758 283 825 q 197 591 219 691 q 176 385 176 490 q 190 213 176 288 q 228 97 204 139 q 278 34 251 55 q 336 14 306 14 q 411 44 373 14 q 479 123 449 75 q 533 224 510 172 q 572 327 557 276 z "},"D":{"ha":789,"x_min":69,"x_max":852,"o":"m 829 336 q 841 338 833 340 q 850 331 848 336 q 848 320 852 326 q 754 254 805 271 q 635 237 704 236 q 512 84 585 151 q 365 -18 439 17 q 224 -52 290 -52 q 113 -16 156 -52 q 69 79 69 20 q 210 246 69 196 q 191 530 191 359 q 192 642 191 602 q 199 755 193 683 q 217 903 205 828 q 231 921 219 915 q 257 927 242 928 q 287 922 273 926 q 311 907 302 918 q 318 886 320 897 q 289 595 297 739 q 321 683 303 642 q 367 767 340 724 q 432 836 395 810 q 511 861 469 861 q 659 773 595 861 q 722 549 722 685 q 651 266 722 399 q 829 336 764 271 m 286 369 q 292 267 289 300 q 420 276 351 276 q 564 268 450 276 q 640 588 641 418 q 608 761 640 701 q 524 822 576 822 q 372 697 443 822 q 286 369 302 572 m 208 -18 q 386 53 288 -18 q 551 242 484 123 q 421 248 460 248 q 294 238 363 249 q 301 169 297 203 q 308 115 306 134 q 311 87 311 95 q 299 58 311 65 q 273 57 287 50 q 254 79 260 64 q 215 216 228 149 q 113 81 113 175 q 115 60 113 71 q 122 34 117 49 q 138 9 128 20 q 165 -10 147 -2 q 208 -18 184 -18 z "},"E":{"ha":555,"x_min":69,"x_max":618,"o":"m 599 334 q 610 341 601 342 q 618 331 618 340 q 609 284 618 315 q 581 215 599 254 q 534 136 562 176 q 472 62 505 96 q 393 7 438 28 q 301 -14 348 -14 q 134 55 198 -14 q 69 239 69 125 q 260 515 69 450 q 248 524 260 515 q 232 536 237 532 q 215 551 227 541 q 197 570 203 562 q 180 591 191 578 q 164 617 170 604 q 153 646 159 630 q 144 681 146 662 q 141 719 141 699 q 207 887 141 814 q 358 960 273 960 q 397 956 378 960 q 439 939 417 951 q 475 900 462 926 q 489 837 489 874 q 484 792 489 812 q 473 764 478 771 q 453 759 467 755 q 442 773 440 763 q 449 825 449 802 q 433 889 449 863 q 397 916 418 916 q 351 895 378 916 q 301 841 325 874 q 262 760 278 807 q 245 668 245 713 q 252 613 245 640 q 279 558 258 587 q 333 520 300 530 q 353 514 347 522 q 355 498 359 507 q 340 488 351 490 q 221 403 264 470 q 178 221 178 336 q 181 174 178 197 q 192 122 183 151 q 215 71 201 92 q 255 34 229 49 q 315 18 281 18 q 432 71 370 18 q 538 197 494 124 q 599 334 583 269 z "},"F":{"ha":508,"x_min":69,"x_max":821,"o":"m 821 924 q 770 883 821 897 q 644 869 718 869 q 587 871 614 869 q 542 874 559 873 q 500 880 524 876 q 468 885 476 884 q 435 893 459 887 q 406 899 410 899 q 408 884 410 892 q 382 497 387 693 q 479 493 478 493 q 495 475 494 492 q 488 459 496 460 q 485 459 486 458 q 381 462 484 459 q 400 20 377 237 q 388 -9 401 1 q 359 -13 375 -18 q 338 10 343 -7 q 286 464 294 156 q 173 465 189 465 q 165 469 168 465 q 160 477 161 472 q 159 487 159 482 q 162 496 159 492 q 170 500 165 499 q 286 500 203 503 q 285 523 286 508 q 285 545 285 537 q 292 759 285 650 q 314 909 298 868 q 315 911 315 910 q 315 912 315 911 q 279 913 292 913 q 199 905 235 913 q 141 885 162 897 q 109 863 120 872 q 93 845 98 853 q 84 833 94 833 q 70 844 73 831 l 69 851 q 131 915 69 883 q 277 947 192 947 q 438 925 318 947 q 648 903 559 903 q 704 905 677 903 q 745 911 730 908 q 772 919 761 915 q 789 925 783 922 q 795 928 795 928 q 804 939 794 938 q 821 928 817 940 q 821 924 821 926 z "},"G":{"ha":635,"x_min":69,"x_max":701,"o":"m 699 326 q 546 201 678 250 q 483 1 537 80 q 359 -79 428 -79 q 303 -55 321 -79 q 284 3 284 -31 q 329 120 284 69 q 448 194 374 172 q 450 227 450 216 q 441 361 450 289 q 418 303 431 331 q 386 242 406 276 q 344 184 366 208 q 292 142 322 159 q 229 125 261 125 q 193 133 212 125 q 152 159 174 140 q 111 209 129 179 q 81 291 94 239 q 69 409 69 343 q 75 491 69 446 q 92 588 80 536 q 122 688 104 639 q 164 783 139 738 q 219 863 189 829 q 289 919 250 898 q 373 939 329 939 q 445 922 416 939 q 484 880 473 905 q 496 823 494 854 q 492 766 498 793 q 478 719 486 739 q 465 695 471 700 q 448 692 457 688 q 445 711 439 696 q 463 796 463 751 q 449 871 463 842 q 411 901 434 901 q 314 850 361 901 q 235 720 267 798 q 182 551 202 642 q 162 379 162 459 q 185 226 162 292 q 243 160 209 160 q 340 236 284 160 q 435 412 396 312 q 432 427 434 415 q 430 445 431 438 q 461 462 428 460 q 517 448 498 463 q 523 440 522 445 q 547 242 547 342 l 547 227 q 677 332 663 273 q 685 339 679 338 q 696 336 691 340 q 699 326 701 332 m 353 -41 q 408 18 378 -41 q 446 167 437 78 q 361 107 393 144 q 330 22 330 69 q 338 -22 330 -3 q 353 -41 346 -41 z "},"H":{"ha":733,"x_min":69,"x_max":798,"o":"m 770 330 q 779 341 771 340 q 792 338 786 343 q 796 326 798 333 q 775 255 790 300 q 736 148 761 210 q 679 43 712 86 q 613 0 646 0 q 473 395 475 0 q 346 336 418 355 q 156 3 307 3 q 112 14 130 3 q 85 42 94 24 q 73 78 77 60 q 69 117 69 96 q 262 336 69 272 q 267 462 267 392 q 265 621 267 528 q 263 749 263 715 q 265 846 262 784 q 273 859 266 853 q 290 865 279 864 q 311 865 300 867 q 331 856 321 863 q 346 836 341 848 q 359 591 359 805 q 349 363 359 472 q 473 433 415 387 q 520 793 475 655 q 622 931 564 931 q 676 904 654 931 q 699 818 699 876 q 663 651 699 743 q 564 482 627 558 q 559 330 559 415 q 573 98 559 168 q 615 28 587 28 q 674 88 639 28 q 736 217 709 147 q 770 330 762 288 m 156 35 q 174 41 164 35 q 198 65 184 47 q 222 113 211 84 q 244 192 234 142 q 260 307 255 243 q 216 289 237 300 q 169 258 195 278 q 127 204 142 237 q 111 131 111 172 q 125 64 111 94 q 156 35 140 35 m 640 877 q 602 753 622 849 q 570 538 581 656 q 635 674 613 602 q 657 806 657 745 q 640 877 657 851 z "},"I":{"ha":284,"x_min":66,"x_max":301,"o":"m 247 30 q 260 14 259 28 q 251 3 259 3 q 189 -4 248 3 q 125 -13 130 -12 q 114 -7 119 -14 q 110 9 110 1 q 116 18 111 18 q 159 25 136 22 q 111 545 111 182 q 132 906 111 732 l 132 906 q 87 903 91 903 q 71 917 75 901 q 79 938 66 934 q 167 943 87 940 q 290 945 246 945 q 301 929 301 945 q 290 912 301 912 q 227 910 277 912 q 229 896 231 904 q 205 567 210 730 q 205 307 200 404 q 216 130 210 210 q 222 43 222 50 q 220 31 222 43 q 247 30 235 32 z "},"J":{"ha":705,"x_min":69,"x_max":682,"o":"m 533 937 q 640 839 597 937 q 682 557 682 741 q 681 529 682 547 q 676 473 680 511 q 667 397 673 435 q 648 310 661 358 q 619 219 635 262 q 576 135 602 176 q 518 63 550 93 q 441 15 486 33 q 344 -3 396 -3 q 147 68 225 -3 q 69 234 69 139 q 94 318 69 277 q 159 389 119 359 q 248 438 198 419 q 347 456 298 456 q 413 439 382 456 q 448 404 444 421 q 442 390 451 394 q 429 395 433 386 q 396 422 419 412 q 349 433 372 433 q 243 408 296 433 q 155 339 191 384 q 120 243 120 294 q 149 149 120 197 q 229 68 177 101 q 340 35 281 35 q 472 109 414 35 q 562 311 530 182 q 593 605 593 441 q 579 808 593 707 q 541 909 565 909 q 480 851 507 909 q 452 724 452 794 q 466 640 452 681 q 495 579 480 600 q 515 559 509 559 q 530 553 526 559 q 531 540 534 547 q 518 534 527 534 q 454 592 490 534 q 418 734 418 650 q 425 792 418 759 q 445 858 432 825 q 481 914 458 891 q 533 937 505 937 z "},"K":{"ha":547,"x_min":69,"x_max":612,"o":"m 588 338 q 596 344 589 344 q 607 340 602 344 q 611 330 612 336 q 586 267 605 304 q 539 192 566 229 q 474 127 511 154 q 400 101 436 101 q 168 257 256 101 q 184 27 171 176 q 173 -1 186 8 q 143 -5 159 -11 q 122 18 127 0 q 82 247 96 102 q 69 553 69 392 q 76 767 69 658 q 98 918 83 876 q 130 938 105 937 q 174 926 154 940 q 193 892 195 912 q 165 408 165 648 q 221 469 188 430 q 297 567 254 509 q 384 706 339 626 q 460 869 428 787 q 476 876 465 877 q 499 864 488 874 q 509 845 510 854 q 478 775 507 834 q 405 637 449 715 q 297 478 360 559 q 176 357 234 397 q 194 320 185 338 q 220 273 203 302 q 254 222 236 245 q 294 177 273 199 q 341 143 315 155 q 391 131 366 131 q 453 152 422 131 q 507 200 485 172 q 549 261 530 229 q 577 313 568 293 q 588 338 586 332 z "},"L":{"ha":574,"x_min":69,"x_max":578,"o":"m 551 161 q 565 169 552 170 q 578 158 578 168 q 539 63 574 101 q 446 24 503 24 q 334 47 406 24 q 227 70 262 70 q 162 52 177 70 q 132 22 153 40 q 99 5 111 5 q 83 8 90 5 q 73 14 76 11 q 69 20 69 18 q 77 39 69 29 q 95 62 84 48 q 116 99 105 77 q 134 169 127 122 q 142 280 142 216 q 134 433 142 319 q 125 588 125 546 q 171 845 125 749 q 293 942 216 942 q 331 938 314 942 q 366 920 347 933 q 395 876 385 907 q 406 798 406 845 q 393 708 406 749 q 370 651 381 667 q 353 630 359 634 q 333 631 345 626 q 327 646 321 636 q 332 655 328 647 q 340 669 337 663 q 349 688 344 675 q 358 713 355 701 q 364 745 361 726 q 366 785 366 764 q 359 846 366 819 q 344 887 353 874 q 330 900 336 900 q 315 895 324 900 q 290 869 305 890 q 261 816 274 848 q 239 721 249 784 q 230 576 230 658 q 232 513 230 566 q 235 411 235 460 q 232 300 235 361 q 219 184 230 239 q 189 94 208 130 q 259 99 218 104 q 330 84 299 94 q 398 65 361 75 q 457 56 435 56 q 518 86 492 56 q 551 161 544 117 z "},"M":{"ha":844,"x_min":66,"x_max":908,"o":"m 882 324 q 890 333 884 332 q 903 329 897 334 q 907 318 908 325 q 902 289 907 317 q 891 226 897 261 q 873 148 885 191 q 849 70 862 105 q 816 12 836 35 q 775 -12 797 -12 q 685 98 715 -12 q 656 444 656 209 q 658 623 656 505 q 661 805 661 741 q 656 869 661 869 q 534 666 590 821 q 453 292 479 511 q 444 275 452 281 q 425 269 435 269 q 404 272 414 269 q 386 283 393 275 q 378 300 378 291 q 350 632 378 625 q 256 511 300 612 q 193 274 213 410 q 185 22 173 138 q 174 -3 186 6 q 147 -9 162 -12 q 126 11 132 -5 q 81 264 95 111 q 69 552 66 417 q 81 791 72 687 q 100 916 90 895 q 132 936 109 933 q 175 930 155 939 q 193 904 194 920 q 187 816 193 896 q 176 656 181 736 q 168 476 171 576 q 170 328 165 376 q 188 412 175 363 q 222 522 200 460 q 277 625 243 583 q 349 666 311 666 q 395 652 376 666 q 425 611 414 638 q 440 557 435 584 q 450 492 446 530 q 505 698 466 597 q 588 862 543 800 q 667 924 633 924 q 711 912 692 924 q 741 880 730 900 q 758 828 751 861 q 766 763 764 796 q 768 684 768 730 q 759 451 768 611 q 750 233 750 291 q 781 20 750 20 q 794 28 787 20 q 807 50 801 37 q 821 83 814 64 q 834 123 828 102 q 846 166 840 143 q 857 210 852 190 q 867 252 862 231 q 874 287 871 273 q 880 312 878 300 q 882 324 882 323 z "},"N":{"ha":644,"x_min":69,"x_max":710,"o":"m 682 325 q 692 335 684 333 q 705 331 699 337 q 707 315 710 326 q 698 269 705 310 q 680 183 690 227 q 654 91 670 138 q 615 14 639 44 q 563 -17 591 -17 q 470 80 504 -17 q 436 361 436 177 q 443 570 436 420 q 450 732 450 720 q 447 857 450 802 q 338 710 387 810 q 261 504 289 610 q 215 288 234 397 q 190 113 196 179 q 183 27 183 46 q 170 1 183 9 q 141 -3 156 -7 q 122 12 125 1 q 69 572 69 180 q 70 644 69 610 q 72 706 71 677 q 74 755 73 734 q 78 798 75 777 q 81 832 80 819 q 85 860 82 844 q 89 881 88 876 q 93 900 90 886 q 96 914 96 913 q 124 937 100 933 q 171 930 149 941 q 191 903 193 919 q 178 754 186 880 q 164 484 169 629 q 170 257 159 338 q 199 424 174 319 q 260 638 223 528 q 348 826 296 747 q 450 905 400 905 q 528 851 508 905 q 548 669 548 797 q 537 457 548 639 q 526 231 526 276 q 537 83 526 154 q 570 12 549 12 q 610 59 589 12 q 644 161 631 106 q 670 270 658 216 q 682 325 682 324 z "},"O":{"ha":648,"x_min":69,"x_max":611,"o":"m 334 931 q 451 905 400 931 q 531 838 501 878 q 579 741 561 797 q 605 633 598 685 q 611 526 611 582 q 605 447 611 496 q 588 337 600 399 q 557 215 576 276 q 514 104 538 155 q 456 21 490 53 q 384 -11 422 -11 q 315 12 346 -11 q 265 71 284 35 q 233 152 246 106 q 213 239 219 197 q 206 320 208 280 q 105 412 140 347 q 69 575 69 477 q 102 739 69 658 q 197 876 134 820 q 334 931 259 931 m 393 22 q 458 89 429 41 q 506 192 488 136 q 537 310 524 248 q 554 421 549 373 q 559 503 559 469 q 548 648 559 583 q 517 758 536 714 q 473 830 498 801 q 419 873 447 860 q 363 886 392 886 q 297 861 334 886 q 227 795 261 837 q 170 688 193 753 q 146 552 146 623 q 206 361 146 416 q 210 455 207 412 q 216 527 212 499 q 226 578 220 554 q 235 613 231 602 q 243 636 238 625 q 248 650 248 648 q 272 664 252 661 q 308 658 292 667 q 321 632 325 650 q 304 507 313 597 q 297 326 295 416 q 368 334 334 326 q 383 339 376 341 q 391 332 390 338 q 391 322 393 326 q 368 308 385 313 q 339 303 351 303 q 303 302 327 302 l 298 302 q 393 22 307 77 z "},"P":{"ha":513,"x_min":69,"x_max":583,"o":"m 415 927 q 465 916 438 927 q 520 882 492 905 q 565 819 547 860 q 583 726 583 779 q 562 563 583 639 q 503 432 540 486 q 418 337 467 377 q 317 276 370 296 q 210 253 264 255 q 227 27 214 155 q 215 -1 228 8 q 185 -5 201 -11 q 164 18 170 0 q 123 271 137 106 q 84 301 98 284 q 69 330 69 318 q 85 354 69 351 q 101 346 97 355 q 100 334 103 340 q 120 306 106 319 q 112 553 112 425 q 119 767 112 658 q 141 918 125 876 q 172 938 148 937 q 216 926 196 940 q 235 892 237 912 q 216 673 222 784 q 249 762 230 720 q 293 843 268 804 q 350 904 318 881 q 415 927 382 927 m 209 282 q 272 296 239 284 q 345 339 305 309 q 416 414 385 370 q 468 534 447 459 q 489 702 489 609 q 484 771 489 739 q 471 824 479 803 q 455 859 464 844 q 439 880 447 873 q 427 886 432 886 q 353 849 391 886 q 284 746 315 811 q 232 583 253 680 q 207 376 210 486 q 209 282 207 370 z "},"Q":{"ha":672,"x_min":69,"x_max":661,"o":"m 545 39 q 631 28 601 39 q 661 -3 661 16 q 646 -22 661 -18 q 627 -13 631 -26 q 626 -6 626 -10 q 579 0 612 0 q 508 -4 547 -1 q 406 -11 469 -7 q 285 -14 342 -14 q 180 -1 220 -14 q 141 39 141 13 q 147 50 141 48 q 158 47 153 51 q 164 37 164 43 q 284 19 188 19 q 303 19 291 19 q 321 20 315 20 q 237 107 272 47 q 187 235 203 166 q 100 343 131 271 q 69 519 69 416 q 105 720 69 623 q 207 879 141 817 q 352 941 273 941 q 643 539 643 941 q 633 435 643 500 q 604 293 623 370 q 552 144 585 216 q 477 35 518 72 q 545 39 511 39 m 397 256 q 416 266 403 270 q 426 251 429 262 q 425 248 426 250 q 372 219 418 233 q 297 205 325 205 l 290 205 q 338 80 308 126 q 403 33 369 33 q 440 54 417 33 q 489 119 463 75 q 538 222 515 163 q 576 370 561 281 q 591 556 591 458 q 536 812 591 724 q 400 901 480 901 q 344 889 374 901 q 277 847 313 878 q 213 772 241 817 q 164 652 184 727 q 145 484 145 576 q 177 319 145 382 l 177 321 q 184 492 177 415 q 201 613 191 568 q 222 683 212 658 q 239 718 231 707 q 269 727 249 726 q 308 717 290 728 q 320 689 326 706 q 274 446 281 570 q 284 235 266 321 q 354 237 319 229 q 397 256 388 245 z "},"R":{"ha":598,"x_min":69,"x_max":665,"o":"m 641 330 q 655 335 646 340 q 662 321 665 329 q 649 291 660 314 q 614 231 637 269 q 563 159 590 193 q 497 101 535 125 q 423 76 460 76 q 167 287 276 76 q 184 27 170 199 q 173 -1 186 8 q 143 -5 159 -11 q 122 18 127 0 q 82 247 96 102 q 69 553 69 392 q 76 767 69 658 q 98 918 83 876 q 130 938 105 937 q 174 926 154 940 q 193 892 195 912 q 169 591 176 740 q 205 711 184 654 q 254 818 226 767 q 320 900 282 869 q 399 930 357 930 q 498 883 460 930 q 537 767 537 837 q 511 633 537 701 q 442 507 486 565 q 334 407 398 450 q 197 352 269 365 q 215 318 201 346 q 243 268 230 291 q 278 213 256 244 q 321 159 300 181 q 369 121 342 136 q 423 105 397 105 q 534 174 471 105 q 641 330 597 243 m 411 888 q 296 806 351 888 q 207 609 240 725 q 166 378 173 492 q 285 430 230 391 q 375 523 340 469 q 431 638 411 576 q 452 761 452 701 q 438 843 452 799 q 411 888 425 888 z "},"S":{"ha":629,"x_min":69,"x_max":585,"o":"m 563 451 q 578 445 572 451 q 585 431 585 439 q 581 422 585 425 q 571 420 576 419 q 562 427 565 422 q 472 405 515 420 q 573 255 573 346 q 536 158 573 208 q 446 71 500 108 q 328 10 391 34 q 212 -14 264 -14 q 165 -7 189 -14 q 119 11 142 -1 q 83 44 97 22 q 69 94 69 66 q 89 172 69 133 q 141 243 109 211 q 216 306 173 275 q 303 359 260 336 q 393 401 346 382 q 329 427 370 411 q 257 454 287 443 q 192 485 228 465 q 134 526 156 505 q 96 578 112 547 q 81 648 81 610 q 105 739 81 688 q 166 833 129 789 q 255 907 203 877 q 355 937 306 937 q 426 926 392 937 q 486 891 460 914 q 524 837 512 868 q 527 762 536 806 q 482 670 517 718 q 459 667 471 655 q 452 689 446 679 q 484 802 484 750 q 463 858 484 840 q 416 876 442 876 q 356 862 389 876 q 289 823 322 848 q 227 766 255 798 q 181 691 199 733 q 163 605 163 648 q 180 554 163 576 q 229 513 197 531 q 292 483 260 496 q 369 452 323 470 q 444 420 415 435 q 563 451 523 449 m 490 297 q 422 386 490 349 q 279 309 346 353 q 167 206 213 264 q 121 94 121 149 q 134 46 121 61 q 177 31 147 31 q 315 67 243 31 q 439 167 388 104 q 490 297 490 231 z "},"T":{"ha":558,"x_min":69,"x_max":812,"o":"m 599 891 q 486 898 587 891 q 471 744 477 821 q 462 599 465 667 q 458 470 460 532 q 458 352 457 408 q 461 252 460 296 q 466 167 463 208 q 471 102 469 125 q 475 53 473 78 q 477 27 477 28 q 466 -1 479 8 q 436 -5 452 -11 q 415 18 420 0 q 375 247 389 102 q 362 553 362 392 q 386 905 362 811 q 244 912 280 912 q 148 902 190 912 q 91 878 105 892 q 79 871 89 869 q 69 886 69 874 q 120 928 69 912 q 245 944 170 944 q 402 935 327 944 q 439 942 417 945 q 475 928 460 940 q 600 922 534 922 q 653 924 627 922 q 697 928 678 925 q 731 933 715 930 q 758 940 747 937 q 777 945 769 943 q 789 949 784 947 q 794 951 793 951 q 800 957 795 956 q 808 955 804 958 q 812 942 812 951 q 805 929 812 936 q 782 916 798 923 q 741 903 765 909 q 681 895 718 898 q 599 891 644 891 z "},"U":{"ha":604,"x_min":69,"x_max":669,"o":"m 644 333 q 656 344 646 342 q 667 334 668 346 q 667 332 667 333 q 614 85 643 172 q 547 -1 586 -1 q 450 122 483 -1 q 418 465 418 246 q 422 647 418 551 q 389 531 409 602 q 355 410 370 460 q 322 298 341 359 q 288 195 304 237 q 254 116 272 153 q 219 60 237 79 q 183 41 201 41 q 153 46 166 41 q 124 69 139 52 q 98 116 109 87 q 81 198 88 145 q 75 321 75 250 q 90 572 75 397 q 105 793 105 747 q 105 802 105 795 q 105 813 106 809 q 105 823 105 818 q 104 831 105 829 q 101 833 103 833 q 94 827 100 832 q 83 821 89 821 q 73 824 77 820 q 69 833 69 828 q 78 852 69 843 q 104 862 87 862 q 163 808 147 862 q 179 644 179 753 q 170 432 179 596 q 160 229 160 269 q 168 119 160 165 q 186 73 175 73 q 237 158 201 73 q 327 420 273 243 q 433 813 381 596 q 445 911 439 879 q 472 930 448 927 q 518 922 496 932 q 540 897 541 911 q 513 537 521 697 q 508 286 506 377 q 518 133 511 194 q 534 51 526 72 q 550 30 543 30 q 595 121 567 30 q 644 333 624 212 z "},"V":{"ha":574,"x_min":68,"x_max":591,"o":"m 545 932 q 548 938 545 935 q 554 943 550 941 q 562 945 557 945 q 570 941 566 945 q 576 932 574 938 q 591 827 591 887 q 587 768 591 815 q 572 643 583 722 q 547 477 562 564 q 508 301 532 391 q 455 140 484 211 q 383 23 425 68 q 294 -22 341 -22 q 202 27 242 -22 q 139 157 162 77 q 100 335 116 237 q 78 529 84 433 q 71 710 73 626 q 70 846 68 794 q 73 905 71 897 q 100 927 77 924 q 145 917 123 930 q 166 882 167 904 q 176 497 158 701 q 231 153 193 294 q 313 13 269 13 q 367 60 334 13 q 433 195 399 107 q 495 394 467 283 q 538 647 524 504 q 545 932 553 791 z "},"W":{"ha":854,"x_min":69,"x_max":824,"o":"m 735 949 q 754 943 744 949 q 777 915 764 937 q 800 858 789 893 q 817 758 810 823 q 824 606 824 692 q 820 525 824 575 q 807 404 816 475 q 781 263 798 332 q 740 133 763 194 q 680 35 717 73 q 600 -3 644 -3 q 568 2 585 -3 q 529 20 551 7 q 485 56 507 32 q 445 115 464 81 q 410 202 425 149 q 388 321 395 255 q 361 244 376 280 q 328 174 347 209 q 286 119 309 139 q 240 98 263 98 q 118 196 168 98 q 69 494 69 294 q 80 708 69 581 q 104 905 91 836 q 131 923 108 922 q 174 914 153 925 q 193 888 195 903 q 176 645 182 755 q 171 458 171 535 q 177 321 172 381 q 189 226 182 262 q 207 168 197 191 q 227 136 217 144 q 247 128 237 128 q 275 150 258 128 q 312 207 292 171 q 350 298 331 243 q 382 414 370 353 q 382 427 382 418 q 382 439 382 435 q 403 534 382 514 q 439 548 420 549 q 474 536 458 548 q 489 511 489 525 q 524 166 487 299 q 616 33 560 33 q 648 59 629 33 q 690 140 668 85 q 732 266 713 195 q 764 441 751 338 q 777 655 777 544 q 767 797 777 734 q 750 884 758 859 q 734 921 741 908 q 716 929 716 921 q 721 942 716 935 q 735 949 725 949 z "},"X":{"ha":594,"x_min":68,"x_max":660,"o":"m 635 332 q 644 338 637 337 q 655 334 650 339 q 657 321 660 330 q 636 255 649 296 q 615 192 623 214 q 596 136 608 169 q 574 86 584 104 q 551 46 565 68 q 523 14 537 24 q 491 -5 509 3 q 452 -12 473 -12 q 235 286 332 -12 q 123 7 160 119 q 94 -16 116 -15 q 71 0 75 -16 q 71 15 68 7 q 208 378 104 140 q 104 899 152 582 q 130 925 100 920 q 197 913 165 932 q 222 880 219 901 q 283 545 250 699 q 495 939 426 852 q 517 945 503 945 q 543 933 532 944 q 549 909 555 922 q 512 838 547 905 q 417 658 476 772 q 307 439 357 544 q 373 204 339 303 q 430 63 406 106 q 469 20 454 20 q 500 34 484 20 q 529 68 515 47 q 557 117 543 89 q 582 173 570 144 q 603 230 593 201 q 619 279 612 258 q 630 316 625 300 l 635 332 z "},"Y":{"ha":675,"x_min":69,"x_max":644,"o":"m 519 922 q 562 917 546 922 q 596 896 578 913 q 623 848 613 880 q 638 760 632 817 q 644 623 644 704 q 623 392 644 499 q 567 210 602 286 q 484 79 531 134 q 385 -1 437 25 q 278 -28 332 -28 q 196 -13 233 -28 q 136 22 158 1 q 97 67 113 43 q 75 109 81 91 q 69 137 69 127 q 85 161 69 157 q 103 152 99 163 q 103 139 105 146 q 116 113 104 132 q 147 71 127 95 q 201 28 167 46 q 275 10 236 10 q 315 17 294 10 q 362 41 336 23 q 414 88 389 60 q 464 164 439 116 q 506 272 488 212 q 535 419 524 332 q 547 610 547 507 q 542 760 547 694 q 531 844 537 827 q 490 735 511 800 q 454 615 469 671 q 419 500 439 559 q 379 399 399 441 q 331 331 359 358 q 267 304 302 304 q 196 336 226 304 q 150 421 165 368 q 129 526 135 473 q 122 635 122 579 q 130 803 122 724 q 145 916 138 883 q 169 933 149 931 q 209 926 190 936 q 226 902 227 916 q 219 803 222 871 q 214 633 215 735 q 227 449 212 532 q 271 345 241 366 q 334 434 303 366 q 387 582 364 502 q 431 740 410 663 q 474 870 452 818 q 519 922 497 922 z "},"Z":{"ha":581,"x_min":69,"x_max":675,"o":"m 305 52 q 376 66 305 52 q 496 81 446 81 q 580 68 547 81 q 613 33 613 54 q 600 12 613 15 q 581 24 586 9 q 579 37 579 30 q 468 32 548 45 q 303 -1 387 18 q 191 -20 218 -20 q 69 75 69 -20 q 98 166 69 111 q 174 280 127 220 q 277 406 220 340 q 390 537 333 471 q 493 663 446 603 q 568 779 539 724 q 597 873 597 835 q 571 886 597 879 q 524 893 545 893 q 228 813 371 893 q 208 817 220 809 q 191 836 197 825 q 191 850 184 846 l 202 857 q 228 872 214 865 q 263 891 241 880 q 311 911 285 902 q 368 929 337 921 q 435 943 398 938 q 509 948 471 948 q 624 909 572 948 q 675 811 675 870 q 646 707 675 768 q 568 582 616 646 q 463 450 520 518 q 347 317 405 381 q 242 197 290 252 q 164 97 194 142 q 134 31 134 53 q 305 52 164 22 z "},"[":{"ha":300,"x_min":66,"x_max":232,"o":"m 218 976 q 229 965 227 974 q 229 949 232 957 q 221 941 227 941 q 180 938 194 938 q 181 933 181 937 q 171 611 181 922 q 161 -3 161 300 q 174 -3 167 -3 q 182 -3 182 -3 q 199 -17 196 -4 q 191 -35 203 -31 q 150 -39 180 -38 q 104 -33 119 -40 q 87 -14 89 -28 q 70 483 66 161 q 92 962 75 806 q 115 976 94 976 q 218 976 199 981 z "},"\\":{"ha":612,"x_min":65,"x_max":545,"o":"m 543 32 q 531 7 545 16 q 500 2 517 -1 q 476 18 484 5 q 418 153 475 19 q 263 495 360 287 q 74 874 167 703 q 75 907 65 891 q 104 931 85 923 q 141 941 123 939 q 168 932 159 943 q 285 705 199 889 q 451 315 370 520 q 543 32 531 110 z "},"]":{"ha":300,"x_min":69,"x_max":234,"o":"m 213 953 q 230 456 234 779 q 209 -22 226 133 q 186 -37 207 -37 q 82 -37 102 -42 q 70 -18 69 -33 q 79 -1 70 -3 q 120 1 100 1 q 119 6 119 2 q 129 328 119 17 q 139 943 139 639 q 126 942 134 943 q 117 942 118 942 q 100 957 104 943 q 110 974 97 970 q 151 978 120 977 q 197 972 182 979 q 213 953 211 968 z "},"^":{"ha":555,"x_min":68,"x_max":487,"o":"m 461 470 q 471 483 465 479 q 482 482 477 486 q 487 470 487 478 q 477 426 487 450 q 441 383 467 403 q 381 363 416 363 q 270 405 347 363 q 164 448 193 448 q 117 432 141 448 q 92 409 92 417 q 83 398 91 399 q 70 410 72 397 q 71 425 69 416 q 82 451 73 435 q 107 487 91 468 q 150 518 123 505 q 206 532 176 532 q 285 509 243 532 q 365 465 327 487 q 428 443 402 443 q 450 448 445 443 q 461 470 456 453 z "},"_":{"ha":451,"x_min":68,"x_max":384,"o":"m 368 35 q 380 25 377 35 q 380 6 384 16 q 371 -3 377 -3 q 234 -10 370 -3 q 85 -18 97 -18 q 70 3 71 -18 q 77 26 68 24 q 212 34 92 32 q 368 35 332 36 z "},"`":{"ha":305,"x_min":66,"x_max":238,"o":"m 235 771 q 223 749 238 762 q 190 734 209 736 q 153 751 171 732 q 109 829 146 759 q 70 909 72 899 q 86 937 66 926 q 132 946 106 947 q 168 931 157 944 q 204 853 178 920 q 235 771 231 786 z "},"a":{"ha":411,"x_min":0,"x_max":475,"o":"m 447 321 q 456 330 448 327 q 469 330 463 334 q 473 317 475 327 q 462 261 469 292 q 439 179 455 231 q 406 86 424 126 q 362 17 389 47 q 307 -14 335 -14 q 251 12 275 -14 q 214 77 227 38 q 195 157 201 117 q 189 233 189 197 l 189 265 q 146 155 168 186 q 92 123 124 123 q 46 136 66 123 q 18 171 27 149 q 4 213 8 192 q 0 254 0 233 q 41 393 0 335 q 139 452 82 452 q 203 432 180 452 q 218 470 211 463 q 249 480 231 481 q 284 469 268 479 q 299 448 300 458 q 281 198 281 311 q 288 97 281 140 q 304 37 296 54 q 319 20 313 20 q 384 119 341 20 q 447 321 427 218 m 104 179 q 133 232 119 195 q 162 319 147 268 q 185 389 178 370 q 171 404 176 404 q 160 397 168 404 q 142 375 153 390 q 123 339 132 359 q 107 286 114 318 q 101 218 101 254 q 104 179 101 179 z "},"b":{"ha":534,"x_min":-20,"x_max":600,"o":"m 574 334 q 586 337 578 339 q 596 330 593 335 q 595 317 600 324 q 409 233 545 263 q 367 126 398 176 q 295 45 336 77 q 209 -4 254 14 q 121 -22 163 -22 q 15 9 50 -22 q -20 75 -20 41 q 54 175 -20 132 q 15 410 15 287 q 55 663 15 540 q 155 858 95 785 q 273 931 215 931 q 339 906 317 931 q 360 845 360 881 q 333 714 360 789 q 266 574 305 640 q 183 455 227 509 q 108 378 140 401 l 108 369 q 116 228 108 290 q 136 313 122 271 q 170 394 149 356 q 221 455 191 431 q 286 479 252 479 q 378 424 341 479 q 414 290 414 369 q 413 267 414 282 q 574 334 534 292 m 301 890 q 252 850 281 890 q 193 748 222 810 q 140 598 164 686 q 110 427 117 511 q 190 525 144 458 q 276 682 237 593 q 315 836 315 772 q 311 874 315 857 q 301 890 307 890 m 97 16 q 152 28 121 16 q 215 62 182 39 q 275 124 248 84 q 316 215 303 164 q 271 208 282 209 q 148 179 208 198 q 148 94 144 142 q 155 76 150 88 q 155 52 162 61 q 136 44 147 43 q 117 50 124 45 q 97 80 111 56 q 68 138 83 104 q 33 68 33 108 q 50 32 33 48 q 97 16 66 16 m 323 251 q 328 309 328 279 q 318 394 328 348 q 295 441 309 441 q 207 375 247 441 q 153 216 168 310 q 260 240 205 231 q 323 251 277 243 z "},"c":{"ha":376,"x_min":0,"x_max":439,"o":"m 412 328 q 421 333 414 332 q 434 331 428 334 q 437 321 439 328 q 397 212 422 266 q 340 108 373 158 q 265 27 308 58 q 177 -3 222 -3 q 82 34 123 -3 q 20 127 41 71 q 0 248 0 184 q 44 406 0 338 q 155 473 87 473 q 207 461 185 473 q 239 433 229 450 q 254 399 250 415 q 258 368 258 383 q 244 355 258 355 q 229 364 230 355 q 210 409 225 384 q 182 434 195 434 q 133 368 157 434 q 109 221 109 302 q 116 125 109 165 q 136 65 123 85 q 162 37 149 45 q 189 28 174 28 q 273 77 227 28 q 354 193 319 127 q 412 328 389 260 z "},"d":{"ha":459,"x_min":0,"x_max":524,"o":"m 498 327 q 513 339 502 342 q 523 324 524 336 q 517 283 522 313 q 499 202 512 254 q 469 105 486 150 q 423 27 452 60 q 362 -7 395 -7 q 280 54 319 -7 q 227 230 241 114 q 103 66 166 66 q 81 70 93 66 q 54 84 69 73 q 28 111 39 94 q 8 157 16 127 q 0 224 0 186 q 3 268 0 245 q 12 317 5 290 q 32 368 19 345 q 61 412 44 392 q 104 444 78 432 q 163 456 131 456 q 223 439 199 456 q 255 644 231 549 q 312 797 280 739 q 377 889 344 856 q 436 922 410 922 q 495 891 476 922 q 513 795 513 859 q 492 650 513 725 q 437 515 470 574 q 372 412 404 456 q 313 343 340 368 q 312 332 313 339 q 312 321 312 324 q 373 23 312 75 q 397 43 385 30 q 419 76 409 57 q 438 115 429 94 q 455 160 448 136 q 469 205 463 184 q 481 248 475 226 q 489 284 486 271 q 495 312 492 298 q 498 327 498 326 m 458 878 q 366 689 409 831 q 314 387 323 547 q 378 481 343 420 q 444 617 413 542 q 480 761 474 692 q 458 878 486 829 m 113 107 q 166 176 142 125 q 220 313 191 228 q 220 329 220 318 q 220 346 220 340 q 220 358 220 350 q 220 370 220 366 q 193 411 205 411 q 177 404 188 411 q 154 378 167 397 q 129 334 140 360 q 109 266 117 308 q 100 172 100 223 q 104 128 100 149 q 113 107 109 107 z "},"e":{"ha":287,"x_min":0,"x_max":351,"o":"m 325 326 q 334 335 327 334 q 346 331 340 336 q 350 321 351 327 q 339 290 349 314 q 311 227 330 265 q 269 153 292 188 q 214 93 246 118 q 149 67 182 67 q 43 122 86 67 q 0 269 0 176 q 14 359 0 312 q 59 443 28 406 q 131 481 90 481 q 190 462 168 481 q 213 411 213 443 q 175 282 213 330 q 106 239 137 234 q 121 140 106 181 q 156 99 136 99 q 249 177 191 99 q 325 326 307 256 m 163 435 q 107 262 113 363 q 140 287 123 266 q 168 334 157 307 q 178 389 178 360 q 163 435 178 417 z "},"f":{"ha":237,"x_min":0,"x_max":302,"o":"m 278 321 q 289 325 283 326 q 299 318 295 323 q 299 308 302 312 q 231 236 271 271 q 164 184 190 201 q 132 165 138 167 q 198 85 174 149 q 222 -68 222 21 q 220 -123 222 -100 q 212 -173 218 -146 q 191 -213 205 -199 q 153 -227 176 -227 q 96 -200 121 -227 q 54 -130 70 -174 q 26 -38 38 -87 q 9 62 15 10 q 2 149 4 114 q 0 208 0 184 q 30 535 0 371 q 111 808 60 700 q 216 917 161 917 q 273 893 254 917 q 292 807 292 869 q 235 534 292 673 q 95 321 178 395 q 91 191 91 259 q 91 186 91 190 q 92 181 92 183 q 193 242 134 197 q 278 321 251 288 m 233 876 q 215 855 228 876 q 186 788 203 833 q 152 685 169 743 q 120 540 135 626 q 98 362 105 454 q 173 477 136 404 q 231 627 210 551 q 257 772 253 703 q 233 876 260 842 m 160 -195 q 187 -124 180 -178 q 187 -12 194 -71 q 155 94 180 46 q 92 144 130 141 q 115 -84 95 -2 q 160 -195 134 -167 z "},"g":{"ha":444,"x_min":0,"x_max":508,"o":"m 492 339 q 502 335 496 340 q 508 324 507 330 q 499 315 508 318 q 373 262 439 304 q 374 205 374 244 q 357 36 374 118 q 310 -109 340 -46 q 244 -219 281 -171 q 167 -291 208 -267 q 89 -316 127 -316 q 23 -292 47 -316 q 0 -208 0 -267 q 82 11 0 -123 q 285 237 163 144 q 266 390 280 353 q 219 306 241 355 q 186 225 197 256 q 153 170 174 193 q 101 146 132 146 q 40 178 64 146 q 16 282 16 209 q 22 332 16 304 q 42 392 28 359 q 85 446 56 424 q 153 467 115 467 q 196 460 173 467 q 232 437 220 453 q 264 448 247 448 q 370 292 353 448 q 492 339 429 324 m 106 195 q 163 306 133 227 q 205 404 193 385 q 187 419 193 419 q 125 334 146 397 q 104 224 104 271 q 106 195 104 194 m 87 -281 q 150 -244 115 -281 q 214 -146 184 -207 q 265 2 244 -86 q 286 180 286 90 l 286 197 q 116 -3 184 110 q 47 -199 47 -115 q 58 -255 47 -229 q 87 -281 69 -281 z "},"h":{"ha":462,"x_min":0,"x_max":527,"o":"m 503 329 q 512 338 506 337 q 523 335 518 340 q 526 326 527 331 q 492 209 511 266 q 450 91 474 151 q 398 -6 426 31 q 343 -43 370 -43 q 281 -1 308 -43 q 254 121 254 42 q 260 217 254 151 q 268 323 266 283 q 262 426 269 364 q 242 413 256 426 q 210 370 228 399 q 177 300 192 340 q 153 199 161 260 q 150 69 145 138 q 142 54 151 58 q 120 50 132 49 q 102 57 108 52 q 87 79 98 62 q 61 129 77 96 q 32 203 45 163 q 9 301 19 243 q 0 416 0 358 q 40 669 0 547 q 140 865 80 792 q 258 938 200 938 q 324 913 302 938 q 345 852 345 888 q 318 721 345 795 q 251 581 290 646 q 169 461 212 515 q 93 385 125 408 l 93 368 q 110 187 92 275 q 124 281 113 234 q 154 370 136 328 q 202 439 173 412 q 264 465 231 465 q 311 453 293 465 q 337 417 330 440 q 347 374 345 393 q 349 327 349 355 q 341 232 349 315 q 333 80 332 149 q 353 -12 334 12 q 372 2 362 -9 q 391 30 382 14 q 411 68 401 46 q 431 113 422 90 q 449 160 439 135 q 466 208 458 186 q 480 252 473 229 q 491 289 487 274 q 499 316 496 303 q 503 329 503 328 m 286 897 q 230 851 261 892 q 172 748 199 810 q 123 602 144 686 q 96 434 102 517 q 227 617 154 486 q 300 842 300 748 q 298 869 300 856 q 293 890 296 882 q 286 897 290 897 z "},"i":{"ha":212,"x_min":0,"x_max":276,"o":"m 254 331 q 261 337 255 336 q 271 336 267 339 q 274 326 276 333 q 269 302 274 325 q 260 263 264 280 q 247 217 256 246 q 230 165 238 187 q 209 117 222 143 q 184 75 197 92 q 155 46 172 58 q 121 35 138 35 q 65 58 90 35 q 27 116 41 80 q 7 189 14 151 q 0 263 0 227 q 22 398 0 373 q 54 411 35 412 q 89 399 73 410 q 104 377 105 389 q 94 203 94 265 q 101 126 94 159 q 115 78 107 92 q 128 64 122 64 q 185 131 152 64 q 254 331 218 199 m 97 453 q 92 447 97 453 q 71 441 86 441 q 44 453 55 441 q 33 479 33 464 q 44 506 33 495 q 71 517 55 517 q 97 506 86 517 q 109 479 109 495 q 97 453 109 464 z "},"j":{"ha":194,"x_min":-258,"x_max":260,"o":"m 72 475 q 66 469 72 475 q 45 464 60 464 q 18 475 29 464 q 7 502 7 486 q 18 529 7 517 q 45 540 29 540 q 72 529 60 540 q 83 502 83 517 q 72 475 83 486 m 232 334 q 242 340 235 340 q 255 335 250 340 q 256 323 260 330 q 126 140 213 229 l 126 127 q 101 -91 126 14 q 37 -270 77 -195 q -56 -388 -3 -344 q -161 -433 -108 -433 q -234 -405 -210 -433 q -258 -331 -258 -377 q -250 -263 -258 -296 q -232 -203 -243 -230 q -201 -147 -222 -177 q -164 -96 -180 -117 q -118 -46 -148 -76 q -69 0 -88 -17 q -15 48 -50 17 q 38 96 20 79 q 18 418 44 258 q 40 448 12 448 q 83 425 66 448 q 109 359 100 401 q 121 276 117 317 q 125 182 125 235 q 232 334 195 258 m -160 -399 q -110 -370 -139 -399 q -51 -287 -81 -340 q 3 -143 -21 -234 q 36 54 28 -53 q 14 35 28 47 q -36 -11 -19 5 q -80 -54 -52 -26 q -123 -101 -109 -83 q -158 -148 -138 -119 q -186 -200 -177 -176 q -202 -254 -195 -224 q -210 -314 -210 -283 q -203 -354 -210 -336 q -189 -381 -197 -372 q -172 -394 -180 -390 q -160 -399 -165 -399 z "},"k":{"ha":483,"x_min":0,"x_max":549,"o":"m 519 334 q 536 342 522 344 q 547 328 549 340 q 451 68 504 147 q 345 -10 399 -10 q 275 13 305 -10 q 230 70 245 36 q 202 137 214 103 q 181 197 191 171 q 159 227 170 223 q 143 65 142 146 q 127 46 143 50 q 102 52 111 43 q 87 73 98 56 q 61 123 77 90 q 32 197 45 157 q 9 295 19 237 q 0 410 0 352 q 40 664 0 541 q 140 860 80 787 q 258 932 200 932 q 324 907 302 932 q 345 846 345 882 q 299 670 345 771 q 196 490 254 568 q 93 379 138 411 l 93 370 q 106 197 92 281 q 135 323 110 258 q 202 437 160 389 q 289 485 244 485 q 354 459 324 485 q 383 397 383 433 q 332 302 383 350 q 219 236 281 254 q 279 157 253 212 q 322 62 306 103 q 351 22 338 22 q 373 32 359 22 q 406 67 387 43 q 444 126 425 92 q 483 215 463 161 q 519 334 503 270 m 286 891 q 237 851 267 891 q 178 749 208 811 q 125 600 149 687 q 95 429 102 513 q 175 527 129 459 q 261 683 222 594 q 300 836 300 772 q 296 874 300 858 q 286 891 292 891 m 290 439 q 267 424 279 433 q 237 395 255 414 q 201 344 218 376 q 170 271 183 312 q 258 339 214 280 q 290 439 302 399 z "},"l":{"ha":240,"x_min":0,"x_max":304,"o":"m 279 327 q 293 339 282 342 q 303 324 304 336 q 297 283 302 313 q 279 202 292 254 q 249 105 267 150 q 203 27 232 60 q 142 -7 175 -7 q 94 14 118 -7 q 48 75 69 35 q 13 186 26 116 q 0 346 0 256 q 15 545 0 450 q 54 707 31 640 q 107 824 78 774 q 164 898 136 873 q 216 922 193 922 q 294 795 294 922 q 272 650 294 725 q 217 515 250 574 q 152 412 184 456 q 92 343 119 368 l 92 321 q 153 23 92 75 q 177 43 165 30 q 199 76 189 57 q 219 115 210 94 q 236 160 228 136 q 250 205 243 184 q 261 248 256 226 q 270 284 267 271 q 276 312 273 298 q 279 327 279 326 m 238 878 q 146 689 189 831 q 94 387 103 547 q 158 481 123 420 q 224 617 193 542 q 260 761 254 692 q 238 878 267 829 z "},"m":{"ha":648,"x_min":-1,"x_max":713,"o":"m 688 340 q 695 345 689 343 q 707 343 702 346 q 711 334 713 340 q 537 9 634 9 q 462 63 493 9 q 431 227 431 117 q 437 334 431 258 q 444 455 443 410 q 444 461 444 461 q 442 460 444 461 q 362 353 400 429 q 306 218 324 276 q 287 141 288 160 q 269 115 286 126 q 232 109 252 104 q 201 136 211 113 q 198 179 199 144 q 198 248 197 214 q 197 306 199 281 q 196 308 197 308 q 194 307 195 309 q 146 213 168 277 q 117 109 125 149 q 107 43 110 68 q 82 11 104 18 q 45 29 59 3 q 13 147 26 66 q 0 327 -1 228 q 22 491 1 425 q 50 505 26 503 q 95 497 74 507 q 113 470 116 488 q 101 339 106 422 q 98 212 95 255 q 207 389 159 389 q 236 385 223 389 q 257 372 249 380 q 271 355 265 363 q 279 333 276 347 q 283 312 282 319 q 286 291 285 304 q 287 275 287 277 q 309 333 296 302 q 345 411 321 364 q 397 487 368 457 q 456 517 427 517 q 500 506 482 517 q 527 474 518 494 q 540 430 536 453 q 543 378 543 408 q 539 277 543 373 q 538 119 535 180 q 557 46 542 58 q 688 340 633 117 z "},"n":{"ha":440,"x_min":-1,"x_max":505,"o":"m 480 340 q 488 346 481 345 q 500 344 495 348 q 503 331 505 340 q 329 -3 427 -3 q 251 53 279 -3 q 222 219 222 108 q 237 402 222 274 q 237 428 239 428 q 209 390 222 411 q 185 348 196 369 q 164 301 174 327 q 148 254 155 275 q 134 205 141 233 q 123 161 127 178 q 115 119 119 143 q 109 83 111 94 q 104 54 107 73 l 102 37 q 84 9 98 16 q 54 11 69 2 q 33 37 39 19 q 8 148 18 70 q 0 294 -1 220 q 9 486 -1 430 q 25 502 10 498 q 62 504 40 506 q 101 493 84 502 q 118 474 119 485 q 107 370 117 464 q 102 233 98 275 q 176 418 132 348 q 254 488 220 488 q 316 459 293 488 q 339 355 339 431 q 331 253 339 340 q 325 103 323 167 q 343 29 326 40 q 379 67 357 29 q 430 179 402 105 q 480 340 458 252 z "},"o":{"ha":323,"x_min":-40,"x_max":388,"o":"m 367 340 q 375 344 370 345 q 384 339 380 344 q 386 329 388 334 q 380 316 385 325 q 363 293 375 308 q 337 262 352 277 q 298 231 322 247 q 248 203 275 214 q 203 100 233 140 q 125 60 172 60 q 67 78 92 60 q 29 123 42 96 q 10 176 16 151 q 3 221 3 201 l 3 225 q -30 280 -20 249 q -40 334 -40 311 q 3 449 -40 406 q 102 492 47 492 q 216 438 173 492 q 259 307 259 385 q 253 232 259 269 q 327 285 298 254 q 367 340 357 317 m 140 96 q 200 188 181 121 q 124 179 159 179 q 102 180 115 179 q 112 134 105 154 q 126 105 119 114 q 140 96 134 96 m 206 214 q 213 290 213 250 q 202 368 213 334 q 175 421 191 403 q 143 449 159 440 q 115 458 127 458 q 58 428 88 458 q 22 357 28 397 q 73 393 40 393 q 113 383 101 393 q 125 363 125 374 q 118 341 125 361 q 106 290 112 321 q 100 223 100 258 l 100 210 q 136 205 116 205 q 206 214 173 205 z "},"p":{"ha":509,"x_min":-2,"x_max":574,"o":"m 552 339 q 561 344 555 344 q 571 339 567 344 q 571 329 574 334 q 486 235 534 267 q 376 188 438 203 q 293 60 347 113 q 184 7 239 7 q 133 25 151 7 q 115 66 115 43 q 159 149 115 115 q 276 197 203 183 q 300 309 296 255 q 288 401 304 362 q 207 351 250 401 q 135 219 165 300 q 103 60 106 139 q 121 -451 99 -196 q 110 -472 122 -464 q 82 -476 98 -480 q 62 -456 67 -473 q 36 -327 50 -415 q 10 -114 22 -239 q 0 172 -2 12 q 24 479 3 333 q 53 494 26 493 q 106 484 81 495 q 130 458 132 473 q 110 248 116 353 q 179 386 134 326 q 275 446 224 446 q 360 404 323 446 q 397 293 397 361 q 386 219 397 260 q 552 339 500 252 m 167 45 q 218 88 193 56 q 263 165 243 121 q 159 71 159 138 q 167 45 159 45 z "},"q":{"ha":411,"x_min":0,"x_max":475,"o":"m 473 318 q 387 177 437 245 q 294 69 337 110 q 326 65 309 71 q 362 42 343 60 q 397 -3 382 24 q 423 -80 413 -31 q 433 -190 433 -128 q 343 -389 433 -389 q 231 -261 274 -389 q 187 66 187 -132 q 191 189 187 126 q 148 81 161 102 q 100 52 130 52 q 30 101 59 52 q 0 207 0 150 q 47 376 0 309 q 168 443 95 443 q 222 429 199 443 q 231 457 225 446 q 257 470 236 468 q 297 464 279 472 q 313 440 315 456 q 277 98 283 238 q 309 126 292 110 q 339 160 325 143 q 368 197 353 177 q 394 234 382 216 q 416 268 405 251 q 433 297 427 286 q 446 318 440 309 q 451 328 451 327 q 460 332 454 332 q 471 327 467 332 q 473 318 475 323 m 211 376 l 211 378 q 191 397 199 397 q 163 381 180 397 q 130 337 146 364 q 101 266 113 309 q 90 176 90 222 q 95 120 90 149 q 109 90 101 90 q 130 119 119 98 q 152 173 141 140 q 171 236 163 207 q 192 309 180 265 q 211 376 204 353 m 401 -173 q 364 -12 401 -77 q 276 46 327 52 l 276 40 q 298 -229 276 -121 q 355 -359 320 -337 q 375 -339 365 -355 q 393 -279 385 -322 q 401 -173 401 -235 z "},"r":{"ha":374,"x_min":-46,"x_max":438,"o":"m 411 321 q 426 332 414 334 q 437 322 437 332 q 437 319 438 321 q 251 -37 355 -37 q 170 6 197 -37 q 142 144 142 49 q 149 236 142 177 q 161 310 156 296 q 145 297 157 309 q 114 276 132 285 q 71 267 96 267 q -12 308 23 267 q -46 419 -46 349 q -28 522 -46 471 q 21 604 -10 572 q 87 637 53 637 q 110 634 100 637 q 129 625 119 632 q 145 600 140 617 q 151 556 151 583 q 124 419 151 498 q 67 309 97 339 q 73 307 69 307 q 125 336 102 318 q 162 364 148 353 q 193 375 176 375 q 235 357 222 375 q 249 300 249 340 q 242 202 249 264 q 235 100 235 139 q 238 49 235 74 q 247 10 242 24 q 257 -4 252 -4 q 277 7 264 -4 q 309 45 290 19 q 345 108 327 72 q 381 200 363 144 q 411 321 399 256 m 108 583 q 66 474 81 551 q 56 345 51 397 q 104 471 85 388 q 108 583 124 555 z "},"s":{"ha":394,"x_min":0,"x_max":458,"o":"m 432 322 q 441 331 435 330 q 453 328 448 332 q 457 317 458 323 q 431 260 449 287 q 386 212 413 234 q 333 174 358 190 q 271 139 307 158 q 300 65 300 100 q 269 -24 300 18 q 199 -87 239 -66 q 126 -109 159 -109 q 51 -88 80 -109 q 22 -37 22 -68 q 32 9 22 -13 q 56 46 42 31 q 96 79 71 62 q 143 107 122 96 q 198 135 165 119 q 159 169 185 154 q 107 196 134 184 q 56 220 81 207 q 16 253 31 233 q 0 300 0 273 q 16 357 0 325 q 56 419 31 390 q 115 468 80 448 q 185 488 151 488 q 265 461 231 488 q 298 401 298 433 q 287 348 298 375 q 265 313 275 321 q 250 315 260 309 q 243 331 239 321 q 253 399 256 366 q 235 433 250 433 q 154 378 201 433 q 108 266 108 323 q 109 255 108 259 q 112 248 111 250 q 118 242 113 245 q 126 238 123 239 q 138 233 129 237 q 152 228 146 230 q 252 161 208 204 q 370 235 324 198 q 432 322 415 271 m 94 -70 q 171 -19 130 -70 q 212 87 212 32 q 210 108 212 94 q 104 40 140 72 q 68 -37 68 7 q 94 -70 68 -70 z "},"t":{"ha":245,"x_min":-130,"x_max":309,"o":"m 285 323 q 292 332 286 329 q 304 333 298 336 q 309 323 309 331 q 301 272 306 302 q 284 190 296 242 q 257 96 272 137 q 218 24 242 55 q 165 -7 193 -7 q 47 111 96 -7 q -1 434 -1 230 q 9 606 -1 503 q -106 599 -81 602 q -125 618 -119 597 q -115 643 -130 640 q 15 651 -83 650 q 53 857 33 797 q 82 873 58 872 q 125 864 105 875 q 142 838 145 852 q 113 651 122 735 q 231 649 224 650 q 249 639 243 648 q 251 620 255 629 q 231 612 246 611 q 108 608 216 612 q 100 296 90 426 q 131 95 110 166 q 172 23 152 23 q 230 115 195 23 q 285 323 265 206 z "},"u":{"ha":423,"x_min":-5,"x_max":488,"o":"m 460 326 q 469 334 462 332 q 482 331 476 336 q 486 317 488 327 q 414 59 454 136 q 338 -7 378 -7 q 266 30 296 -7 q 221 128 235 68 q 207 264 207 189 q 161 124 176 155 q 97 69 135 69 q 33 114 60 69 q 1 234 7 159 q 16 407 -5 309 q 41 421 19 420 q 81 411 62 422 q 97 386 100 401 q 88 232 85 338 q 106 110 91 126 q 210 391 148 151 q 224 469 215 457 q 249 481 232 479 q 283 478 266 483 q 312 464 300 473 q 324 446 325 455 q 322 435 324 444 q 317 411 319 427 q 311 372 314 395 q 306 311 308 349 q 304 227 304 273 q 313 120 304 169 q 332 47 321 71 q 348 24 342 24 q 404 120 370 24 q 460 326 438 216 z "},"v":{"ha":454,"x_min":0,"x_max":517,"o":"m 497 334 q 508 338 502 339 q 515 332 513 336 q 515 323 517 328 q 355 220 444 220 l 351 220 q 330 134 342 173 q 299 58 318 94 q 254 2 281 22 q 193 -18 227 -18 q 126 10 160 -18 q 63 88 92 38 q 18 215 35 138 q 0 380 0 292 q 19 470 0 451 q 57 481 35 481 q 99 471 79 481 q 118 449 119 460 q 113 298 109 366 q 129 178 117 231 q 155 90 140 125 q 184 36 170 54 q 208 17 198 17 q 261 77 231 17 q 309 229 292 138 q 225 297 260 247 q 191 428 191 347 q 194 474 191 450 q 205 526 197 498 q 231 571 214 553 q 273 588 249 588 q 328 558 305 588 q 360 490 351 529 q 370 407 370 450 q 355 247 368 326 q 359 247 357 247 q 361 246 361 246 q 398 253 380 246 q 432 272 416 259 q 458 294 448 284 q 482 318 469 303 q 497 334 495 332 m 315 264 q 325 393 325 323 q 317 471 325 434 q 299 529 309 509 q 281 549 289 549 q 270 532 277 549 q 258 484 264 515 q 252 421 252 453 q 270 325 252 365 q 315 264 288 284 z "},"w":{"ha":691,"x_min":0,"x_max":755,"o":"m 734 332 q 745 336 739 337 q 753 330 751 334 q 753 321 755 326 q 751 319 753 320 q 738 301 745 309 q 713 277 730 292 q 669 254 696 262 q 611 245 643 245 q 563 252 589 245 q 539 148 553 196 q 505 54 526 100 q 453 -20 484 7 q 386 -47 422 -47 q 284 15 331 -47 q 222 197 237 76 q 113 45 175 45 q 33 104 66 45 q 0 260 0 164 q 9 379 0 306 q 31 468 19 453 q 62 478 42 479 q 101 467 83 477 q 119 446 120 457 q 115 421 119 445 q 107 368 111 397 q 99 297 102 338 q 95 220 95 255 q 101 135 95 170 q 112 90 106 100 q 121 80 117 80 q 164 144 134 80 q 216 288 195 209 l 216 296 q 224 403 216 351 q 242 463 232 454 q 290 467 257 474 q 320 444 322 460 q 309 262 307 340 q 320 132 311 185 q 345 46 330 79 q 373 -1 359 14 q 395 -16 386 -16 q 427 4 408 -16 q 465 59 446 24 q 503 148 485 94 q 531 264 521 203 q 456 338 485 288 q 428 465 428 389 q 431 507 428 486 q 441 548 434 527 q 463 582 448 569 q 497 595 477 595 q 539 577 522 595 q 565 530 556 559 q 577 469 573 500 q 581 406 581 439 q 568 282 577 334 q 616 271 592 271 q 639 273 628 271 q 659 278 650 275 q 677 285 667 280 q 692 294 686 290 q 705 304 697 297 q 716 314 713 311 q 726 324 719 316 q 734 332 734 332 m 536 304 q 541 397 541 347 q 533 482 541 444 q 517 537 526 520 q 505 554 509 554 q 497 544 501 554 q 490 508 493 533 q 486 451 486 484 q 536 304 486 353 z "},"x":{"ha":380,"x_min":0,"x_max":445,"o":"m 420 335 q 428 340 421 339 q 440 338 435 342 q 442 327 445 334 q 368 135 384 171 q 267 8 320 31 q 229 0 250 0 q 91 109 150 0 q 39 -19 56 32 q 18 -30 35 -33 q 4 -12 1 -28 q 64 164 16 56 q 17 322 35 238 q 0 433 0 407 q 22 461 0 454 q 67 460 44 469 q 92 435 90 452 q 122 281 104 353 q 192 402 157 348 q 243 475 227 457 q 269 473 250 482 q 283 454 287 464 q 261 420 282 452 q 206 329 241 387 q 141 212 172 270 q 195 79 168 124 q 244 33 223 33 q 326 122 273 33 q 420 335 378 211 z "},"y":{"ha":462,"x_min":0,"x_max":530,"o":"m 503 336 q 518 342 507 347 q 524 323 530 336 q 474 262 508 291 q 387 199 441 233 q 357 -7 386 92 q 286 -174 329 -106 q 192 -282 243 -242 q 94 -323 141 -323 q 26 -296 52 -323 q 0 -209 0 -269 q 63 -22 0 -115 q 221 131 125 71 q 292 175 226 134 q 271 399 292 363 q 244 334 260 382 q 214 248 228 287 q 175 178 200 210 q 123 146 151 146 q 88 155 105 146 q 54 183 71 163 q 26 240 37 202 q 16 330 16 278 q 26 432 16 379 q 58 496 36 484 q 102 494 75 506 q 123 458 129 481 q 112 392 115 425 q 108 347 109 359 q 108 299 108 334 q 127 186 108 214 q 179 278 159 226 q 205 367 199 331 q 228 430 212 404 q 269 456 243 456 q 353 396 324 456 q 386 231 382 336 q 503 336 482 292 m 92 -288 q 153 -254 119 -288 q 216 -165 186 -220 q 268 -27 246 -109 q 292 140 290 54 q 219 91 250 113 q 153 36 188 69 q 96 -30 118 3 q 60 -106 75 -62 q 45 -199 45 -151 q 60 -258 45 -228 q 92 -288 74 -288 z "},"z":{"ha":379,"x_min":-99,"x_max":446,"o":"m 418 338 q 434 341 422 346 q 440 329 446 338 q 265 130 372 222 q 317 -38 317 68 q 283 -204 317 -125 q 186 -330 248 -282 q 50 -378 124 -378 q -24 -363 7 -378 q -71 -325 -56 -348 q -92 -280 -85 -301 q -99 -242 -99 -260 q -91 -181 -99 -210 q -64 -124 -83 -151 q -27 -74 -45 -96 q 24 -25 -9 -52 q 80 21 57 3 q 144 70 103 39 q 208 119 185 100 q 130 151 180 153 q 93 149 109 139 q 78 174 78 158 q 98 214 78 185 q 141 275 117 243 q 184 352 164 307 q 203 433 203 396 q 202 450 203 447 q 195 454 201 454 q 106 415 140 454 q 69 342 72 376 q 63 319 76 325 q 40 328 50 313 q 34 353 34 338 q 83 450 34 409 q 184 491 132 491 q 253 468 223 491 q 282 399 282 444 q 242 281 282 355 q 172 184 201 208 q 245 149 212 176 q 418 338 359 243 m -26 -311 q -15 -326 -26 -311 q 31 -340 -3 -340 q 100 -320 64 -340 q 167 -263 135 -300 q 219 -161 199 -225 q 239 -18 239 -97 q 222 94 239 57 q 154 41 198 75 q 87 -11 110 7 q 34 -58 65 -28 q -12 -110 3 -87 q -38 -165 -26 -133 q -49 -231 -49 -197 q -26 -311 -49 -283 z "},"{":{"ha":322,"x_min":69,"x_max":254,"o":"m 229 10 q 248 10 241 14 q 254 -1 254 6 q 240 -18 254 -9 q 205 -26 226 -26 q 173 -19 189 -26 q 141 6 158 -12 q 115 65 125 25 q 105 162 105 105 q 112 290 105 225 q 119 365 119 355 q 115 395 119 381 q 108 417 111 410 q 96 434 104 425 q 86 444 87 443 q 77 450 85 445 q 70 467 69 456 q 77 480 70 477 q 104 509 90 486 q 119 569 119 532 q 112 664 119 595 q 104 773 104 733 q 110 834 104 804 q 125 893 115 864 q 156 940 136 922 q 202 958 176 958 q 235 950 217 958 q 252 933 252 942 q 243 921 252 924 q 229 921 233 917 q 206 870 217 909 q 195 772 195 831 q 201 655 195 722 q 208 576 208 588 q 194 512 208 544 q 150 465 179 479 q 179 443 167 458 q 198 409 192 427 q 206 378 203 391 q 208 357 208 365 q 201 273 208 353 q 195 164 195 194 q 205 68 195 122 q 229 10 216 14 z "},"|":{"ha":262,"x_min":65,"x_max":193,"o":"m 193 909 q 185 789 193 878 q 169 606 176 699 q 164 356 161 513 q 185 35 167 199 q 174 9 186 20 q 146 1 161 -1 q 125 20 130 3 q 80 305 96 119 q 71 671 65 491 q 104 929 77 850 q 131 945 109 943 q 173 936 153 946 q 193 909 193 925 z "},"}":{"ha":323,"x_min":69,"x_max":254,"o":"m 245 484 q 253 471 253 481 q 245 455 254 461 q 214 419 222 438 q 204 370 204 398 q 211 295 204 360 q 218 167 218 230 q 208 70 218 110 q 182 11 198 30 q 150 -15 165 -7 q 119 -22 135 -22 q 83 -13 98 -22 q 69 3 69 -5 q 76 15 69 11 q 95 14 82 18 q 118 72 107 18 q 128 168 128 126 q 121 277 128 198 q 115 361 115 357 q 117 382 115 369 q 125 414 119 396 q 143 448 131 432 q 173 470 156 463 q 129 516 144 484 q 115 581 115 549 q 121 660 115 593 q 128 777 128 727 q 117 874 128 836 q 94 925 106 913 q 80 925 90 921 q 71 937 71 928 q 89 954 71 946 q 121 962 106 962 q 168 945 148 962 q 198 898 188 927 q 214 839 209 869 q 218 778 218 809 q 211 669 218 738 q 204 573 204 600 q 218 513 204 536 q 245 484 233 490 z "},"~":{"ha":446,"x_min":68,"x_max":382,"o":"m 374 727 q 366 711 382 718 q 343 710 352 706 q 248 807 302 728 l 233 791 q 201 753 220 774 q 174 724 183 732 q 117 715 159 708 q 71 738 77 720 q 72 751 68 744 q 106 797 74 754 q 174 884 139 839 q 211 932 209 929 q 263 942 227 951 q 300 917 298 932 q 311 854 304 882 q 331 796 319 818 q 374 727 347 760 z "},"":{"ha":328,"x_min":0,"x_max":0,"o":""},"":{"ha":247,"x_min":66,"x_max":178,"o":"m 127 861 q 100 872 111 861 q 90 899 90 883 q 113 932 90 923 q 153 924 136 942 q 161 884 170 907 q 127 861 151 861 m 161 791 q 177 357 177 622 q 158 15 178 92 q 134 2 155 5 q 93 6 113 -1 q 71 29 73 14 q 81 404 66 63 q 98 790 95 744 q 115 824 100 816 q 144 821 130 831 q 161 791 159 811 z "},"":{"ha":566,"x_min":69,"x_max":500,"o":"m 411 929 q 435 938 419 940 q 466 929 451 936 q 491 908 481 922 q 496 882 500 895 q 483 854 494 878 q 449 780 472 829 q 406 682 427 730 q 425 568 434 640 q 415 556 423 558 q 399 558 407 553 q 391 572 391 564 q 380 626 389 603 q 219 239 285 411 q 273 212 241 212 q 293 214 283 212 q 311 219 303 216 q 328 227 319 222 q 342 236 336 232 q 355 247 349 241 q 367 258 362 254 q 376 269 371 263 q 383 279 381 275 q 389 287 385 282 l 392 292 q 408 293 398 300 q 414 277 418 286 q 407 263 411 270 q 390 239 404 256 q 362 211 377 223 q 323 190 348 199 q 271 180 299 180 q 203 196 235 180 q 147 34 170 106 q 100 -28 130 -24 q 73 -9 82 -31 q 69 12 69 1 q 132 252 69 61 q 72 417 72 323 q 102 565 72 493 q 186 683 132 637 q 303 730 240 730 l 312 730 q 411 929 380 890 m 178 387 q 280 654 233 541 q 208 548 237 622 q 178 404 178 473 l 178 387 z "},"":{"ha":619,"x_min":67,"x_max":549,"o":"m 522 36 q 534 52 522 53 q 548 39 544 52 l 549 31 q 502 -13 549 3 q 390 -30 454 -30 q 289 -20 361 -30 q 192 -11 217 -11 q 132 -20 163 -11 q 118 -14 125 -22 q 111 1 111 -7 q 118 25 111 12 q 132 65 125 39 q 139 134 139 92 q 137 196 139 151 q 131 309 134 241 q 125 420 127 378 q 83 420 104 420 q 70 438 73 420 q 81 460 67 456 q 123 463 104 463 q 121 538 121 505 q 130 693 121 625 q 153 803 138 762 q 187 871 168 844 q 226 908 207 898 q 267 918 245 918 q 337 888 309 918 q 360 821 366 859 q 344 810 359 810 q 328 825 329 810 q 316 858 326 842 q 299 874 306 874 q 216 540 216 831 q 218 463 216 519 q 267 462 258 463 q 282 445 279 460 q 269 427 285 431 q 218 424 268 427 q 223 227 223 250 q 184 35 223 98 q 226 33 189 38 q 314 21 262 28 q 397 14 366 14 q 472 20 435 14 q 522 36 508 26 z "},"":{"ha":468,"x_min":65,"x_max":403,"o":"m 365 695 q 388 695 372 705 q 397 673 403 686 q 357 606 383 640 q 378 486 378 553 q 362 378 378 433 q 316 289 347 323 q 337 260 326 277 q 349 239 349 243 q 344 224 351 231 q 324 224 338 217 q 288 264 316 228 q 225 247 258 247 q 163 266 192 247 q 136 224 140 229 q 112 219 126 210 q 104 242 98 229 q 134 292 104 245 q 78 465 78 356 q 108 605 77 539 q 70 675 71 671 q 83 690 65 684 q 119 684 106 697 q 135 648 128 665 q 210 694 172 694 q 225 692 214 694 q 247 694 240 694 q 336 644 301 694 q 349 668 340 649 q 365 695 358 687 m 241 280 q 311 355 284 294 q 338 493 338 416 q 312 617 338 568 q 260 667 286 667 q 252 655 258 660 q 235 638 244 650 q 212 603 226 627 q 188 538 197 579 q 179 447 179 497 q 183 381 179 411 q 195 334 188 352 q 211 303 202 315 q 227 285 219 290 q 241 280 235 280 z "},"":{"ha":516,"x_min":68,"x_max":448,"o":"m 331 414 q 354 396 355 412 q 346 384 353 386 q 300 382 334 384 l 300 362 q 324 361 323 361 q 343 353 339 360 q 344 338 348 345 q 336 331 340 332 q 300 329 330 330 q 296 147 299 247 q 291 31 294 47 q 274 7 289 16 q 243 6 260 -1 q 222 35 227 12 q 218 143 220 46 q 216 328 216 241 l 180 328 q 169 344 170 328 q 178 361 169 359 q 216 363 197 363 l 216 378 q 175 380 198 378 q 164 397 165 382 q 173 412 163 411 q 180 413 175 413 q 187 414 184 414 q 141 499 161 445 q 109 616 121 553 q 89 730 96 678 q 76 833 81 783 q 70 891 71 884 q 95 908 68 903 q 150 904 121 912 q 179 876 178 896 q 206 657 189 764 q 240 491 224 551 q 267 431 257 431 q 283 447 273 431 q 310 503 294 464 q 343 596 326 542 q 380 734 361 650 q 416 916 400 818 q 426 928 418 924 q 441 928 434 932 q 448 916 448 924 q 399 634 436 787 q 314 414 362 481 q 325 414 319 414 q 331 414 330 414 z "},"":{"ha":582,"x_min":68,"x_max":512,"o":"m 512 384 q 480 288 512 340 q 512 184 512 243 q 496 122 512 153 q 452 62 481 90 q 375 17 423 35 q 269 0 327 0 q 195 5 228 0 q 131 23 161 11 q 84 61 100 36 q 70 121 68 85 q 77 130 71 126 q 89 131 83 134 q 97 116 96 128 q 132 65 100 87 q 245 43 164 43 q 290 47 267 43 q 337 63 313 52 q 381 92 362 75 q 413 138 400 109 q 425 204 425 168 q 406 273 425 243 q 356 322 387 302 q 288 359 326 342 q 214 394 251 376 q 146 431 177 411 q 97 482 116 451 q 77 553 77 513 q 83 598 77 576 q 95 633 89 620 q 113 665 102 646 q 77 754 77 705 q 131 886 77 832 q 276 940 184 940 q 326 936 300 940 q 381 923 352 932 q 431 897 410 913 q 465 857 452 880 q 474 801 477 835 q 449 725 471 766 q 426 716 441 709 q 415 737 412 723 q 420 789 420 764 q 340 884 420 884 q 274 868 304 884 q 226 830 243 853 q 198 784 208 808 q 189 739 189 760 q 207 680 189 706 q 253 636 224 654 q 316 603 281 618 q 385 568 350 587 q 448 526 419 549 q 494 467 476 503 q 512 384 512 431 m 416 345 q 426 410 426 363 q 416 455 426 433 q 393 491 406 476 q 354 522 380 505 q 310 548 328 539 q 258 574 293 557 q 209 599 224 591 q 191 532 191 562 q 204 480 191 503 q 243 440 218 457 q 295 409 269 422 q 357 378 321 396 q 416 345 393 360 z "},"":{"ha":700,"x_min":69,"x_max":631,"o":"m 361 809 q 502 758 439 809 q 598 628 565 707 q 631 459 631 548 q 607 306 631 377 q 544 188 583 235 q 452 112 504 140 q 345 85 400 85 q 199 136 263 85 q 102 268 135 187 q 69 440 69 348 q 81 544 69 492 q 116 644 92 596 q 174 728 140 692 q 257 787 208 765 q 361 809 305 809 m 355 115 q 440 135 401 115 q 507 191 479 156 q 555 270 535 225 q 584 365 574 315 q 593 465 593 414 q 572 594 593 533 q 518 696 551 655 q 445 760 486 736 q 365 784 404 784 q 280 757 323 784 q 204 685 238 730 q 150 576 171 640 q 129 444 129 512 q 156 290 129 364 q 236 165 182 216 q 355 115 289 115 m 461 359 q 470 361 463 361 q 484 357 478 361 q 485 343 489 353 q 472 320 480 332 q 451 292 464 308 q 418 266 437 276 q 378 255 399 255 q 269 301 316 255 q 222 416 222 347 q 264 573 222 509 q 377 637 307 637 q 437 618 416 637 q 458 573 458 600 q 451 553 458 559 q 436 547 444 546 q 424 554 427 548 q 401 593 402 593 q 361 538 376 576 q 343 472 347 501 q 340 412 340 442 q 354 328 340 369 q 384 288 368 288 q 395 291 389 288 q 407 298 401 294 q 419 309 413 303 q 432 322 426 315 q 443 335 437 328 q 452 346 448 341 q 458 355 455 351 l 461 359 z "},"":{"ha":0,"x_min":0,"x_max":0,"o":""},"":{"ha":700,"x_min":69,"x_max":631,"o":"m 361 809 q 502 758 439 809 q 598 628 565 707 q 631 459 631 548 q 607 306 631 377 q 544 188 583 235 q 452 112 504 140 q 345 85 400 85 q 199 136 263 85 q 102 268 135 187 q 69 440 69 348 q 81 544 69 492 q 116 644 92 596 q 174 728 140 692 q 257 787 208 765 q 361 809 305 809 m 355 115 q 440 135 401 115 q 507 191 479 156 q 555 270 535 225 q 584 365 574 315 q 593 465 593 414 q 572 594 593 533 q 518 696 551 655 q 445 760 486 736 q 365 784 404 784 q 280 757 323 784 q 204 685 238 730 q 150 576 171 640 q 129 444 129 512 q 156 290 129 364 q 236 165 182 216 q 355 115 289 115 m 468 344 q 485 346 475 351 q 490 328 496 340 q 463 295 481 307 q 421 283 444 283 q 375 297 399 283 q 345 319 350 312 q 341 276 338 287 q 330 258 342 271 q 302 246 318 246 q 249 303 262 246 q 236 484 236 360 q 243 601 236 587 q 281 616 251 616 q 323 608 300 616 q 345 588 347 600 q 342 544 344 578 q 339 504 340 509 q 350 526 340 505 q 366 557 360 548 q 383 581 372 566 q 408 604 395 597 q 437 610 422 610 q 496 589 476 610 q 515 541 515 568 q 477 440 515 490 q 366 374 438 391 q 421 312 391 312 q 468 344 440 312 m 441 570 q 396 507 420 551 q 363 414 373 463 q 398 437 382 420 q 426 474 415 454 q 443 514 437 494 q 449 550 449 534 q 441 570 448 565 z "},"":{"ha":494,"x_min":66,"x_max":430,"o":"m 392 583 q 421 570 413 581 q 420 547 430 558 q 387 536 411 536 q 280 532 366 534 q 271 389 276 409 q 248 360 264 366 q 215 364 231 353 q 193 397 199 375 q 182 530 183 433 q 85 528 108 528 q 70 551 73 528 q 83 576 66 574 q 182 579 95 577 q 191 710 184 686 q 217 724 195 723 q 261 714 240 724 q 282 688 282 703 q 281 581 282 677 q 392 583 375 584 m 366 334 q 382 320 378 332 q 382 299 387 309 q 366 290 378 289 q 241 291 347 291 q 96 288 135 292 q 83 298 87 288 q 81 320 78 309 q 92 334 83 332 q 231 336 114 336 q 366 334 347 336 z "},"":{"ha":304,"x_min":65,"x_max":237,"o":"m 141 934 q 177 945 153 945 q 218 936 200 945 q 235 912 237 926 q 198 830 233 892 q 147 746 163 767 q 115 735 134 734 q 81 747 96 736 q 71 770 65 758 q 87 813 72 773 q 118 890 102 853 q 141 934 133 926 z "},"":{"ha":669,"x_min":69,"x_max":602,"o":"m 585 941 q 598 929 595 939 q 598 910 602 920 q 589 902 595 901 q 545 905 575 903 q 537 784 545 875 q 523 600 529 692 q 519 353 516 508 q 541 35 523 197 q 530 9 543 20 q 501 1 517 -1 q 481 20 486 3 q 439 288 452 113 q 428 633 425 463 q 448 905 431 804 q 408 905 433 905 q 376 905 384 905 q 367 784 376 875 q 351 601 358 693 q 347 353 344 508 q 368 35 349 197 q 356 9 369 20 q 328 1 344 -1 q 308 20 313 3 q 264 293 279 115 q 253 640 249 470 q 197 646 227 638 q 137 670 166 654 q 89 716 108 686 q 69 782 69 745 q 84 844 69 817 q 121 888 100 871 q 176 918 142 905 q 237 936 210 930 q 300 945 264 942 q 354 949 337 949 q 393 949 370 949 q 585 941 543 949 z "},"":{"ha":558,"x_min":69,"x_max":488,"o":"m 325 861 q 299 872 310 861 q 288 899 288 883 q 299 925 288 914 q 325 935 309 935 q 351 924 340 935 q 362 899 362 913 q 351 872 362 883 q 325 861 340 861 m 461 295 q 469 295 464 296 q 478 292 473 294 q 485 282 482 290 q 488 261 488 274 q 449 149 488 211 q 343 42 410 87 q 212 -3 277 -3 q 169 5 191 -3 q 123 28 146 12 q 84 74 100 43 q 69 144 69 104 q 89 277 69 210 q 140 405 109 344 q 202 526 170 466 q 263 662 235 587 q 304 809 292 736 q 318 826 307 824 q 339 818 329 827 q 351 798 350 809 q 347 680 358 741 q 313 566 335 618 q 263 453 290 513 q 211 340 235 393 q 170 225 186 288 q 153 105 153 162 q 167 50 153 66 q 210 34 181 34 q 326 73 268 34 q 420 169 385 113 q 456 275 456 225 q 452 287 449 279 q 461 295 455 294 z "},"":{"ha":385,"x_min":66,"x_max":320,"o":"m 237 568 q 272 571 252 576 q 306 550 292 565 q 312 526 320 535 q 227 406 294 504 q 289 311 287 314 q 284 299 292 306 q 266 291 276 292 q 248 295 256 289 q 197 361 217 331 q 144 288 151 294 q 109 282 127 277 q 79 299 92 286 q 70 321 66 312 q 140 444 86 361 q 83 538 92 517 q 92 554 80 548 q 118 560 103 561 q 137 551 132 559 q 172 491 153 522 q 237 568 213 549 z "},"":{"ha":443,"x_min":68,"x_max":377,"o":"m 356 472 q 372 459 368 470 q 372 437 377 448 q 356 428 368 427 q 231 430 336 429 q 85 427 125 430 q 73 436 77 426 q 71 459 68 447 q 82 472 73 471 q 220 475 104 475 q 356 472 337 475 m 248 553 q 243 548 248 553 q 222 543 237 543 q 195 553 206 543 q 185 579 185 564 q 196 605 185 594 q 222 616 206 616 q 248 605 237 616 q 258 579 258 594 q 248 553 258 564 m 222 369 q 248 358 237 369 q 258 332 258 347 q 236 298 258 307 q 195 306 212 289 q 188 346 178 323 q 222 369 197 369 z "},"":{"ha":427,"x_min":0,"x_max":492,"o":"m 465 333 q 473 341 466 339 q 486 339 480 343 q 490 324 492 334 q 418 66 458 143 q 342 0 382 1 q 270 37 300 0 q 225 135 239 75 q 211 271 211 195 q 165 131 180 162 q 101 77 139 77 q 44 111 68 77 q 39 73 43 98 q 18 61 35 58 q 0 83 0 65 q 4 267 0 85 q 20 414 3 342 q 45 428 23 427 q 85 419 66 429 q 101 393 104 408 q 92 239 89 345 q 111 117 95 133 q 214 398 151 157 q 229 476 218 463 q 253 488 236 486 q 287 485 270 490 q 316 472 303 481 q 328 453 328 463 q 325 443 328 451 q 320 418 323 434 q 314 380 317 403 q 309 318 311 357 q 307 234 307 280 q 316 127 307 176 q 336 54 326 77 q 352 31 346 31 q 408 127 374 31 q 465 333 442 223 z "},"":{"ha":903,"x_min":69,"x_max":833,"o":"m 191 571 q 107 622 144 571 q 69 747 69 672 q 98 881 69 827 q 169 935 127 935 q 203 925 189 935 q 272 877 248 922 q 295 758 295 831 q 290 704 295 732 q 275 644 286 675 q 243 591 264 612 q 191 571 221 571 m 208 898 q 178 831 195 886 q 160 715 160 777 q 168 651 160 677 q 184 614 176 624 q 199 603 192 604 q 241 665 225 623 q 257 760 257 707 q 241 856 257 815 q 208 898 225 896 m 504 359 q 572 310 549 356 q 595 191 595 264 q 591 138 595 166 q 575 77 586 109 q 543 25 565 45 q 492 5 522 5 q 407 55 445 5 q 370 180 370 106 q 399 315 370 261 q 469 369 428 369 q 504 359 488 369 m 499 37 q 542 99 526 56 q 557 193 557 141 q 542 289 557 249 q 509 332 526 330 q 478 265 496 319 q 460 149 460 210 q 468 84 460 111 q 484 48 476 58 q 499 37 492 38 m 741 364 q 809 316 786 361 q 833 197 833 270 q 828 143 833 172 q 813 83 823 115 q 781 31 802 51 q 729 10 759 10 q 645 61 682 10 q 608 186 608 111 q 636 320 608 267 q 707 374 665 374 q 741 364 726 374 m 737 42 q 779 104 764 62 q 795 199 795 146 q 779 295 795 255 q 747 337 764 335 q 716 270 734 325 q 698 155 698 216 q 706 90 698 117 q 722 53 713 63 q 737 42 730 43 m 479 932 q 506 941 487 943 q 543 931 524 939 q 572 907 562 923 q 573 874 582 891 q 384 495 480 703 q 229 153 287 287 q 171 18 172 19 q 146 2 163 5 q 116 7 130 -1 q 104 32 102 16 q 196 315 116 110 q 362 705 277 520 q 479 932 447 889 z "},"":{"ha":532,"x_min":66,"x_max":465,"o":"m 439 66 q 455 67 446 73 q 461 55 465 62 q 451 37 458 48 q 429 9 444 26 q 393 -19 415 -7 q 345 -31 370 -31 q 183 81 249 -31 q 117 382 117 192 l 117 401 q 98 401 109 401 q 87 401 88 401 q 70 416 73 400 q 77 432 67 429 q 79 433 78 433 l 117 433 l 119 471 l 83 471 q 72 488 73 472 q 81 505 71 503 q 122 507 85 505 q 145 659 130 587 q 187 792 161 731 q 251 889 212 853 q 335 925 289 925 q 413 896 386 925 q 436 843 441 866 q 424 831 434 834 q 408 839 414 828 q 389 869 401 856 q 368 882 377 882 q 342 870 357 882 q 311 829 328 858 q 278 758 293 800 q 250 651 262 717 q 231 506 237 585 q 248 506 239 506 q 258 505 257 505 q 285 486 284 504 q 277 472 284 474 l 270 472 q 252 472 263 472 q 229 471 241 471 q 228 452 229 465 q 228 433 228 439 q 271 431 257 433 q 279 422 277 429 q 276 407 281 414 q 260 401 271 400 l 256 401 q 243 401 251 401 q 227 401 235 401 l 227 378 q 245 189 227 277 q 294 51 264 102 q 359 0 325 0 q 386 9 372 0 q 409 30 399 19 q 428 53 418 40 q 439 66 438 65 z "},"":{"ha":697,"x_min":68,"x_max":629,"o":"m 251 920 q 269 911 261 920 q 275 891 276 901 q 264 878 275 880 q 227 874 243 874 q 217 690 222 762 q 207 671 216 678 q 184 664 197 664 q 159 667 172 664 q 137 679 146 671 q 127 696 127 686 q 124 731 126 701 q 121 782 122 762 q 118 834 119 802 q 119 876 117 866 l 83 876 q 76 884 80 877 q 70 899 72 891 q 72 914 68 907 q 87 921 76 921 q 175 921 106 921 q 251 920 244 920 m 534 926 q 574 940 553 941 q 612 929 595 939 q 628 911 629 920 q 626 857 628 908 q 623 757 625 806 q 620 700 621 707 q 600 677 617 685 q 564 675 583 669 q 538 701 545 681 q 535 728 536 707 q 534 786 534 749 q 532 847 533 823 q 517 822 527 840 q 501 798 507 805 q 486 783 496 790 q 467 775 477 775 q 455 777 460 775 q 447 782 450 779 q 437 790 444 784 q 425 799 430 795 q 422 774 423 796 q 421 727 422 753 q 420 695 421 701 q 388 675 419 677 q 344 690 356 673 q 328 786 334 706 q 323 916 323 865 q 343 933 323 928 q 390 930 363 939 q 433 899 417 922 q 445 876 440 888 q 457 849 450 865 q 469 821 463 833 q 504 876 477 829 q 534 926 530 922 z "},"":{"ha":498,"x_min":-131,"x_max":562,"o":"m 538 323 q 545 332 538 329 q 556 333 551 336 q 561 323 562 331 q 554 272 558 301 q 537 190 549 242 q 510 96 525 137 q 471 24 495 55 q 418 -7 446 -7 q 313 82 359 -7 q 255 330 267 172 q 246 258 250 288 q 235 193 241 227 q 222 134 229 158 q 208 89 216 110 q 189 58 199 68 q 167 47 178 47 q 48 161 98 47 q -2 465 -2 275 q 7 609 -2 514 q -106 599 -98 600 q -125 618 -120 597 q -115 643 -131 640 q 12 654 -90 649 q 52 858 30 797 q 81 874 58 873 q 124 865 104 875 q 142 841 144 854 q 111 659 122 750 q 269 663 158 661 q 306 857 288 802 q 335 873 311 872 q 378 864 358 875 q 395 838 397 852 q 367 665 378 758 q 508 662 463 665 q 526 651 519 661 q 527 632 532 641 q 508 624 523 623 q 363 628 446 629 q 353 306 343 440 q 383 97 362 171 q 425 23 404 23 q 483 115 448 23 q 538 323 518 206 m 172 84 q 245 428 201 84 q 253 489 250 469 q 264 625 256 552 q 106 616 200 623 q 100 332 90 450 q 131 149 110 214 q 172 84 151 84 z "},"":{"ha":1512,"x_min":69,"x_max":1577,"o":"m 1549 317 q 1558 326 1550 323 q 1571 326 1565 329 q 1575 312 1577 322 q 1564 257 1571 287 q 1541 174 1557 227 q 1508 82 1526 121 q 1464 12 1491 42 q 1409 -18 1437 -18 q 1353 7 1377 -18 q 1316 73 1329 33 q 1296 152 1303 112 q 1290 229 1290 193 q 1290 245 1290 235 q 1291 261 1291 256 q 1248 150 1270 182 q 1194 118 1226 118 q 1148 131 1168 118 q 1120 166 1129 144 q 1106 208 1110 187 q 1102 250 1102 229 q 1127 362 1102 310 q 1045 351 1096 354 q 945 349 995 349 q 790 352 895 350 q 600 353 686 353 q 391 342 483 353 q 246 314 300 331 q 158 274 193 296 q 110 231 123 251 q 98 190 98 210 q 101 166 98 179 q 113 140 105 153 q 137 120 121 127 q 173 119 153 114 q 190 109 188 122 q 178 87 192 94 q 174 86 176 87 q 102 110 136 76 q 69 192 69 144 q 72 219 69 206 q 84 255 74 233 q 113 295 95 277 q 168 333 132 313 q 252 367 203 353 q 375 390 300 380 q 543 399 450 399 q 748 394 594 399 q 968 390 902 390 q 1115 395 1086 390 q 1158 408 1137 399 q 1241 448 1196 448 q 1305 427 1282 448 q 1319 465 1313 459 q 1351 475 1332 477 q 1386 464 1370 474 q 1401 444 1402 454 q 1383 193 1383 307 q 1390 93 1383 136 q 1406 33 1398 50 q 1420 16 1414 16 q 1486 115 1442 16 q 1549 317 1529 214 m 1206 174 q 1235 227 1221 191 q 1264 315 1249 263 q 1287 385 1280 366 q 1272 399 1278 399 q 1261 392 1269 399 q 1244 370 1254 385 q 1225 334 1234 355 q 1210 281 1216 313 q 1203 213 1203 249 q 1206 174 1203 174 z "},"":{"ha":1677,"x_min":69,"x_max":1743,"o":"m 1717 330 q 1729 332 1721 334 q 1740 325 1737 330 q 1738 313 1743 319 q 1552 228 1689 258 q 1510 122 1541 171 q 1438 41 1478 73 q 1351 -9 1397 9 q 1263 -27 1305 -27 q 1158 4 1193 -27 q 1123 71 1123 36 q 1198 171 1123 128 q 1159 373 1163 272 q 1103 356 1135 362 q 1019 350 1071 351 q 918 349 967 349 q 775 352 869 350 q 600 353 681 353 q 391 342 483 353 q 246 314 300 331 q 158 274 193 296 q 110 231 123 251 q 98 190 98 210 q 101 166 98 179 q 113 140 105 153 q 137 120 121 127 q 173 119 153 114 q 190 109 188 122 q 178 87 192 94 q 174 86 176 87 q 102 110 136 76 q 69 192 69 144 q 72 219 69 206 q 84 255 74 233 q 113 295 95 277 q 168 333 132 313 q 252 367 203 353 q 375 390 300 380 q 543 399 450 399 q 748 394 594 399 q 968 390 902 390 q 996 390 978 390 q 1101 393 1072 390 q 1158 408 1130 395 q 1182 602 1158 505 q 1243 768 1206 698 q 1327 883 1280 839 q 1417 926 1373 926 q 1482 901 1461 926 q 1503 840 1503 876 q 1476 714 1503 784 q 1410 584 1449 644 q 1328 476 1370 524 q 1252 406 1285 428 q 1251 365 1251 379 q 1259 224 1251 292 q 1279 309 1265 267 q 1313 389 1293 351 q 1364 451 1334 427 q 1428 475 1394 475 q 1520 420 1484 475 q 1557 285 1557 365 q 1556 262 1557 270 q 1717 330 1678 287 m 1444 886 q 1398 850 1426 886 q 1342 757 1370 814 q 1290 621 1314 701 q 1257 461 1266 541 q 1313 515 1279 475 q 1379 605 1346 554 q 1435 719 1412 656 q 1458 831 1458 781 q 1454 869 1458 852 q 1444 886 1449 886 m 1240 12 q 1295 23 1264 12 q 1358 57 1326 35 q 1418 119 1390 79 q 1459 210 1447 159 q 1413 203 1447 208 q 1291 175 1351 194 q 1291 90 1287 134 q 1298 71 1293 83 q 1297 47 1305 56 q 1278 40 1290 39 q 1260 45 1267 41 q 1212 134 1242 64 q 1177 63 1177 104 q 1193 28 1177 43 q 1240 12 1208 12 m 1467 247 q 1471 304 1471 275 q 1461 389 1471 342 q 1438 436 1452 436 q 1350 371 1390 436 q 1295 211 1310 305 q 1403 236 1354 228 q 1467 247 1414 238 z "},"":{"ha":1483,"x_min":69,"x_max":1548,"o":"m 1521 323 q 1530 329 1522 328 q 1542 327 1537 330 q 1546 317 1548 323 q 1506 208 1531 262 q 1449 104 1482 154 q 1374 23 1417 54 q 1286 -7 1331 -7 q 1191 30 1232 -7 q 1129 123 1149 66 q 1109 243 1109 180 q 1133 363 1109 306 q 1051 351 1101 355 q 950 349 1000 348 q 793 352 900 350 q 600 353 687 353 q 391 342 483 353 q 246 314 300 331 q 158 274 193 296 q 110 231 123 251 q 98 190 98 210 q 101 166 98 179 q 113 140 105 153 q 137 120 121 127 q 173 119 153 114 q 190 109 188 122 q 178 87 192 94 q 174 86 176 87 q 102 110 136 76 q 69 192 69 144 q 72 219 69 206 q 84 255 74 233 q 113 295 95 277 q 168 333 132 313 q 252 367 203 353 q 375 390 300 380 q 543 399 450 399 q 748 394 594 399 q 968 390 902 390 q 1114 395 1086 390 q 1157 408 1137 399 q 1263 468 1200 468 q 1316 457 1294 468 q 1348 428 1337 446 q 1362 395 1358 411 q 1367 364 1367 379 q 1360 352 1367 355 q 1345 352 1353 349 q 1337 359 1338 354 q 1319 404 1334 379 q 1291 429 1304 429 q 1242 363 1267 429 q 1217 216 1217 297 q 1225 121 1217 161 q 1245 61 1232 81 q 1271 32 1258 41 q 1297 23 1283 23 q 1382 73 1336 23 q 1463 189 1428 123 q 1521 323 1498 256 z "},"":{"ha":1551,"x_min":69,"x_max":1615,"o":"m 1590 322 q 1604 334 1593 337 q 1614 319 1615 331 q 1608 279 1613 308 q 1590 197 1603 250 q 1560 100 1577 145 q 1514 22 1543 56 q 1453 -12 1486 -12 q 1371 49 1410 -12 q 1318 225 1332 109 q 1194 62 1258 62 q 1165 69 1180 62 q 1132 91 1149 75 q 1103 139 1114 106 q 1091 219 1091 172 q 1121 360 1091 298 q 1039 350 1090 353 q 938 349 989 348 q 787 352 888 350 q 600 353 686 353 q 391 342 483 353 q 246 314 300 331 q 158 274 193 296 q 110 231 123 251 q 98 190 98 210 q 101 166 98 179 q 113 140 105 153 q 137 120 121 127 q 173 119 153 114 q 190 109 188 122 q 178 87 192 94 q 174 86 176 87 q 102 110 136 76 q 69 192 69 144 q 72 219 69 206 q 84 255 74 233 q 113 295 95 277 q 168 333 132 313 q 252 367 203 353 q 375 390 300 380 q 543 399 450 399 q 748 394 594 399 q 968 390 902 390 q 1000 390 979 390 q 1028 390 1020 390 q 1052 390 1036 390 q 1073 390 1067 390 q 1091 391 1080 391 q 1108 393 1102 392 q 1122 395 1114 394 q 1136 399 1130 397 q 1149 404 1142 401 q 1255 451 1191 453 q 1314 435 1290 451 q 1347 639 1322 544 q 1403 792 1371 734 q 1468 884 1435 851 q 1527 918 1501 918 q 1586 886 1567 918 q 1605 791 1605 855 q 1583 646 1605 721 q 1528 511 1561 570 q 1463 408 1495 452 q 1404 338 1431 363 q 1403 328 1404 335 q 1403 317 1403 320 q 1464 18 1403 71 q 1488 39 1476 25 q 1510 71 1500 52 q 1530 110 1520 90 q 1547 155 1539 131 q 1560 200 1554 179 q 1572 243 1567 221 q 1580 280 1577 266 q 1587 308 1584 294 q 1590 322 1590 321 m 1549 873 q 1457 684 1500 826 q 1405 382 1414 542 q 1469 476 1434 416 q 1535 612 1504 537 q 1571 756 1565 688 q 1549 873 1577 824 m 1204 102 q 1257 172 1233 120 q 1312 308 1282 223 q 1311 324 1312 313 q 1311 341 1311 335 q 1311 353 1311 345 q 1312 366 1312 361 q 1284 406 1297 406 q 1269 399 1279 406 q 1245 374 1258 392 q 1220 329 1232 355 q 1200 261 1208 303 q 1192 168 1192 218 q 1196 123 1192 144 q 1204 102 1200 102 z "},"":{"ha":1402,"x_min":69,"x_max":1466,"o":"m 1440 321 q 1445 328 1442 326 q 1452 330 1448 330 q 1459 328 1455 330 q 1464 323 1462 327 q 1466 317 1466 320 q 1455 286 1464 310 q 1427 222 1446 261 q 1385 148 1408 183 q 1330 88 1362 113 q 1265 62 1298 62 q 1159 117 1202 62 q 1116 264 1116 172 q 1134 363 1117 316 q 1052 351 1103 355 q 951 349 1002 348 q 794 351 901 349 q 600 353 688 353 q 391 342 483 353 q 246 314 300 331 q 158 274 193 296 q 110 231 123 251 q 98 190 98 210 q 101 166 98 179 q 113 140 105 153 q 137 120 121 127 q 173 119 153 114 q 190 109 188 122 q 178 87 192 94 q 174 86 176 87 q 102 110 136 76 q 69 192 69 144 q 72 219 69 206 q 84 255 74 233 q 113 295 95 277 q 168 333 132 313 q 252 367 203 353 q 375 390 300 380 q 543 399 450 399 q 748 394 594 399 q 968 390 902 390 q 990 390 976 390 q 1095 392 1065 390 q 1152 405 1125 395 q 1246 476 1190 476 q 1306 457 1283 476 q 1329 406 1329 438 q 1291 277 1329 325 q 1222 235 1253 230 q 1237 136 1222 177 q 1272 95 1252 95 q 1330 132 1294 95 q 1397 222 1366 169 q 1440 321 1429 276 m 1279 431 q 1223 258 1229 359 q 1256 282 1239 261 q 1283 330 1273 303 q 1294 385 1294 356 q 1279 431 1294 413 z "},"":{"ha":1376,"x_min":69,"x_max":1441,"o":"m 1417 317 q 1428 320 1422 321 q 1437 313 1434 319 q 1438 303 1441 307 q 1369 231 1410 267 q 1303 179 1329 196 q 1271 160 1277 162 q 1337 80 1313 144 q 1361 -73 1361 16 q 1359 -128 1361 -105 q 1351 -177 1357 -151 q 1329 -217 1344 -203 q 1292 -231 1314 -231 q 1234 -204 1260 -231 q 1193 -134 1208 -178 q 1165 -42 1177 -91 q 1148 58 1154 6 q 1141 144 1143 110 q 1139 203 1139 179 q 1147 368 1139 285 q 1065 352 1116 357 q 965 349 1015 348 q 803 351 915 349 q 600 353 690 353 q 391 342 483 353 q 246 314 300 331 q 158 274 193 296 q 110 231 123 251 q 98 190 98 210 q 101 166 98 179 q 113 140 105 153 q 137 120 121 127 q 173 119 153 114 q 190 109 188 122 q 178 87 192 94 q 174 86 176 87 q 102 110 136 76 q 69 192 69 144 q 72 219 69 206 q 84 255 74 233 q 113 295 95 277 q 168 333 132 313 q 252 367 203 353 q 375 390 300 380 q 543 399 450 399 q 748 394 594 399 q 968 390 902 390 q 1000 390 979 390 q 1028 390 1021 390 q 1052 390 1036 390 q 1074 390 1068 390 q 1092 391 1080 391 q 1108 393 1103 392 q 1123 396 1114 394 q 1137 399 1131 397 q 1150 404 1143 401 q 1196 653 1165 538 q 1269 840 1226 768 q 1354 912 1311 912 q 1412 888 1393 912 q 1430 802 1430 865 q 1376 576 1430 692 q 1241 408 1322 460 q 1230 187 1230 294 l 1230 176 q 1331 238 1272 192 q 1417 317 1390 284 m 1372 872 q 1341 825 1363 872 q 1290 674 1318 779 q 1245 445 1261 569 q 1318 538 1283 479 q 1373 659 1353 597 q 1396 780 1394 722 q 1372 872 1398 838 m 1299 -199 q 1326 -129 1319 -182 q 1326 -16 1333 -75 q 1294 90 1319 42 q 1230 140 1268 137 q 1253 -89 1234 -6 q 1299 -199 1273 -171 z "},"":{"ha":1543,"x_min":69,"x_max":1607,"o":"m 1592 335 q 1601 331 1596 336 q 1606 319 1606 325 q 1598 311 1607 313 q 1472 258 1537 298 q 1473 201 1473 240 q 1456 32 1473 114 q 1409 -113 1438 -50 q 1343 -223 1379 -176 q 1266 -296 1306 -271 q 1187 -321 1225 -321 q 1122 -296 1145 -321 q 1099 -213 1099 -272 q 1180 6 1099 -127 q 1383 232 1262 139 q 1365 385 1379 351 q 1318 301 1340 350 q 1284 220 1296 252 q 1252 165 1273 189 q 1200 142 1230 142 q 1139 173 1163 142 q 1114 277 1114 204 q 1131 363 1115 320 q 1049 351 1100 354 q 948 349 998 348 q 792 351 898 349 q 600 353 687 353 q 391 342 483 353 q 246 314 300 331 q 158 274 193 296 q 110 231 123 251 q 98 190 98 210 q 101 166 98 179 q 113 140 105 153 q 137 120 121 127 q 173 119 153 114 q 190 109 188 122 q 178 87 192 94 q 174 86 176 87 q 102 110 136 76 q 69 192 69 144 q 72 219 69 206 q 84 255 74 233 q 113 295 95 277 q 168 333 132 313 q 252 367 203 353 q 375 390 300 380 q 543 399 450 399 q 748 394 594 399 q 968 390 902 390 q 990 390 976 390 q 1095 392 1065 390 q 1152 405 1125 395 q 1252 463 1189 463 q 1331 433 1309 463 q 1364 444 1345 444 q 1469 288 1452 444 q 1592 335 1529 320 m 1205 191 q 1262 301 1232 222 q 1303 399 1292 380 q 1286 415 1291 415 q 1224 330 1245 393 q 1202 219 1202 266 q 1205 191 1202 189 m 1186 -286 q 1235 -262 1208 -286 q 1288 -196 1262 -239 q 1336 -97 1314 -153 q 1371 31 1358 -41 q 1385 176 1385 102 q 1384 184 1385 178 q 1384 193 1384 190 q 1214 -7 1283 105 q 1145 -204 1145 -120 q 1157 -260 1145 -234 q 1186 -286 1168 -286 z "},"":{"ha":1621,"x_min":69,"x_max":1685,"o":"m 1661 325 q 1670 334 1664 333 q 1681 331 1676 335 q 1684 321 1685 326 q 1651 204 1669 262 q 1608 86 1632 146 q 1555 -11 1584 26 q 1501 -48 1527 -48 q 1439 -5 1466 -48 q 1413 117 1413 38 q 1418 213 1413 147 q 1426 319 1424 279 q 1420 422 1428 360 q 1400 409 1414 422 q 1368 365 1386 395 q 1335 295 1350 335 q 1312 194 1320 256 q 1308 64 1303 133 q 1300 49 1310 54 q 1278 45 1290 44 q 1260 52 1265 47 q 1241 82 1254 58 q 1210 146 1227 106 q 1177 247 1192 186 q 1159 373 1162 309 q 1103 356 1135 362 q 1019 350 1071 351 q 918 349 967 349 q 775 352 869 350 q 600 353 681 353 q 391 342 483 353 q 246 314 300 331 q 158 274 193 296 q 110 231 123 251 q 98 190 98 210 q 101 166 98 179 q 113 140 105 153 q 137 120 121 127 q 173 119 153 114 q 190 109 188 122 q 178 87 192 94 q 174 86 176 87 q 102 110 136 76 q 69 192 69 144 q 72 219 69 206 q 84 255 74 233 q 113 295 95 277 q 168 333 132 313 q 252 367 203 353 q 375 390 300 380 q 543 399 450 399 q 748 394 594 399 q 968 390 902 390 q 996 390 978 390 q 1101 393 1072 390 q 1158 408 1131 395 l 1158 412 q 1198 665 1158 542 q 1298 860 1238 787 q 1417 933 1358 933 q 1482 908 1461 933 q 1503 847 1503 883 q 1477 713 1503 785 q 1412 581 1451 641 q 1330 475 1373 522 q 1252 408 1287 428 q 1251 364 1251 393 q 1268 182 1250 271 q 1283 276 1272 229 q 1313 366 1294 323 q 1360 434 1331 408 q 1423 460 1389 460 q 1470 448 1451 460 q 1496 412 1488 435 q 1506 369 1503 389 q 1508 322 1508 350 q 1499 227 1508 311 q 1492 76 1491 144 q 1512 -17 1493 7 q 1532 0 1521 -14 q 1554 33 1544 13 q 1576 77 1565 54 q 1597 129 1587 101 q 1616 182 1607 157 q 1633 234 1625 208 q 1647 277 1641 260 q 1656 309 1652 294 l 1661 325 m 1444 892 q 1371 824 1411 886 q 1299 662 1332 763 q 1255 453 1266 560 q 1315 515 1283 477 q 1381 605 1348 553 q 1436 718 1415 656 q 1458 838 1458 781 q 1456 865 1458 852 q 1451 886 1454 878 q 1444 892 1447 893 z "},"":{"ha":1345,"x_min":69,"x_max":1411,"o":"m 1388 326 q 1396 333 1390 331 q 1407 331 1402 334 q 1409 321 1411 328 q 1404 298 1409 320 q 1395 259 1399 275 q 1382 213 1391 242 q 1365 161 1373 183 q 1344 113 1357 139 q 1319 70 1332 87 q 1290 42 1307 54 q 1256 31 1274 31 q 1200 54 1225 31 q 1162 111 1176 76 q 1142 184 1149 146 q 1135 258 1135 222 q 1142 354 1135 321 q 1043 347 1106 347 q 847 350 981 347 q 600 353 713 353 q 391 342 483 353 q 246 314 300 331 q 158 274 193 296 q 110 231 123 251 q 98 190 98 210 q 101 166 98 179 q 113 140 105 153 q 137 120 121 127 q 173 119 153 114 q 190 109 188 122 q 178 87 192 94 q 174 86 176 87 q 102 110 136 76 q 69 192 69 144 q 72 219 69 206 q 84 255 74 233 q 113 295 95 277 q 168 333 132 313 q 252 367 203 353 q 375 390 300 380 q 543 399 450 399 q 787 392 602 399 q 996 385 971 385 q 1110 387 1083 385 q 1158 395 1137 388 q 1191 406 1173 407 q 1225 394 1209 405 q 1240 372 1240 384 q 1230 199 1230 260 q 1236 121 1230 155 q 1250 74 1242 87 q 1263 60 1257 60 q 1320 127 1287 60 q 1388 326 1352 194 m 1233 448 q 1227 442 1233 448 q 1206 437 1221 437 q 1179 448 1190 437 q 1168 475 1168 459 q 1179 502 1168 490 q 1206 513 1190 513 q 1233 502 1221 513 q 1244 475 1244 490 q 1233 448 1244 459 z "},"":{"ha":1343,"x_min":69,"x_max":1409,"o":"m 1221 470 q 1215 465 1221 470 q 1194 459 1210 459 q 1167 470 1179 459 q 1156 497 1156 481 q 1167 524 1156 513 q 1194 535 1179 535 q 1221 524 1210 535 q 1232 497 1232 513 q 1221 470 1232 481 m 1381 330 q 1392 336 1384 336 q 1404 331 1400 336 q 1406 318 1409 326 q 1275 136 1363 226 l 1275 122 q 1234 -158 1275 -28 q 1126 -362 1192 -288 q 988 -437 1060 -437 q 916 -409 940 -437 q 891 -336 891 -382 q 899 -268 891 -301 q 917 -208 906 -235 q 948 -152 927 -182 q 985 -101 968 -121 q 1031 -51 1002 -81 q 1080 -5 1061 -22 q 1134 43 1099 12 q 1187 91 1169 75 q 1172 379 1192 234 q 1117 359 1147 366 q 1033 350 1086 352 q 931 349 980 349 q 783 352 882 350 q 600 353 684 353 q 391 342 483 353 q 246 314 300 331 q 158 274 193 296 q 110 231 123 251 q 98 190 98 210 q 101 166 98 179 q 113 140 105 153 q 137 120 121 127 q 173 119 153 114 q 190 109 188 122 q 178 87 192 94 q 174 86 176 87 q 102 110 136 76 q 69 192 69 144 q 72 219 69 206 q 84 255 74 233 q 113 295 95 277 q 168 333 132 313 q 252 367 203 353 q 375 390 300 380 q 543 399 450 399 q 748 394 594 399 q 968 390 902 390 q 1066 391 1042 390 q 1116 396 1089 391 q 1167 412 1143 401 l 1166 413 q 1166 414 1166 414 q 1189 444 1162 444 q 1225 427 1210 444 q 1250 385 1240 410 q 1264 323 1259 360 q 1272 252 1270 286 q 1275 177 1274 218 q 1381 330 1345 254 m 989 -404 q 1039 -374 1010 -404 q 1098 -292 1068 -345 q 1152 -148 1128 -239 q 1185 50 1177 -58 q 1164 31 1178 43 q 1114 -15 1131 1 q 1069 -58 1097 -30 q 1026 -105 1041 -87 q 992 -152 1011 -124 q 963 -204 972 -180 q 947 -258 954 -228 q 940 -319 940 -288 q 950 -369 940 -348 q 971 -396 961 -389 q 989 -404 981 -404 z "},"":{"ha":1651,"x_min":69,"x_max":1717,"o":"m 1687 330 q 1704 337 1690 339 q 1714 323 1717 336 q 1619 64 1672 142 q 1513 -15 1567 -15 q 1443 8 1473 -15 q 1397 65 1413 31 q 1370 132 1381 98 q 1349 192 1359 166 q 1326 222 1338 218 q 1311 60 1310 141 q 1295 42 1311 45 q 1270 47 1278 38 q 1250 78 1263 54 q 1218 143 1236 102 q 1185 248 1200 184 q 1168 378 1171 311 q 1113 358 1144 365 q 1029 350 1082 352 q 928 349 977 349 q 781 352 879 350 q 600 353 683 353 q 391 342 483 353 q 246 314 300 331 q 158 274 193 296 q 110 231 123 251 q 98 190 98 210 q 101 166 98 179 q 113 140 105 153 q 137 120 121 127 q 173 119 153 114 q 190 109 188 122 q 178 87 192 94 q 174 86 176 87 q 102 110 136 76 q 69 192 69 144 q 72 219 69 206 q 84 255 74 233 q 113 295 95 277 q 168 333 132 313 q 252 367 203 353 q 375 390 300 380 q 543 399 450 399 q 748 394 594 399 q 968 390 902 390 q 1113 394 1086 390 q 1168 412 1141 399 q 1193 605 1168 509 q 1254 771 1217 701 q 1337 884 1291 841 q 1426 928 1383 928 q 1492 903 1470 928 q 1513 842 1513 878 q 1487 716 1513 785 q 1421 588 1460 647 q 1339 482 1382 529 q 1262 414 1296 435 q 1261 366 1261 398 q 1274 193 1259 276 q 1303 318 1278 253 q 1370 432 1328 384 q 1457 480 1412 480 q 1521 454 1492 480 q 1551 392 1551 429 q 1500 297 1551 345 q 1387 231 1449 250 q 1447 153 1421 207 q 1490 58 1474 98 q 1518 17 1506 17 q 1541 27 1527 17 q 1574 62 1555 38 q 1612 121 1593 87 q 1651 211 1630 156 q 1687 330 1671 265 m 1454 887 q 1407 850 1436 887 q 1351 755 1379 813 q 1298 614 1322 696 q 1265 452 1274 532 q 1323 510 1291 472 q 1389 600 1356 549 q 1445 713 1423 650 q 1468 831 1468 776 q 1463 870 1468 853 q 1454 887 1459 887 m 1458 435 q 1435 420 1447 429 q 1404 391 1423 410 q 1369 340 1386 372 q 1338 267 1351 308 q 1426 335 1381 276 q 1458 435 1470 395 z "},"":{"ha":1397,"x_min":69,"x_max":1461,"o":"m 1436 322 q 1450 334 1439 337 q 1460 319 1461 331 q 1454 279 1459 308 q 1436 197 1449 250 q 1406 100 1423 145 q 1360 22 1389 56 q 1299 -12 1332 -12 q 1251 9 1275 -12 q 1205 71 1226 30 q 1170 181 1183 111 q 1157 341 1157 252 l 1157 372 q 1100 356 1132 361 q 1017 350 1069 351 q 917 349 965 349 q 774 352 868 350 q 600 353 680 353 q 391 342 483 353 q 246 314 300 331 q 158 274 193 296 q 110 231 123 251 q 98 190 98 210 q 101 166 98 179 q 113 140 105 153 q 137 120 121 127 q 173 119 153 114 q 190 109 188 122 q 178 87 192 94 q 174 86 176 87 q 102 110 136 76 q 69 192 69 144 q 72 219 69 206 q 84 255 74 233 q 113 295 95 277 q 168 333 132 313 q 252 367 203 353 q 375 390 300 380 q 543 399 450 399 q 748 394 594 399 q 968 390 902 390 q 1115 395 1086 390 q 1158 408 1137 399 q 1180 585 1163 501 q 1220 728 1197 669 q 1271 831 1244 787 q 1325 896 1299 875 q 1373 918 1351 918 q 1451 791 1451 918 q 1436 684 1451 737 q 1401 590 1422 631 q 1352 513 1379 549 q 1300 453 1324 477 q 1253 416 1275 430 q 1249 317 1249 366 q 1310 18 1249 70 q 1331 36 1320 24 q 1351 63 1342 48 q 1369 98 1360 79 q 1385 137 1378 117 q 1399 178 1392 156 q 1411 218 1407 199 q 1421 255 1416 236 q 1428 287 1426 275 q 1433 310 1431 298 q 1436 322 1436 321 m 1395 873 q 1312 713 1352 831 q 1257 454 1272 595 q 1349 565 1303 488 q 1414 726 1394 642 q 1395 873 1433 810 z "},"":{"ha":1803,"x_min":69,"x_max":1868,"o":"m 1843 336 q 1850 340 1843 338 q 1862 338 1856 341 q 1866 329 1868 336 q 1691 5 1788 5 q 1616 58 1647 5 q 1586 222 1586 112 q 1591 329 1586 254 q 1598 450 1597 405 q 1598 456 1598 456 q 1596 456 1598 456 q 1516 348 1554 425 q 1460 213 1478 271 q 1441 136 1442 155 q 1423 111 1440 121 q 1386 105 1407 100 q 1356 132 1365 109 q 1352 174 1353 140 q 1352 243 1352 209 q 1352 301 1353 277 q 1349 302 1352 307 q 1301 209 1322 272 q 1272 104 1280 145 q 1261 39 1264 63 q 1236 6 1259 14 q 1200 24 1213 -1 q 1164 171 1178 67 q 1156 372 1149 275 q 1075 354 1126 359 q 975 349 1023 349 q 809 351 926 349 q 600 353 692 353 q 391 342 483 353 q 246 314 300 331 q 158 274 193 296 q 110 231 123 251 q 98 190 98 210 q 101 166 98 179 q 113 140 105 153 q 137 120 121 127 q 173 119 153 114 q 190 109 188 122 q 178 87 192 94 q 174 86 176 87 q 102 110 136 76 q 69 192 69 144 q 72 219 69 206 q 84 255 74 233 q 113 295 95 277 q 168 333 132 313 q 252 367 203 353 q 375 390 300 380 q 543 399 450 399 q 748 394 594 399 q 968 390 902 390 q 987 390 975 390 q 1100 393 1069 390 q 1160 409 1131 395 q 1177 486 1166 454 q 1204 500 1181 498 q 1249 493 1228 503 q 1267 465 1270 483 q 1255 334 1260 418 q 1252 208 1249 251 q 1361 385 1314 385 q 1390 381 1377 385 q 1411 368 1403 376 q 1425 350 1419 359 q 1433 328 1430 342 q 1438 307 1436 315 q 1440 286 1439 300 q 1441 271 1441 273 q 1463 328 1450 297 q 1499 406 1476 359 q 1552 482 1522 452 q 1611 512 1581 512 q 1654 501 1636 512 q 1682 469 1672 490 q 1694 426 1691 448 q 1697 374 1697 403 q 1693 272 1697 368 q 1693 115 1689 176 q 1711 41 1696 54 q 1843 336 1787 113 z "},"":{"ha":1598,"x_min":69,"x_max":1663,"o":"m 1638 336 q 1646 342 1639 340 q 1658 340 1653 344 q 1661 327 1663 336 q 1487 -7 1584 -7 q 1409 48 1438 -7 q 1380 214 1380 104 q 1395 398 1380 269 q 1396 424 1398 424 q 1261 42 1301 316 q 1259 32 1260 35 q 1242 4 1256 11 q 1213 6 1227 -3 q 1192 32 1198 14 q 1166 144 1176 65 q 1158 289 1158 216 q 1159 373 1158 347 q 1103 356 1135 362 q 1019 350 1071 351 q 918 349 967 349 q 775 352 869 350 q 600 353 681 353 q 391 342 483 353 q 246 314 300 331 q 158 274 193 296 q 110 231 123 251 q 98 190 98 210 q 101 166 98 179 q 113 140 105 153 q 137 120 121 127 q 173 119 153 114 q 190 109 188 122 q 178 87 192 94 q 174 86 176 87 q 102 110 136 76 q 69 192 69 144 q 72 219 69 206 q 84 255 74 233 q 113 295 95 277 q 168 333 132 313 q 252 367 203 353 q 375 390 300 380 q 543 399 450 399 q 748 394 594 399 q 968 390 902 390 q 995 390 977 390 q 1102 393 1072 390 q 1161 409 1133 395 q 1168 481 1162 439 q 1183 497 1168 493 q 1219 500 1198 502 q 1259 489 1242 498 q 1276 470 1276 481 q 1265 365 1275 460 q 1259 228 1255 271 q 1334 414 1290 343 q 1412 484 1377 484 q 1474 455 1451 484 q 1497 351 1497 427 q 1490 249 1497 336 q 1483 99 1482 163 q 1501 24 1484 35 q 1537 62 1514 24 q 1588 174 1560 100 q 1638 336 1616 248 z "},"":{"ha":1507,"x_min":69,"x_max":1571,"o":"m 1550 335 q 1558 339 1553 340 q 1567 335 1563 339 q 1569 325 1571 330 q 1563 312 1568 321 q 1547 288 1558 304 q 1521 257 1536 273 q 1482 226 1506 242 q 1432 198 1459 210 q 1387 96 1417 136 q 1308 56 1356 56 q 1260 68 1282 56 q 1226 98 1239 80 q 1203 139 1213 117 q 1191 181 1194 162 q 1187 216 1187 201 l 1187 220 q 1154 275 1164 244 q 1144 330 1144 306 q 1148 368 1144 349 q 1066 353 1118 357 q 966 349 1015 349 q 803 351 916 349 q 600 353 690 353 q 391 342 483 353 q 246 314 300 331 q 158 274 193 296 q 110 231 123 251 q 98 190 98 210 q 101 166 98 179 q 113 140 105 153 q 137 120 121 127 q 173 119 153 114 q 190 109 188 122 q 178 87 192 94 q 174 86 176 87 q 102 110 136 76 q 69 192 69 144 q 72 219 69 206 q 84 255 74 233 q 113 295 95 277 q 168 333 132 313 q 252 367 203 353 q 375 390 300 380 q 543 399 450 399 q 748 394 594 399 q 968 390 902 390 q 987 390 975 390 q 1102 393 1070 390 q 1163 410 1133 396 q 1216 467 1183 447 q 1286 488 1249 488 q 1399 434 1356 488 q 1442 302 1442 380 q 1437 228 1442 260 q 1511 281 1482 250 q 1550 335 1540 312 m 1323 92 q 1383 183 1364 116 q 1308 175 1345 175 q 1286 176 1293 175 q 1296 129 1289 149 q 1310 100 1303 109 q 1323 92 1317 92 m 1390 210 q 1396 285 1396 246 q 1363 411 1396 368 q 1299 454 1330 454 q 1242 423 1272 454 q 1206 352 1212 393 q 1257 388 1223 388 q 1297 378 1284 388 q 1308 358 1309 369 q 1302 337 1308 356 q 1289 286 1295 317 q 1283 219 1283 254 l 1283 205 q 1320 201 1297 201 q 1390 210 1356 201 z "},"":{"ha":1654,"x_min":69,"x_max":1720,"o":"m 1697 335 q 1707 339 1701 339 q 1716 334 1712 339 q 1716 324 1720 330 q 1631 230 1680 262 q 1520 183 1583 198 q 1438 55 1492 109 q 1329 2 1384 2 q 1277 20 1295 2 q 1259 61 1259 39 q 1304 144 1259 111 q 1421 193 1348 178 q 1445 304 1441 250 q 1433 397 1449 357 q 1352 346 1394 397 q 1280 215 1310 296 q 1248 56 1251 135 q 1267 -455 1244 -193 q 1255 -476 1267 -468 q 1227 -481 1242 -485 q 1207 -461 1212 -477 q 1155 -122 1177 -365 q 1156 372 1133 120 q 1075 354 1126 359 q 975 349 1023 349 q 809 351 926 349 q 600 353 692 353 q 391 342 483 353 q 246 314 300 331 q 158 274 193 296 q 110 231 123 251 q 98 190 98 210 q 101 166 98 179 q 113 140 105 153 q 137 120 121 127 q 173 119 153 114 q 190 109 188 122 q 178 87 192 94 q 174 86 176 87 q 102 110 136 76 q 69 192 69 144 q 72 219 69 206 q 84 255 74 233 q 113 295 95 277 q 168 333 132 313 q 252 367 203 353 q 375 390 300 380 q 543 399 450 399 q 748 394 594 399 q 968 390 902 390 q 987 390 975 390 q 1100 393 1069 390 q 1160 409 1131 395 q 1163 436 1160 411 q 1168 475 1166 462 q 1198 489 1171 488 q 1252 479 1225 490 q 1276 453 1278 469 q 1255 243 1261 349 q 1324 381 1279 321 q 1421 441 1369 441 q 1505 399 1468 441 q 1542 288 1542 356 q 1531 214 1542 254 q 1697 335 1645 248 m 1312 40 q 1364 83 1339 51 q 1409 161 1389 116 q 1305 66 1305 133 q 1312 40 1305 40 z "},"":{"ha":1483,"x_min":69,"x_max":1548,"o":"m 1546 313 q 1459 173 1510 240 q 1367 65 1409 106 q 1398 61 1381 66 q 1435 38 1415 56 q 1470 -8 1454 20 q 1495 -84 1485 -36 q 1506 -195 1506 -133 q 1415 -394 1506 -394 q 1303 -266 1346 -394 q 1259 61 1259 -137 q 1263 185 1259 122 q 1220 77 1233 98 q 1173 48 1202 48 q 1102 97 1131 48 q 1072 202 1072 145 q 1112 358 1072 292 q 1012 349 1071 350 q 824 351 954 348 q 600 353 695 353 q 391 342 483 353 q 246 314 300 331 q 158 274 193 296 q 110 231 123 251 q 98 190 98 210 q 101 166 98 179 q 113 140 105 153 q 137 120 121 127 q 173 119 153 114 q 190 109 188 122 q 178 87 192 94 q 174 86 176 87 q 102 110 136 76 q 69 192 69 144 q 72 219 69 206 q 84 255 74 233 q 113 295 95 277 q 168 333 132 313 q 252 367 203 353 q 375 390 300 380 q 543 399 450 399 q 748 394 594 399 q 968 390 902 390 q 1114 395 1086 390 q 1149 404 1133 397 q 1240 439 1188 439 q 1294 425 1270 439 q 1303 453 1298 442 q 1330 466 1308 464 q 1369 459 1351 468 q 1385 435 1387 451 q 1350 94 1355 233 q 1381 122 1364 106 q 1412 156 1398 139 q 1440 193 1426 173 q 1466 229 1455 212 q 1488 263 1478 246 q 1506 292 1499 281 q 1518 313 1512 304 q 1523 323 1523 322 q 1533 327 1527 327 q 1543 322 1539 327 q 1546 313 1548 318 m 1283 372 l 1283 374 q 1263 393 1271 393 q 1235 376 1252 393 q 1202 332 1218 359 q 1174 261 1185 304 q 1162 172 1162 218 q 1167 115 1162 144 q 1181 86 1173 86 q 1202 115 1192 94 q 1224 169 1213 136 q 1243 232 1235 203 q 1264 305 1252 261 q 1283 372 1276 349 m 1474 -178 q 1437 -17 1474 -81 q 1349 41 1400 47 q 1349 39 1349 41 q 1348 35 1348 37 q 1370 -234 1348 -126 q 1427 -363 1392 -341 q 1447 -342 1437 -359 q 1465 -283 1457 -326 q 1474 -178 1474 -240 z "},"":{"ha":1580,"x_min":69,"x_max":1645,"o":"m 1617 317 q 1633 328 1619 330 q 1644 317 1645 327 l 1644 315 q 1457 -41 1561 -41 q 1376 1 1402 -41 q 1349 139 1349 44 q 1356 232 1349 172 q 1367 305 1362 291 q 1351 292 1364 304 q 1320 271 1338 280 q 1277 262 1301 262 q 1218 281 1245 262 q 1175 335 1191 300 q 1077 322 1142 322 q 943 330 1011 323 q 775 346 875 338 q 600 353 676 353 q 391 342 483 353 q 246 314 300 331 q 158 274 193 296 q 110 231 123 251 q 98 190 98 210 q 101 166 98 179 q 113 140 105 153 q 137 120 121 127 q 173 119 153 114 q 190 109 188 122 q 178 87 192 94 q 174 86 176 87 q 102 110 136 76 q 69 192 69 144 q 72 219 69 206 q 84 255 74 233 q 113 295 95 277 q 168 333 132 313 q 252 367 203 353 q 375 390 300 380 q 543 399 450 399 q 837 378 671 399 q 1041 358 1004 358 q 1164 371 1128 358 q 1160 414 1160 392 q 1178 517 1160 467 q 1228 600 1196 567 q 1294 632 1259 632 q 1316 630 1307 632 q 1336 620 1325 627 q 1352 595 1346 612 q 1358 551 1358 578 q 1327 448 1358 500 q 1261 362 1297 396 q 1279 303 1262 303 q 1331 331 1308 314 q 1368 359 1354 349 q 1398 370 1382 370 q 1441 353 1428 370 q 1455 295 1455 335 q 1448 197 1455 260 q 1441 96 1441 135 q 1445 45 1441 70 q 1453 5 1449 20 q 1463 -9 1458 -9 q 1483 3 1470 -9 q 1514 41 1496 14 q 1551 104 1533 68 q 1587 196 1569 140 q 1617 317 1605 252 m 1314 578 q 1282 510 1295 555 q 1263 415 1269 465 q 1311 507 1295 460 q 1314 578 1328 554 z "},"":{"ha":1537,"x_min":69,"x_max":1602,"o":"m 1575 318 q 1585 327 1578 326 q 1597 323 1592 328 q 1600 313 1602 319 q 1538 216 1586 256 q 1415 135 1491 176 q 1443 61 1443 96 q 1413 -28 1443 14 q 1342 -92 1382 -70 q 1270 -113 1303 -113 q 1194 -93 1223 -113 q 1165 -41 1165 -73 q 1175 4 1165 -18 q 1200 41 1185 26 q 1240 74 1214 57 q 1287 103 1265 92 q 1341 130 1308 114 q 1303 165 1329 149 q 1251 192 1277 180 q 1200 216 1225 203 q 1159 249 1175 229 q 1143 296 1143 269 q 1149 328 1143 311 q 1048 322 1119 319 q 916 332 977 326 q 763 346 855 339 q 600 353 671 353 q 391 342 483 353 q 246 314 300 331 q 158 274 193 296 q 110 231 123 251 q 98 190 98 210 q 101 166 98 179 q 113 140 105 153 q 137 120 121 127 q 173 119 153 114 q 190 109 188 122 q 178 87 192 94 q 174 86 176 87 q 102 110 136 76 q 69 192 69 144 q 72 219 69 206 q 84 255 74 233 q 113 295 95 277 q 168 333 132 313 q 252 367 203 353 q 375 390 300 380 q 543 399 450 399 q 837 378 671 399 q 1041 358 1004 358 q 1169 373 1131 358 q 1240 452 1196 419 q 1329 484 1283 484 q 1409 456 1375 484 q 1442 397 1442 429 q 1430 343 1442 370 q 1409 309 1418 316 q 1393 311 1404 304 q 1386 327 1383 317 q 1397 395 1399 361 q 1379 429 1394 429 q 1328 405 1358 429 q 1275 340 1298 380 q 1251 262 1251 300 q 1252 252 1251 256 q 1255 245 1253 248 q 1258 240 1257 241 q 1264 236 1259 238 q 1272 232 1270 233 q 1283 228 1275 231 q 1295 223 1291 225 q 1396 157 1352 199 q 1473 200 1442 180 q 1534 251 1504 220 q 1575 318 1564 283 m 1238 -75 q 1315 -24 1274 -75 q 1356 82 1356 27 q 1354 103 1356 93 q 1298 72 1320 85 q 1255 41 1277 59 q 1222 3 1233 23 q 1212 -41 1212 -18 q 1238 -75 1212 -75 z "},"":{"ha":1422,"x_min":69,"x_max":1487,"o":"m 1463 319 q 1470 328 1463 325 q 1481 329 1476 332 q 1486 318 1487 326 q 1479 267 1483 296 q 1462 185 1474 237 q 1435 92 1450 133 q 1396 20 1420 51 q 1343 -12 1371 -12 q 1237 81 1283 -12 q 1179 337 1191 174 q 1082 322 1147 323 q 948 330 1017 322 q 778 345 879 337 q 600 353 677 353 q 391 342 483 353 q 246 314 300 331 q 158 274 193 296 q 110 231 123 251 q 98 190 98 210 q 101 166 98 179 q 113 140 105 153 q 137 120 121 127 q 173 119 153 114 q 190 109 188 122 q 178 87 192 94 q 174 86 176 87 q 102 110 136 76 q 69 192 69 144 q 72 219 69 206 q 84 255 74 233 q 113 295 95 277 q 168 333 132 313 q 252 367 203 353 q 375 390 300 380 q 543 399 450 399 q 837 378 671 399 q 1041 358 1004 358 q 1177 376 1137 358 q 1177 429 1177 393 q 1187 601 1177 498 q 1072 594 1096 597 q 1053 614 1058 593 q 1063 639 1048 635 q 1192 646 1092 645 q 1231 852 1210 789 q 1260 869 1236 867 q 1303 860 1283 871 q 1320 834 1322 848 q 1290 647 1299 731 q 1409 645 1402 646 q 1427 634 1421 644 q 1429 615 1433 625 q 1409 607 1424 606 q 1285 604 1372 607 q 1278 292 1267 422 q 1309 90 1288 161 q 1350 18 1330 18 q 1408 110 1373 18 q 1463 319 1443 201 z "},"":{"ha":1592,"x_min":69,"x_max":1656,"o":"m 1628 321 q 1637 329 1630 327 q 1650 327 1644 332 q 1654 313 1656 323 q 1581 55 1622 132 q 1506 -12 1546 -12 q 1433 26 1463 -12 q 1389 123 1403 63 q 1375 259 1375 184 q 1329 119 1344 151 q 1265 65 1303 65 q 1186 142 1215 65 q 1172 334 1158 220 q 1099 323 1144 325 q 995 326 1053 321 q 877 337 937 331 q 740 348 817 342 q 600 353 663 353 q 391 342 483 353 q 246 314 300 331 q 158 274 193 296 q 110 231 123 251 q 98 190 98 210 q 101 166 98 179 q 113 140 105 153 q 137 120 121 127 q 173 119 153 114 q 190 109 188 122 q 178 87 192 94 q 174 86 176 87 q 102 110 136 76 q 69 192 69 144 q 72 219 69 206 q 84 255 74 233 q 113 295 95 277 q 168 333 132 313 q 252 367 203 353 q 375 390 300 380 q 543 399 450 399 q 837 378 671 399 q 1041 358 1004 358 q 1179 377 1138 358 q 1184 403 1180 385 q 1208 416 1187 416 q 1249 407 1230 417 q 1265 381 1268 396 q 1256 227 1253 333 q 1274 105 1259 121 q 1377 386 1314 145 q 1392 465 1382 451 q 1417 476 1400 475 q 1450 473 1434 478 q 1479 459 1467 469 q 1491 441 1492 450 q 1489 430 1491 439 q 1484 406 1487 422 q 1478 368 1481 391 q 1473 307 1475 345 q 1471 222 1471 269 q 1480 115 1471 165 q 1499 43 1489 66 q 1516 20 1510 20 q 1572 115 1537 20 q 1628 321 1606 211 z "},"":{"ha":1637,"x_min":69,"x_max":1701,"o":"m 1681 330 q 1691 334 1685 335 q 1699 328 1697 332 q 1699 319 1701 323 q 1538 215 1627 215 l 1534 215 q 1513 129 1525 168 q 1482 54 1501 90 q 1437 -3 1464 18 q 1377 -23 1410 -23 q 1250 78 1309 -23 q 1184 339 1191 179 q 1087 322 1153 323 q 953 329 1022 321 q 781 345 884 337 q 600 353 678 353 q 391 342 483 353 q 246 314 300 331 q 158 274 193 296 q 110 231 123 251 q 98 190 98 210 q 101 166 98 179 q 113 140 105 153 q 137 120 121 127 q 173 119 153 114 q 190 109 188 122 q 178 87 192 94 q 174 86 176 87 q 102 110 136 76 q 69 192 69 144 q 72 219 69 206 q 84 255 74 233 q 113 295 95 277 q 168 333 132 313 q 252 367 203 353 q 375 390 300 380 q 543 399 450 399 q 837 378 671 399 q 1041 358 1004 358 q 1128 362 1099 358 q 1183 379 1158 367 q 1202 465 1183 446 q 1240 476 1218 477 q 1282 466 1263 476 q 1301 444 1302 456 q 1296 294 1292 361 q 1311 173 1300 226 q 1338 85 1322 121 q 1367 31 1353 50 q 1390 12 1381 12 q 1444 73 1413 12 q 1492 224 1474 134 q 1408 293 1443 243 q 1373 424 1373 342 q 1377 470 1373 446 q 1389 522 1381 494 q 1415 567 1397 549 q 1457 584 1432 584 q 1511 554 1489 584 q 1544 486 1534 525 q 1553 403 1553 446 q 1539 242 1551 321 l 1545 242 q 1581 249 1563 242 q 1615 268 1599 255 q 1642 290 1631 280 q 1665 314 1652 299 q 1681 330 1678 328 m 1498 259 q 1508 389 1508 319 q 1500 467 1508 429 q 1482 524 1492 504 q 1463 544 1472 544 q 1453 527 1459 544 q 1441 479 1447 511 q 1435 416 1435 448 q 1453 320 1435 360 q 1498 259 1470 279 z "},"":{"ha":1855,"x_min":69,"x_max":1919,"o":"m 1898 328 q 1909 331 1903 332 q 1917 326 1914 330 q 1917 317 1919 321 q 1775 240 1864 240 q 1727 247 1752 240 q 1703 143 1717 191 q 1669 49 1689 96 q 1617 -24 1648 3 q 1550 -52 1586 -52 q 1448 10 1495 -52 q 1386 192 1401 71 q 1277 41 1340 41 q 1197 100 1230 41 q 1164 256 1164 160 q 1168 333 1164 281 q 1095 323 1140 324 q 991 326 1049 321 q 874 337 934 331 q 738 348 814 343 q 600 353 663 353 q 391 342 483 353 q 246 314 300 331 q 158 274 193 296 q 110 231 123 251 q 98 190 98 210 q 101 166 98 179 q 113 140 105 153 q 137 120 121 127 q 173 119 153 114 q 190 109 188 122 q 178 87 192 94 q 174 86 176 87 q 102 110 136 76 q 69 192 69 144 q 72 219 69 206 q 84 255 74 233 q 113 295 95 277 q 168 333 132 313 q 252 367 203 353 q 375 390 300 380 q 543 399 450 399 q 837 378 671 399 q 1041 358 1004 358 q 1173 375 1133 358 q 1194 463 1183 449 q 1226 473 1206 474 q 1265 463 1246 473 q 1284 441 1284 452 q 1280 416 1284 440 q 1271 363 1276 393 q 1262 292 1266 334 q 1259 216 1259 250 q 1265 130 1259 165 q 1276 85 1271 96 q 1285 75 1282 75 q 1328 140 1299 75 q 1380 283 1358 204 l 1380 292 q 1388 398 1380 346 q 1407 458 1396 450 q 1454 463 1421 469 q 1485 439 1487 456 q 1473 258 1472 335 q 1484 127 1475 180 q 1508 42 1493 75 q 1536 -6 1523 9 q 1559 -20 1550 -20 q 1591 0 1572 -20 q 1629 54 1609 20 q 1667 143 1649 89 q 1695 259 1685 198 q 1620 334 1649 283 q 1592 460 1592 385 q 1595 502 1592 481 q 1605 543 1598 522 q 1626 577 1612 564 q 1661 590 1640 590 q 1703 572 1685 590 q 1728 525 1720 555 q 1741 465 1737 495 q 1744 401 1744 434 q 1732 277 1741 330 q 1780 267 1754 267 q 1803 269 1792 267 q 1823 273 1814 271 q 1841 281 1831 275 q 1855 289 1850 286 q 1869 299 1860 292 q 1880 309 1878 307 q 1890 319 1882 311 l 1898 328 m 1700 300 q 1706 393 1706 349 q 1698 478 1706 439 q 1682 533 1690 516 q 1669 549 1674 549 q 1662 539 1666 549 q 1654 504 1657 528 q 1651 446 1651 479 q 1700 300 1651 348 z "},"":{"ha":1547,"x_min":69,"x_max":1611,"o":"m 1587 330 q 1595 336 1588 334 q 1607 333 1602 337 q 1609 322 1611 330 q 1534 130 1550 166 q 1434 3 1487 26 q 1396 -5 1416 -5 q 1257 104 1317 -5 q 1206 -24 1226 36 q 1185 -35 1202 -37 q 1171 -16 1168 -32 q 1232 159 1183 51 q 1180 337 1196 250 q 1082 322 1147 323 q 948 330 1017 322 q 779 345 880 337 q 600 353 677 353 q 391 342 483 353 q 246 314 300 331 q 158 274 193 296 q 110 231 123 251 q 98 190 98 210 q 101 166 98 179 q 113 140 105 153 q 137 120 121 127 q 173 119 153 114 q 190 109 188 122 q 178 87 192 94 q 174 86 176 87 q 102 110 136 76 q 69 192 69 144 q 72 219 69 206 q 84 255 74 233 q 113 295 95 277 q 168 333 132 313 q 252 367 203 353 q 375 390 300 380 q 543 399 450 399 q 837 378 671 399 q 1041 358 1004 358 q 1173 375 1133 358 q 1166 428 1168 399 q 1188 456 1166 449 q 1233 455 1211 464 q 1259 430 1256 447 q 1289 276 1271 348 q 1358 398 1324 343 q 1409 470 1393 452 q 1435 469 1417 477 q 1449 450 1453 460 q 1428 416 1449 448 q 1373 324 1407 383 q 1308 207 1338 265 q 1362 74 1334 120 q 1411 28 1390 28 q 1493 117 1440 28 q 1587 330 1546 206 z "},"":{"ha":1622,"x_min":69,"x_max":1690,"o":"m 1662 332 q 1678 337 1667 342 q 1683 318 1689 331 q 1634 257 1668 286 q 1546 194 1600 229 q 1517 -12 1546 87 q 1446 -179 1489 -111 q 1352 -287 1403 -247 q 1253 -328 1301 -328 q 1185 -300 1211 -328 q 1160 -213 1160 -273 q 1222 -27 1160 -119 q 1381 126 1285 66 q 1421 151 1395 135 q 1453 170 1447 167 q 1430 395 1453 357 q 1404 330 1420 377 q 1374 243 1388 282 q 1335 173 1360 205 q 1282 141 1310 141 q 1248 150 1265 141 q 1214 178 1231 159 q 1186 236 1196 197 q 1175 326 1175 274 l 1175 335 q 1077 322 1142 322 q 943 330 1011 323 q 775 346 875 338 q 600 353 676 353 q 391 342 483 353 q 246 314 300 331 q 158 274 193 296 q 110 231 123 251 q 98 190 98 210 q 101 166 98 179 q 113 140 105 153 q 137 120 121 127 q 173 119 153 114 q 190 109 188 122 q 178 87 192 94 q 174 86 176 87 q 102 110 136 76 q 69 192 69 144 q 72 219 69 206 q 84 255 74 233 q 113 295 95 277 q 168 333 132 313 q 252 367 203 353 q 375 390 300 380 q 543 399 450 399 q 837 378 671 399 q 1041 358 1004 358 q 1178 377 1137 358 q 1218 492 1187 475 q 1261 490 1234 502 q 1283 454 1289 477 q 1278 433 1280 444 q 1275 414 1276 422 q 1272 396 1274 406 q 1270 380 1271 386 q 1269 364 1270 374 q 1268 350 1268 353 q 1267 335 1267 346 q 1267 321 1267 323 q 1267 307 1267 319 q 1267 294 1267 295 q 1286 182 1267 210 q 1338 274 1318 221 q 1365 362 1358 326 q 1387 425 1372 399 q 1429 451 1402 451 q 1513 392 1484 451 q 1546 227 1542 332 q 1662 332 1642 288 m 1206 -203 q 1220 -262 1206 -233 q 1252 -292 1234 -292 q 1312 -259 1279 -292 q 1376 -170 1345 -225 q 1428 -32 1406 -114 q 1452 136 1449 50 q 1378 87 1409 110 q 1313 32 1348 64 q 1257 -34 1278 -1 q 1220 -111 1235 -67 q 1206 -203 1206 -155 z "},"":{"ha":1526,"x_min":69,"x_max":1592,"o":"m 1566 334 q 1582 337 1571 342 q 1588 324 1592 332 q 1413 125 1520 217 q 1466 -43 1466 64 q 1431 -209 1466 -130 q 1334 -335 1396 -287 q 1198 -383 1272 -383 q 1136 -373 1164 -383 q 1093 -347 1109 -362 q 1067 -311 1077 -331 q 1053 -276 1057 -292 q 1049 -246 1049 -260 q 1057 -185 1049 -214 q 1084 -128 1065 -155 q 1121 -78 1103 -100 q 1172 -29 1140 -56 q 1228 17 1204 -1 q 1292 65 1251 35 q 1356 114 1333 96 q 1278 146 1329 149 q 1241 144 1257 134 q 1226 170 1226 153 q 1246 210 1226 180 q 1289 271 1265 239 q 1331 348 1312 303 q 1351 429 1351 392 q 1350 446 1351 443 q 1343 449 1349 449 q 1297 436 1320 449 q 1252 405 1274 423 q 1205 369 1230 387 q 1142 338 1179 351 q 1063 325 1105 325 q 854 339 1010 325 q 600 353 698 353 q 391 342 483 353 q 246 314 300 331 q 158 274 193 296 q 110 231 123 251 q 98 190 98 210 q 101 166 98 179 q 113 140 105 153 q 137 120 121 127 q 173 119 153 114 q 190 109 188 122 q 178 87 192 94 q 174 86 176 87 q 102 110 136 76 q 69 192 69 144 q 72 219 69 206 q 84 255 74 233 q 113 295 95 277 q 168 333 132 313 q 252 367 203 353 q 375 390 300 380 q 543 399 450 399 q 744 387 640 399 q 927 362 847 374 q 1047 351 1007 351 q 1132 365 1095 351 q 1192 398 1168 378 q 1235 438 1215 418 q 1279 472 1255 458 q 1332 486 1303 486 q 1401 463 1371 486 q 1430 395 1430 439 q 1390 277 1430 351 q 1320 180 1349 203 q 1394 144 1362 170 q 1566 334 1507 239 m 1122 -315 q 1133 -329 1122 -315 q 1179 -344 1145 -344 q 1248 -324 1213 -344 q 1315 -267 1283 -304 q 1366 -165 1346 -229 q 1386 -22 1386 -101 q 1371 90 1386 54 q 1302 36 1345 69 q 1235 -15 1258 3 q 1182 -62 1213 -33 q 1136 -114 1152 -91 q 1110 -169 1121 -138 q 1099 -235 1099 -201 q 1122 -315 1099 -286 z "},"":{"ha":1594,"x_min":0,"x_max":1525,"o":"m 1420 479 q 1491 455 1458 489 q 1525 374 1525 421 q 1522 346 1525 359 q 1509 311 1520 333 q 1480 271 1499 289 q 1426 233 1462 253 q 1342 199 1390 213 q 1219 176 1294 185 q 1050 167 1143 167 q 846 171 1000 167 q 626 176 692 176 q 541 159 581 176 q 472 116 500 142 q 420 65 444 91 q 372 16 396 39 q 329 -15 349 -7 q 307 -19 321 -19 q 251 7 275 -19 q 214 72 227 33 q 195 152 201 111 q 189 228 189 192 l 189 260 q 146 149 168 181 q 92 117 124 117 q 46 131 66 117 q 18 165 27 144 q 4 207 8 186 q 0 249 0 228 q 41 388 0 330 q 139 446 82 446 q 203 426 180 446 q 218 465 211 458 q 249 475 231 476 q 284 463 268 473 q 299 443 300 453 q 281 193 281 305 q 288 92 281 135 q 304 32 296 49 q 319 15 313 15 q 353 37 332 15 q 396 87 374 58 q 452 147 417 115 q 524 194 488 178 q 648 221 578 216 q 831 218 718 225 q 994 212 945 212 q 1202 223 1111 212 q 1348 251 1294 234 q 1436 291 1401 269 q 1483 334 1471 314 q 1496 375 1496 355 q 1492 399 1496 386 q 1480 425 1489 412 q 1457 445 1472 438 q 1421 446 1441 451 q 1404 456 1406 443 q 1416 477 1402 471 q 1420 479 1418 478 m 104 174 q 133 226 119 190 q 162 314 147 262 q 185 384 178 365 q 171 398 176 398 q 160 391 168 398 q 142 369 153 385 q 123 333 132 354 q 107 280 114 313 q 101 212 101 248 q 104 174 101 174 z "},"":{"ha":1552,"x_min":-21,"x_max":1483,"o":"m 1379 479 q 1450 455 1417 489 q 1483 374 1483 421 q 1481 346 1483 359 q 1468 311 1478 333 q 1439 271 1457 289 q 1385 233 1421 253 q 1301 199 1350 213 q 1178 176 1253 185 q 1010 167 1103 167 q 785 174 898 167 q 553 192 671 180 q 403 205 435 203 q 290 37 375 102 q 119 -28 205 -28 q 14 4 49 -28 q -21 70 -21 35 q 54 170 -21 127 q 14 404 14 281 q 54 657 14 534 q 154 853 94 780 q 273 926 214 926 q 338 901 317 926 q 359 840 359 876 q 332 709 359 783 q 265 569 304 634 q 183 449 226 503 q 107 372 140 395 q 107 368 107 371 q 106 363 106 365 q 115 222 106 290 q 135 308 121 265 q 169 388 149 351 q 220 450 190 426 q 285 473 251 473 q 377 419 340 473 q 413 284 413 364 q 410 242 413 261 q 543 232 447 240 q 742 217 638 223 q 953 212 845 212 q 1161 223 1069 212 q 1306 251 1253 234 q 1395 291 1360 269 q 1443 334 1430 314 q 1455 375 1455 355 q 1452 399 1455 386 q 1440 425 1448 412 q 1416 445 1432 438 q 1380 446 1400 451 q 1363 456 1365 443 q 1375 477 1360 471 q 1379 479 1377 478 m 300 885 q 251 845 280 885 q 192 743 221 805 q 139 593 163 680 q 109 422 116 506 q 190 520 143 452 q 275 676 236 587 q 314 829 314 766 q 310 868 314 851 q 300 885 305 885 m 96 11 q 151 22 121 11 q 213 55 181 33 q 273 117 245 77 q 315 208 301 157 q 294 207 300 208 q 283 204 292 206 q 270 202 275 203 q 147 174 207 193 q 147 89 144 137 q 154 71 151 77 q 153 47 161 56 q 134 39 146 38 q 116 45 123 40 q 68 132 97 64 q 33 62 33 102 q 49 27 33 43 q 96 11 65 11 m 322 243 q 327 302 327 271 q 317 388 327 341 q 294 435 308 435 q 206 370 245 435 q 151 210 166 304 q 260 235 203 225 q 322 243 290 241 z "},"":{"ha":1541,"x_min":0,"x_max":1471,"o":"m 1367 479 q 1438 455 1404 489 q 1471 374 1471 421 q 1469 346 1471 359 q 1456 311 1466 333 q 1427 271 1445 289 q 1373 233 1409 253 q 1289 199 1337 213 q 1166 176 1241 185 q 998 167 1090 167 q 792 171 947 167 q 572 176 638 176 q 478 162 522 176 q 403 128 433 149 q 342 83 373 107 q 288 39 312 60 q 235 5 264 18 q 177 -9 206 -9 q 82 28 123 -9 q 20 122 41 65 q 0 242 0 178 q 44 400 0 333 q 155 467 87 467 q 207 456 185 467 q 239 427 229 445 q 254 394 250 410 q 258 363 258 378 q 244 350 258 350 q 229 359 230 349 q 210 403 225 378 q 182 428 195 428 q 133 362 157 428 q 109 216 109 296 q 116 120 109 160 q 136 60 123 80 q 162 31 149 40 q 189 22 174 22 q 242 41 212 22 q 300 85 272 60 q 373 142 328 110 q 464 193 418 174 q 580 217 509 213 q 777 217 652 222 q 941 212 902 212 q 1149 223 1057 212 q 1294 251 1240 234 q 1383 291 1348 269 q 1431 334 1418 314 q 1443 375 1443 355 q 1439 399 1443 386 q 1428 425 1436 412 q 1404 445 1419 438 q 1368 446 1388 451 q 1351 456 1353 443 q 1362 477 1348 471 q 1367 479 1364 478 z "},"":{"ha":1647,"x_min":0,"x_max":1577,"o":"m 1473 479 q 1544 455 1511 489 q 1577 374 1577 421 q 1575 346 1577 359 q 1562 311 1573 333 q 1533 271 1552 289 q 1479 233 1515 253 q 1396 199 1444 213 q 1272 176 1348 185 q 1104 167 1197 167 q 899 171 1053 167 q 679 176 745 176 q 599 165 635 176 q 540 138 563 155 q 498 102 517 122 q 465 62 479 82 q 436 25 450 41 q 404 -2 422 9 q 363 -12 385 -12 q 280 48 319 -12 q 227 224 241 109 q 103 61 166 61 q 81 64 93 61 q 54 78 69 68 q 28 105 39 89 q 8 151 16 122 q 0 218 0 180 q 3 262 0 239 q 12 312 5 285 q 32 363 19 339 q 61 407 44 387 q 104 438 78 427 q 163 450 131 450 q 223 434 199 450 q 255 638 231 543 q 312 792 280 733 q 377 884 344 850 q 436 917 410 917 q 495 885 476 917 q 513 790 513 854 q 492 644 513 720 q 437 510 470 569 q 372 407 404 450 q 313 338 340 363 q 312 326 313 334 q 312 315 312 319 q 373 18 312 70 q 408 48 388 25 q 446 94 428 71 q 492 143 463 117 q 554 182 522 168 q 628 203 587 195 q 722 212 669 210 q 819 214 776 214 q 933 213 862 214 q 1047 212 1005 212 q 1255 223 1164 212 q 1401 251 1347 234 q 1490 291 1455 269 q 1537 334 1525 314 q 1550 375 1550 355 q 1546 399 1550 386 q 1534 425 1542 412 q 1510 445 1526 438 q 1474 446 1495 451 q 1457 456 1459 443 q 1469 477 1455 471 q 1473 479 1471 478 m 458 872 q 366 683 409 825 q 314 381 323 541 q 378 475 343 414 q 444 611 413 536 q 480 755 474 687 q 458 872 486 823 m 113 102 q 166 171 142 119 q 220 307 191 222 q 220 323 220 313 q 220 340 220 334 q 220 353 220 345 q 220 365 220 361 q 193 406 205 406 q 177 398 188 406 q 154 373 167 391 q 129 329 140 355 q 109 260 117 302 q 100 167 100 218 q 104 122 100 143 q 113 102 109 102 z "},"":{"ha":1436,"x_min":0,"x_max":1366,"o":"m 1261 479 q 1333 455 1299 489 q 1366 374 1366 421 q 1363 346 1366 359 q 1351 311 1361 333 q 1322 271 1340 289 q 1268 233 1303 253 q 1184 199 1232 213 q 1061 176 1136 185 q 892 167 985 167 q 685 173 842 167 q 463 180 528 180 q 370 168 412 180 q 300 140 328 157 q 250 106 273 123 q 203 76 227 89 q 157 62 180 63 l 149 62 q 43 116 86 62 q 0 263 0 170 q 14 353 0 306 q 59 437 28 399 q 131 475 90 475 q 190 456 168 475 q 213 406 213 437 q 175 276 213 324 q 106 233 137 229 q 121 135 106 176 q 156 94 136 94 q 199 107 176 94 q 243 138 222 121 q 298 175 263 155 q 372 203 333 194 q 491 216 418 214 q 680 215 565 218 q 836 212 795 212 q 1044 223 952 212 q 1189 251 1135 234 q 1278 291 1243 269 q 1325 334 1313 314 q 1338 375 1338 355 q 1334 399 1338 386 q 1322 425 1331 412 q 1299 445 1314 438 q 1263 446 1283 451 q 1246 456 1248 443 q 1257 477 1243 471 q 1261 479 1259 478 m 163 429 q 107 257 113 359 q 140 281 123 260 q 168 328 157 302 q 178 383 178 355 q 163 429 178 412 z "},"":{"ha":1280,"x_min":0,"x_max":1211,"o":"m 1106 479 q 1177 455 1144 489 q 1211 374 1211 421 q 1208 346 1211 359 q 1195 311 1206 333 q 1166 271 1185 289 q 1113 233 1148 253 q 1029 199 1077 213 q 905 176 981 185 q 737 167 830 167 q 532 171 686 167 q 312 176 378 176 q 132 159 203 176 q 198 79 174 143 q 222 -73 222 16 q 220 -129 222 -106 q 212 -178 218 -152 q 191 -218 205 -204 q 153 -232 176 -232 q 96 -205 121 -232 q 54 -136 70 -179 q 26 -44 38 -92 q 9 57 15 5 q 2 143 4 109 q 0 203 0 178 q 30 530 0 366 q 111 803 60 694 q 216 911 161 911 q 273 888 254 911 q 292 802 292 864 q 235 529 292 668 q 95 316 178 389 q 91 186 91 254 q 91 182 91 184 q 92 178 92 179 q 256 207 157 201 q 602 212 355 212 q 628 212 618 212 q 652 212 637 212 q 680 212 667 212 q 888 223 797 212 q 1034 251 980 234 q 1123 291 1088 269 q 1170 334 1158 314 q 1183 375 1183 355 q 1179 399 1183 386 q 1167 425 1175 412 q 1143 445 1159 438 q 1107 446 1128 451 q 1090 456 1093 443 q 1102 477 1088 471 q 1106 479 1104 478 m 233 871 q 215 849 228 871 q 186 783 203 828 q 152 679 169 738 q 120 535 135 621 q 98 357 105 449 q 173 472 136 399 q 231 622 210 545 q 257 767 253 698 q 233 871 260 836 m 160 -200 q 187 -130 180 -184 q 187 -18 194 -76 q 155 88 180 41 q 92 139 130 136 q 115 -90 95 -7 q 160 -200 134 -172 z "},"":{"ha":1537,"x_min":0,"x_max":1468,"o":"m 1364 479 q 1435 455 1402 489 q 1468 374 1468 421 q 1466 346 1468 359 q 1453 311 1463 333 q 1424 271 1442 289 q 1370 233 1406 253 q 1286 199 1334 213 q 1162 176 1238 185 q 994 167 1087 167 q 789 171 943 167 q 570 176 635 176 q 373 149 471 176 q 338 -40 367 50 q 270 -190 310 -130 q 181 -286 229 -250 q 89 -321 134 -321 q 23 -297 47 -321 q 0 -214 0 -273 q 74 -3 0 -104 q 286 157 148 98 l 286 175 q 280 304 286 244 q 266 385 275 364 q 219 300 241 349 q 186 219 197 251 q 153 164 174 188 q 101 141 132 141 q 40 172 64 141 q 16 277 16 203 q 22 326 16 298 q 42 386 28 354 q 85 440 56 418 q 153 462 115 462 q 196 455 173 462 q 232 431 220 448 q 264 443 247 443 q 374 200 374 443 l 374 188 q 516 210 433 203 q 662 216 600 216 q 816 214 724 216 q 938 212 908 212 q 1146 223 1055 212 q 1291 251 1238 234 q 1380 291 1345 269 q 1427 334 1415 314 q 1440 375 1440 355 q 1436 399 1440 386 q 1424 425 1432 412 q 1400 445 1416 438 q 1364 446 1385 451 q 1348 456 1350 443 q 1360 477 1345 471 q 1364 479 1362 478 m 106 190 q 163 300 133 222 q 205 399 193 379 q 187 414 193 414 q 125 329 146 392 q 104 218 104 265 q 106 190 104 189 m 87 -287 q 164 -235 122 -287 q 241 -86 206 -182 q 283 117 275 9 q 112 -11 176 69 q 47 -205 47 -91 q 58 -261 47 -235 q 87 -287 69 -287 z "},"":{"ha":1647,"x_min":0,"x_max":1577,"o":"m 1473 479 q 1544 455 1511 489 q 1577 374 1577 421 q 1574 346 1577 359 q 1561 311 1572 333 q 1533 271 1551 289 q 1479 233 1514 253 q 1395 199 1443 213 q 1272 176 1347 185 q 1103 167 1196 167 q 899 171 1053 167 q 679 176 745 176 q 589 163 630 176 q 522 131 549 151 q 474 87 496 111 q 436 40 452 64 q 407 -4 420 16 q 377 -36 393 -24 q 343 -49 361 -49 q 281 -6 308 -49 q 254 116 254 37 q 260 212 254 146 q 268 318 266 277 q 262 420 269 359 q 242 407 256 420 q 210 364 228 394 q 177 294 192 334 q 153 193 161 254 q 150 64 145 132 q 142 48 151 53 q 120 45 132 43 q 102 52 108 46 q 87 73 98 56 q 61 123 77 90 q 32 197 45 157 q 9 295 19 237 q 0 410 0 352 q 40 664 0 541 q 140 860 80 787 q 258 932 200 932 q 324 907 302 932 q 345 846 345 882 q 318 715 345 790 q 251 575 290 641 q 169 456 212 510 q 93 379 125 402 l 93 363 q 110 182 92 270 q 124 276 113 229 q 154 365 136 323 q 202 433 173 407 q 264 460 231 460 q 311 447 293 460 q 337 411 330 435 q 347 369 345 388 q 349 321 349 349 q 341 227 349 310 q 333 75 332 143 q 353 -18 334 7 q 381 6 367 -12 q 409 48 395 24 q 441 97 423 72 q 488 148 458 123 q 553 189 517 173 q 657 213 592 205 q 776 219 722 220 q 918 215 831 218 q 1047 212 1004 212 q 1255 223 1164 212 q 1400 251 1347 234 q 1489 291 1454 269 q 1536 334 1524 314 q 1549 375 1549 355 q 1545 399 1549 386 q 1533 425 1541 412 q 1510 445 1525 438 q 1474 446 1494 451 q 1457 456 1459 443 q 1469 477 1455 471 q 1473 479 1471 478 m 286 891 q 230 845 261 886 q 172 742 199 804 q 123 596 144 680 q 96 429 102 512 q 227 612 154 481 q 300 836 300 743 q 298 864 300 850 q 293 884 296 877 q 286 891 290 892 z "},"":{"ha":1387,"x_min":0,"x_max":1318,"o":"m 1213 479 q 1284 455 1251 489 q 1318 374 1318 421 q 1315 346 1318 359 q 1302 311 1313 333 q 1274 271 1292 289 q 1220 233 1255 253 q 1136 199 1184 213 q 1013 176 1088 185 q 844 167 937 167 q 650 171 793 167 q 441 176 507 176 q 344 161 388 176 q 272 124 300 146 q 220 81 244 103 q 172 45 197 60 q 121 30 146 30 q 65 52 90 30 q 27 110 41 75 q 7 183 14 146 q 0 258 0 221 q 22 393 0 368 q 54 406 35 406 q 89 394 73 405 q 104 372 105 383 q 94 197 94 260 q 101 120 94 153 q 115 72 107 86 q 128 58 122 58 q 161 69 144 58 q 195 96 178 79 q 232 131 213 113 q 278 166 251 149 q 336 192 306 183 q 430 209 373 203 q 529 214 486 214 q 660 213 572 214 q 787 212 747 212 q 996 223 904 212 q 1141 251 1087 234 q 1230 291 1195 269 q 1277 334 1265 314 q 1290 375 1290 355 q 1286 399 1290 386 q 1274 425 1282 412 q 1251 445 1266 438 q 1215 446 1235 451 q 1198 456 1200 443 q 1209 477 1195 471 q 1213 479 1211 478 m 97 447 q 92 442 97 447 q 71 436 86 436 q 44 447 55 436 q 33 474 33 458 q 44 501 33 490 q 71 512 55 512 q 97 501 86 512 q 109 474 109 490 q 97 447 109 458 z "},"":{"ha":1295,"x_min":-258,"x_max":1226,"o":"m 1122 479 q 1193 455 1160 489 q 1226 374 1226 421 q 1224 346 1226 359 q 1211 311 1221 333 q 1182 271 1200 289 q 1128 233 1164 253 q 1044 199 1093 213 q 921 176 996 185 q 753 167 846 167 q 701 169 747 167 q 602 172 654 171 q 483 172 549 173 q 348 162 417 170 q 224 138 279 153 q 125 105 172 125 q 81 -168 123 -41 q -26 -366 39 -294 q -161 -438 -91 -438 q -234 -410 -210 -438 q -258 -336 -258 -382 q -178 -85 -258 -198 q 38 102 -98 28 q 17 413 42 260 q 39 443 12 443 q 73 430 58 443 q 97 392 87 417 q 112 340 106 368 q 120 276 117 313 q 124 209 123 238 q 125 142 125 180 q 247 179 178 163 q 406 202 314 195 q 550 211 498 210 q 696 212 603 212 q 904 223 812 212 q 1049 251 996 234 q 1138 291 1103 269 q 1185 334 1173 314 q 1198 375 1198 355 q 1194 399 1198 386 q 1182 425 1190 412 q 1159 445 1175 438 q 1123 446 1143 451 q 1106 456 1108 443 q 1118 477 1103 471 q 1122 479 1120 478 m -161 -405 q -122 -387 -144 -405 q -74 -330 -100 -369 q -27 -239 -49 -292 q 13 -107 -5 -186 q 36 60 30 -29 q -146 -114 -83 -12 q -210 -319 -210 -216 q -203 -360 -210 -342 q -189 -387 -197 -378 q -173 -400 -180 -396 q -161 -405 -165 -405 m 72 470 q 66 464 72 470 q 45 458 60 458 q 18 470 29 458 q 7 496 7 481 q 18 523 7 512 q 45 534 29 534 q 72 523 60 534 q 83 496 83 512 q 72 470 83 481 z "},"":{"ha":1643,"x_min":0,"x_max":1573,"o":"m 1469 479 q 1540 455 1507 489 q 1573 374 1573 421 q 1570 346 1573 359 q 1557 311 1568 333 q 1529 271 1547 289 q 1475 233 1510 253 q 1391 199 1439 213 q 1267 176 1343 185 q 1099 167 1192 167 q 907 171 1048 167 q 700 175 766 175 q 606 157 648 175 q 536 112 564 138 q 483 58 508 85 q 427 10 458 31 q 361 -15 396 -12 l 359 -15 l 359 -15 l 358 -16 l 352 -16 l 345 -16 q 275 7 305 -16 q 230 64 245 31 q 202 132 214 98 q 181 192 191 165 q 159 221 170 218 q 143 60 142 140 q 127 41 143 45 q 102 46 111 37 q 87 67 98 51 q 61 118 77 84 q 32 192 45 152 q 9 289 19 232 q 0 405 0 347 q 40 658 0 535 q 140 854 80 781 q 258 927 200 927 q 324 902 302 927 q 345 840 345 876 q 299 664 345 766 q 196 484 254 563 q 93 374 138 406 l 93 365 q 106 191 92 275 q 135 317 110 252 q 202 431 160 383 q 289 479 244 479 q 354 454 324 479 q 383 391 383 428 q 332 296 383 344 q 219 230 281 248 q 268 173 245 211 q 303 101 291 135 q 328 42 315 68 q 351 16 340 16 q 393 30 372 16 q 434 64 414 43 q 476 110 454 86 q 532 158 498 134 q 605 198 566 183 q 720 220 652 216 q 895 217 788 223 q 1043 212 1001 212 q 1251 223 1160 212 q 1396 251 1343 234 q 1485 291 1450 269 q 1532 334 1520 314 q 1545 375 1545 355 q 1541 399 1545 386 q 1529 425 1537 412 q 1506 445 1521 438 q 1470 446 1490 451 q 1453 456 1455 443 q 1465 477 1451 471 q 1469 479 1467 478 m 286 886 q 237 846 267 886 q 178 744 208 806 q 125 594 149 682 q 95 423 102 507 q 175 521 129 454 q 261 678 222 589 q 300 831 300 767 q 296 869 300 852 q 286 886 292 886 m 290 433 q 267 418 279 428 q 236 390 254 409 q 201 339 218 371 q 170 266 183 307 q 257 334 214 275 q 290 433 301 393 z "},"":{"ha":1434,"x_min":0,"x_max":1364,"o":"m 1260 479 q 1331 455 1298 489 q 1364 374 1364 421 q 1361 346 1364 359 q 1349 311 1359 333 q 1320 271 1338 289 q 1266 233 1301 253 q 1182 199 1230 213 q 1059 176 1134 185 q 890 167 983 167 q 686 171 840 167 q 466 176 532 176 q 388 165 423 176 q 329 138 353 155 q 287 102 306 122 q 252 62 267 82 q 221 25 236 41 q 185 -2 205 9 q 142 -12 165 -12 q 94 8 118 -12 q 48 70 69 29 q 13 181 26 111 q 0 340 0 251 q 15 539 0 445 q 54 701 31 634 q 107 818 78 768 q 164 892 136 868 q 216 917 193 917 q 294 790 294 917 q 272 644 294 720 q 217 510 250 569 q 152 407 184 450 q 92 338 119 363 l 92 315 q 153 18 92 70 q 165 23 161 22 q 201 57 180 33 q 239 106 221 82 q 287 156 256 130 q 351 195 317 182 q 474 218 400 214 q 670 217 547 222 q 834 212 792 212 q 1042 223 951 212 q 1187 251 1134 234 q 1276 291 1241 269 q 1323 334 1311 314 q 1336 375 1336 355 q 1332 399 1336 386 q 1320 425 1329 412 q 1297 445 1312 438 q 1261 446 1281 451 q 1244 456 1246 443 q 1256 477 1242 471 q 1260 479 1258 478 m 238 872 q 146 683 189 825 q 94 381 103 541 q 158 475 123 414 q 224 611 193 536 q 260 755 254 687 q 238 872 267 823 z "},"":{"ha":1817,"x_min":-1,"x_max":1748,"o":"m 1644 479 q 1715 455 1682 489 q 1748 374 1748 421 q 1746 346 1748 359 q 1733 311 1744 333 q 1704 271 1723 289 q 1650 233 1686 253 q 1567 199 1615 213 q 1443 176 1518 185 q 1275 167 1368 167 q 1070 171 1224 167 q 850 176 916 176 q 771 166 806 176 q 714 141 736 157 q 672 108 691 126 q 639 72 654 90 q 610 38 625 54 q 578 14 596 23 q 537 4 559 4 q 462 58 493 4 q 431 221 431 111 q 437 328 431 253 q 444 449 443 404 q 444 452 444 450 q 442 455 444 455 q 362 347 400 424 q 306 213 324 271 q 287 136 288 155 q 269 110 286 121 q 232 103 252 99 q 201 131 211 108 q 198 173 199 138 q 198 242 197 208 q 197 300 199 276 q 196 303 197 302 q 194 302 195 303 q 146 208 168 271 q 117 103 125 144 q 107 37 110 62 q 82 5 104 12 q 45 24 59 -2 q 13 141 26 60 q 0 321 -1 222 q 22 486 1 420 q 50 500 26 498 q 95 492 74 502 q 113 465 116 482 q 101 333 106 417 q 98 207 95 250 q 207 384 159 384 q 236 379 223 384 q 257 366 249 375 q 271 349 265 357 q 279 328 276 341 q 283 307 282 314 q 286 286 285 299 q 287 270 287 272 q 309 328 296 296 q 345 405 321 359 q 397 481 368 451 q 456 511 427 511 q 500 499 482 511 q 527 468 518 488 q 540 425 536 447 q 543 373 543 402 q 539 271 543 368 q 538 114 535 175 q 557 41 542 53 q 592 69 573 48 q 628 112 612 90 q 673 158 644 134 q 737 194 703 182 q 834 213 775 208 q 945 217 894 218 q 1082 214 996 216 q 1218 212 1168 212 q 1426 223 1335 212 q 1571 251 1518 234 q 1660 291 1625 269 q 1707 334 1695 314 q 1720 375 1720 355 q 1716 399 1720 386 q 1705 425 1712 412 q 1681 445 1697 438 q 1645 446 1666 451 q 1628 456 1630 443 q 1640 477 1626 471 q 1644 479 1642 478 z "},"":{"ha":1625,"x_min":-1,"x_max":1554,"o":"m 1450 479 q 1521 455 1488 489 q 1554 374 1554 421 q 1552 346 1554 359 q 1539 311 1550 333 q 1510 271 1529 289 q 1456 233 1492 253 q 1373 199 1421 213 q 1249 176 1324 185 q 1081 167 1174 167 q 876 171 1030 167 q 656 176 722 176 q 566 157 605 176 q 501 111 526 138 q 453 57 476 84 q 398 11 429 30 q 329 -8 368 -8 q 251 47 279 -8 q 222 214 222 102 q 237 397 222 269 q 237 422 239 422 q 209 385 222 406 q 185 342 196 363 q 164 295 174 321 q 148 248 155 269 q 134 200 141 227 q 123 155 127 173 q 115 113 119 138 q 109 78 111 89 q 104 49 107 67 l 102 31 q 84 3 98 10 q 54 5 69 -3 q 33 31 39 14 q 8 142 18 64 q 0 288 -1 214 q 9 480 -1 425 q 25 496 10 492 q 62 498 40 500 q 101 488 84 496 q 118 469 119 479 q 107 364 117 458 q 102 227 98 270 q 176 413 132 342 q 254 483 220 483 q 316 454 293 483 q 339 350 339 425 q 331 248 339 334 q 325 98 323 161 q 343 24 326 35 q 384 38 363 24 q 421 73 405 52 q 463 119 438 94 q 516 165 488 144 q 589 200 544 186 q 688 214 633 214 q 841 213 742 214 q 1024 212 940 212 q 1232 223 1141 212 q 1377 251 1324 234 q 1466 291 1431 269 q 1513 334 1501 314 q 1526 375 1526 355 q 1522 399 1526 386 q 1511 425 1518 412 q 1487 445 1503 438 q 1451 446 1472 451 q 1434 456 1436 443 q 1446 477 1432 471 q 1450 479 1448 478 z "},"":{"ha":1397,"x_min":-40,"x_max":1326,"o":"m 1222 479 q 1293 455 1260 489 q 1326 374 1326 421 q 1324 346 1326 359 q 1311 311 1322 333 q 1282 271 1301 289 q 1229 233 1264 253 q 1145 199 1193 213 q 1021 176 1097 185 q 853 167 946 167 q 572 191 732 167 q 360 216 412 216 q 250 208 292 216 q 205 98 237 141 q 124 55 174 55 q 66 73 92 55 q 28 118 41 91 q 9 170 16 145 q 3 216 3 195 l 3 220 q -30 274 -20 243 q -40 328 -40 304 q 3 443 -40 399 q 102 486 46 486 q 215 433 172 486 q 258 301 258 380 q 254 236 258 269 q 363 245 312 245 q 538 228 401 245 q 796 212 675 212 q 1004 223 913 212 q 1149 251 1096 234 q 1238 291 1203 269 q 1285 334 1273 314 q 1298 375 1298 355 q 1294 399 1298 386 q 1283 425 1291 412 q 1259 445 1275 438 q 1223 446 1244 451 q 1206 456 1208 443 q 1218 477 1204 471 q 1222 479 1220 478 m 139 91 q 202 193 184 118 q 191 189 199 192 q 179 184 182 185 q 168 180 176 182 q 155 176 161 177 q 141 175 150 176 q 123 174 133 174 q 101 175 115 174 q 112 129 104 149 q 126 100 119 109 q 139 91 133 91 m 208 224 q 212 284 212 259 q 201 363 212 328 q 175 416 191 397 q 143 444 159 435 q 114 453 127 453 q 58 422 87 453 q 22 351 28 392 q 73 387 39 387 q 113 378 100 387 q 124 357 125 368 q 118 336 124 355 q 105 284 111 316 q 99 218 99 252 l 99 205 q 136 200 115 200 q 158 203 148 200 q 182 213 168 206 q 208 224 197 220 z "},"":{"ha":1520,"x_min":-2,"x_max":1451,"o":"m 1347 479 q 1418 455 1385 489 q 1451 374 1451 421 q 1448 346 1451 359 q 1435 311 1446 333 q 1407 271 1425 289 q 1353 233 1388 253 q 1269 199 1317 213 q 1145 176 1221 185 q 977 167 1070 167 q 770 176 926 167 q 549 184 614 184 q 374 178 433 184 q 292 53 345 105 q 184 1 239 1 q 133 20 151 1 q 115 60 115 38 q 159 144 115 110 q 276 192 203 178 q 300 303 296 250 q 288 396 304 357 q 207 345 250 396 q 135 214 165 294 q 103 55 106 134 q 121 -456 99 -201 q 110 -477 122 -469 q 82 -482 98 -486 q 62 -462 67 -478 q 36 -332 50 -420 q 10 -119 22 -244 q 0 167 -2 6 q 24 474 3 328 q 53 489 26 488 q 106 479 81 490 q 130 452 132 468 q 110 242 116 348 q 179 381 134 321 q 275 441 224 441 q 360 398 323 441 q 397 288 397 355 q 385 208 396 245 q 476 213 421 212 q 583 213 531 214 q 736 212 634 213 q 921 212 839 212 q 1129 223 1038 212 q 1274 251 1221 234 q 1363 291 1328 269 q 1410 334 1398 314 q 1423 375 1423 355 q 1419 399 1423 386 q 1407 425 1415 412 q 1383 445 1399 438 q 1348 446 1368 451 q 1331 456 1333 443 q 1343 477 1329 471 q 1347 479 1345 478 m 167 39 q 218 83 193 50 q 263 160 243 115 q 159 66 159 132 q 167 39 159 39 z "},"":{"ha":1482,"x_min":0,"x_max":1412,"o":"m 1308 479 q 1379 455 1345 489 q 1412 374 1412 421 q 1410 346 1412 359 q 1397 311 1407 333 q 1368 271 1386 289 q 1314 233 1350 253 q 1230 199 1278 213 q 1107 176 1182 185 q 939 167 1031 167 q 733 171 888 167 q 513 176 579 176 q 378 145 433 176 q 294 64 323 114 q 326 60 309 65 q 362 37 343 54 q 397 -9 382 19 q 423 -85 413 -37 q 433 -195 433 -134 q 343 -395 433 -395 q 231 -267 274 -395 q 187 60 187 -138 q 191 184 187 121 q 148 76 161 96 q 100 47 130 47 q 30 96 59 47 q 0 201 0 144 q 47 371 0 304 q 168 437 95 437 q 222 424 199 437 q 231 452 225 440 q 257 465 236 463 q 297 458 279 467 q 313 435 315 450 q 308 404 312 431 q 301 346 304 376 q 292 276 297 316 q 284 192 288 237 q 278 106 280 147 q 330 151 303 132 q 381 181 357 169 q 440 200 406 193 q 503 211 475 208 q 578 215 531 214 q 662 214 625 215 q 764 213 699 214 q 882 212 829 212 q 1090 223 998 212 q 1235 251 1181 234 q 1323 291 1289 269 q 1371 334 1358 314 q 1383 375 1383 355 q 1380 399 1383 386 q 1368 425 1376 412 q 1345 445 1360 438 q 1309 446 1329 451 q 1292 456 1294 443 q 1303 477 1289 471 q 1308 479 1305 478 m 211 371 l 211 373 q 191 392 199 392 q 163 375 180 392 q 129 331 146 359 q 101 260 113 304 q 89 171 89 217 q 95 114 89 144 q 109 85 101 85 q 130 114 119 93 q 152 168 141 134 q 171 231 163 201 q 192 304 180 260 q 211 371 204 348 m 401 -178 q 364 -18 401 -82 q 276 40 327 46 l 276 34 q 298 -235 276 -127 q 355 -364 320 -342 q 375 -344 365 -361 q 393 -284 385 -328 q 401 -178 401 -241 z "},"":{"ha":1554,"x_min":-47,"x_max":1484,"o":"m 1379 479 q 1451 455 1417 489 q 1484 374 1484 421 q 1481 346 1484 359 q 1469 311 1479 333 q 1440 271 1458 289 q 1385 233 1421 253 q 1301 199 1350 213 q 1178 176 1253 185 q 1010 167 1103 167 q 885 171 981 167 q 707 175 789 176 q 567 164 625 174 q 497 138 530 158 q 437 92 463 117 q 387 41 411 66 q 336 -7 363 15 q 283 -37 309 -28 q 250 -42 275 -42 q 169 1 195 -42 q 142 138 142 43 q 149 231 142 172 q 160 304 155 290 q 144 291 157 303 q 113 270 131 279 q 70 261 94 261 q -13 302 22 261 q -47 414 -47 344 q -29 516 -47 466 q 21 599 -11 566 q 87 631 52 631 q 109 629 100 631 q 129 619 118 627 q 145 594 139 612 q 151 551 151 577 q 123 414 151 493 q 66 304 96 334 q 72 302 68 302 q 124 330 101 313 q 161 359 146 348 q 191 370 175 370 q 234 352 220 370 q 248 294 248 334 q 241 196 248 259 q 234 95 234 134 q 238 43 234 68 q 246 4 241 18 q 256 -9 251 -9 q 290 1 271 -9 q 327 30 309 12 q 367 70 346 48 q 411 114 387 92 q 460 156 435 137 q 516 190 486 176 q 579 208 547 204 q 687 216 633 215 q 822 214 741 217 q 954 212 903 212 q 1162 223 1070 212 q 1307 251 1253 234 q 1395 291 1360 269 q 1443 334 1430 314 q 1455 375 1455 355 q 1452 399 1455 386 q 1440 425 1448 412 q 1416 445 1432 438 q 1380 446 1400 451 q 1363 456 1365 443 q 1375 477 1361 471 q 1379 479 1377 478 m 106 577 q 64 468 79 545 q 54 339 50 391 q 103 466 83 382 q 106 577 123 549 z "},"":{"ha":1486,"x_min":0,"x_max":1416,"o":"m 1312 479 q 1383 455 1350 489 q 1416 374 1416 421 q 1414 346 1416 359 q 1401 311 1411 333 q 1372 271 1390 289 q 1318 233 1354 253 q 1234 199 1282 213 q 1111 176 1186 185 q 943 167 1036 167 q 738 171 892 167 q 517 176 583 176 q 264 142 383 176 q 300 60 300 100 q 269 -30 300 12 q 199 -93 239 -71 q 126 -115 159 -115 q 51 -94 80 -115 q 22 -42 22 -73 l 22 -38 q 65 61 24 12 q 182 146 107 111 q 130 179 165 163 q 69 208 96 196 q 21 241 42 219 q 0 294 0 264 q 16 352 0 319 q 56 414 31 385 q 115 463 80 443 q 185 483 151 483 q 265 455 231 483 q 298 396 298 428 q 287 342 298 370 q 265 308 275 315 q 250 310 260 304 q 243 326 239 316 q 253 394 256 360 q 235 428 250 428 q 154 373 201 428 q 108 260 108 318 q 109 249 108 254 q 112 242 111 245 q 118 237 113 239 q 126 233 123 234 q 138 228 129 231 q 152 222 146 224 q 237 170 199 203 q 460 210 337 205 q 886 212 513 212 q 1094 223 1002 212 q 1239 251 1185 234 q 1328 291 1293 269 q 1375 334 1362 314 q 1388 375 1388 355 q 1384 399 1388 386 q 1372 425 1380 412 q 1348 445 1364 438 q 1312 446 1333 451 q 1295 456 1297 443 q 1308 477 1293 471 q 1312 479 1310 478 m 94 -75 q 171 -25 130 -75 q 212 81 212 26 q 203 121 212 104 q 68 -42 68 65 q 94 -75 68 -75 z "},"":{"ha":1434,"x_min":-131,"x_max":1364,"o":"m 1260 479 q 1331 455 1298 489 q 1364 374 1364 421 q 1362 346 1364 359 q 1349 311 1360 333 q 1320 271 1339 289 q 1266 233 1302 253 q 1183 199 1231 213 q 1059 176 1135 185 q 891 167 984 167 q 686 171 840 167 q 466 176 532 176 q 387 165 422 176 q 328 138 351 155 q 287 101 305 121 q 255 61 269 81 q 228 25 241 41 q 199 -2 215 8 q 165 -13 183 -13 q 47 105 96 -13 q -2 428 -2 224 q 9 600 -2 496 q -106 593 -90 595 q -125 613 -120 592 q -115 637 -131 634 q 14 646 -83 644 q 52 851 32 791 q 81 868 58 867 q 124 858 104 869 q 142 833 144 847 q 112 646 121 730 q 231 644 223 644 q 248 633 242 643 q 250 614 254 623 q 231 606 245 605 q 107 603 194 606 q 99 291 90 420 q 130 89 109 161 q 172 18 151 18 q 197 33 184 18 q 223 70 210 47 q 262 118 236 92 q 320 167 288 144 q 411 204 353 189 q 543 219 469 219 q 674 215 574 219 q 834 212 773 212 q 1042 223 951 212 q 1187 251 1134 234 q 1276 291 1241 269 q 1323 334 1311 314 q 1336 375 1336 355 q 1332 399 1336 386 q 1321 425 1329 412 q 1297 445 1313 438 q 1261 446 1282 451 q 1244 456 1246 443 q 1256 477 1242 471 q 1260 479 1258 478 z "},"":{"ha":1619,"x_min":-5,"x_max":1549,"o":"m 1445 479 q 1516 455 1483 489 q 1549 374 1549 421 q 1547 346 1549 359 q 1534 311 1544 333 q 1505 271 1523 289 q 1451 233 1487 253 q 1367 199 1415 213 q 1244 176 1319 185 q 1076 167 1168 167 q 871 171 1025 167 q 651 176 717 176 q 580 165 612 176 q 525 138 547 155 q 484 101 503 121 q 449 61 465 81 q 417 25 433 41 q 381 -2 401 8 q 338 -13 361 -13 q 266 24 296 -13 q 221 122 235 62 q 207 258 207 182 q 161 118 176 149 q 97 64 135 64 q 33 109 60 64 q 1 229 7 153 q 16 401 -5 304 q 41 415 19 414 q 81 406 62 416 q 97 380 100 395 q 88 227 85 332 q 106 104 91 121 q 210 385 148 146 q 224 463 215 451 q 249 475 232 473 q 283 472 266 477 q 312 459 300 468 q 324 440 325 450 q 322 430 324 438 q 316 406 319 421 q 310 367 313 390 q 305 306 307 344 q 303 221 303 267 q 312 114 303 163 q 332 41 321 64 q 348 18 342 18 q 377 30 363 18 q 405 58 391 41 q 434 97 418 76 q 473 139 450 118 q 525 178 496 161 q 597 207 553 196 q 693 218 640 218 q 843 215 726 218 q 1019 212 960 212 q 1227 223 1136 212 q 1373 251 1319 234 q 1461 291 1426 269 q 1509 334 1496 314 q 1521 375 1521 355 q 1517 399 1521 386 q 1506 425 1514 412 q 1482 445 1497 438 q 1446 446 1466 451 q 1429 456 1431 443 q 1441 477 1427 471 q 1445 479 1443 478 z "},"":{"ha":1554,"x_min":0,"x_max":1485,"o":"m 1380 479 q 1451 455 1418 489 q 1485 374 1485 421 q 1482 346 1485 359 q 1469 311 1480 333 q 1440 271 1459 289 q 1387 233 1422 253 q 1303 199 1351 213 q 1179 176 1255 185 q 1011 167 1104 167 q 355 233 529 167 q 334 142 347 184 q 303 61 322 100 q 256 -1 285 22 q 193 -24 228 -24 q 126 4 160 -24 q 63 82 92 33 q 18 209 35 132 q 0 374 0 286 q 19 465 0 446 q 57 476 35 476 q 99 465 79 475 q 118 444 119 455 q 113 293 109 361 q 129 173 117 225 q 155 84 140 120 q 184 30 170 49 q 208 12 198 12 q 265 81 233 12 q 314 252 298 151 q 223 333 251 284 q 195 450 195 381 q 273 583 195 583 q 328 553 305 583 q 360 484 351 524 q 370 401 370 445 q 360 275 369 340 q 594 223 450 235 q 954 212 738 212 q 1162 223 1071 212 q 1308 251 1254 234 q 1396 291 1361 269 q 1443 334 1431 314 q 1456 375 1456 355 q 1452 399 1456 386 q 1441 425 1449 412 q 1417 445 1433 438 q 1381 446 1402 451 q 1364 456 1367 443 q 1376 477 1362 471 q 1380 479 1378 478 m 320 296 q 325 388 325 338 q 317 466 325 429 q 299 523 309 503 q 281 543 289 543 q 268 529 277 543 q 252 486 260 515 q 243 425 243 457 q 320 296 243 345 z "},"":{"ha":1782,"x_min":0,"x_max":1711,"o":"m 1607 479 q 1678 455 1645 489 q 1711 374 1711 421 q 1709 346 1711 359 q 1696 311 1706 333 q 1667 271 1685 289 q 1613 233 1649 253 q 1529 199 1577 213 q 1406 176 1481 185 q 1238 167 1331 167 q 565 256 755 167 q 542 151 555 200 q 507 53 528 102 q 455 -24 486 5 q 386 -52 423 -52 q 284 9 331 -52 q 222 191 237 71 q 113 39 175 39 q 33 99 66 39 q 0 254 0 159 q 9 374 0 300 q 31 462 19 447 q 62 472 42 473 q 101 462 83 472 q 119 441 120 452 q 115 416 119 439 q 107 362 111 392 q 99 291 102 333 q 95 214 95 249 q 101 129 95 163 q 112 85 106 95 q 121 75 117 75 q 164 139 134 75 q 216 282 195 203 l 216 291 q 224 397 216 346 q 242 457 232 449 q 290 461 257 469 q 320 437 322 454 q 309 256 307 334 q 320 126 311 179 q 345 40 330 73 q 373 -7 359 7 q 395 -22 386 -22 q 428 0 408 -22 q 467 58 447 21 q 506 152 488 94 q 533 273 524 210 q 449 357 469 311 q 428 460 428 402 q 433 516 428 490 q 454 566 437 543 q 497 589 471 589 q 539 571 522 589 q 565 524 556 553 q 577 464 573 494 q 581 400 581 433 q 571 298 578 353 q 805 229 655 245 q 1181 212 954 212 q 1390 223 1298 212 q 1535 251 1481 234 q 1623 291 1588 269 q 1671 334 1658 314 q 1683 375 1683 355 q 1679 399 1683 386 q 1668 425 1676 412 q 1644 445 1659 438 q 1608 446 1628 451 q 1591 456 1593 443 q 1603 477 1589 471 q 1607 479 1605 478 m 538 323 q 541 391 541 353 q 533 476 541 438 q 517 531 526 515 q 505 548 509 548 q 496 539 500 548 q 487 508 491 531 q 482 453 482 485 q 538 323 482 374 z "},"":{"ha":1465,"x_min":0,"x_max":1395,"o":"m 1291 479 q 1362 455 1329 489 q 1395 374 1395 421 q 1393 346 1395 359 q 1380 311 1390 333 q 1351 271 1369 289 q 1297 233 1333 253 q 1213 199 1261 213 q 1090 176 1165 185 q 922 167 1015 167 q 753 171 871 167 q 570 175 636 175 q 492 166 528 175 q 432 143 456 157 q 387 110 408 128 q 351 74 367 92 q 319 39 334 55 q 286 11 304 23 q 248 -4 268 -1 l 245 -4 l 245 -5 q 235 -5 241 -5 l 229 -5 q 91 103 150 -5 q 39 -24 56 26 q 18 -36 35 -38 q 4 -17 1 -33 q 64 158 16 50 q 17 317 35 232 q 0 427 0 401 q 22 456 0 448 q 67 455 44 463 q 92 429 90 446 q 122 275 104 347 q 192 396 157 342 q 243 469 227 451 q 269 467 250 476 q 283 449 287 458 q 261 414 282 447 q 206 323 241 382 q 141 205 172 264 q 195 73 168 119 q 244 28 223 28 q 276 42 259 28 q 310 76 294 56 q 354 121 327 96 q 412 165 381 145 q 493 200 444 186 q 601 214 543 214 q 704 213 633 214 q 865 212 775 212 q 1073 223 981 212 q 1218 251 1164 234 q 1307 291 1272 269 q 1355 334 1342 314 q 1367 375 1367 355 q 1363 399 1367 386 q 1352 425 1360 412 q 1328 445 1343 438 q 1292 446 1312 451 q 1275 456 1277 443 q 1286 477 1272 471 q 1291 479 1289 478 z "},"":{"ha":1508,"x_min":0,"x_max":1438,"o":"m 1334 479 q 1405 455 1372 489 q 1438 374 1438 421 q 1436 346 1438 359 q 1423 311 1434 333 q 1394 271 1413 289 q 1340 233 1376 253 q 1257 199 1305 213 q 1133 176 1208 185 q 965 167 1058 167 q 760 171 914 167 q 540 176 606 176 q 385 164 448 176 q 361 5 381 82 q 312 -132 342 -73 q 245 -236 282 -191 q 170 -304 209 -281 q 94 -328 130 -328 q 26 -301 52 -328 q 0 -214 0 -274 q 63 -28 0 -121 q 221 125 125 65 q 292 170 226 128 q 271 393 292 357 q 244 328 260 376 q 214 242 228 281 q 175 172 200 203 q 123 140 151 140 q 88 149 105 140 q 54 177 71 158 q 26 235 37 197 q 16 325 16 273 q 26 426 16 374 q 58 491 36 479 q 102 488 75 500 q 123 452 129 476 q 112 387 115 419 q 108 341 109 354 q 108 294 108 329 q 127 180 108 208 q 179 272 159 220 q 205 361 199 325 q 228 424 212 398 q 269 450 243 450 q 357 384 327 450 q 387 201 387 317 l 387 200 q 471 211 420 208 q 566 214 522 214 q 719 213 611 214 q 908 212 827 212 q 1116 223 1025 212 q 1262 251 1208 234 q 1351 291 1316 269 q 1398 334 1385 314 q 1411 375 1411 355 q 1407 399 1411 386 q 1395 425 1403 412 q 1371 445 1387 438 q 1335 446 1356 451 q 1318 456 1320 443 q 1330 477 1316 471 q 1334 479 1332 478 m 92 -293 q 153 -259 119 -293 q 216 -170 186 -226 q 267 -33 245 -115 q 292 134 289 48 q 219 85 249 107 q 153 30 189 63 q 96 -35 118 -3 q 60 -112 75 -68 q 45 -204 45 -156 q 60 -263 45 -233 q 92 -293 74 -293 z "},"":{"ha":1469,"x_min":-100,"x_max":1399,"o":"m 1295 479 q 1366 455 1333 489 q 1399 374 1399 421 q 1397 346 1399 359 q 1384 311 1394 333 q 1355 271 1373 289 q 1301 233 1337 253 q 1217 199 1265 213 q 1094 176 1169 185 q 926 167 1019 167 q 891 167 924 167 q 834 168 859 168 q 763 166 810 168 q 676 162 715 165 q 583 155 637 160 q 481 143 528 150 q 381 125 434 136 q 281 100 328 114 q 317 -43 317 42 q 282 -209 317 -131 q 185 -336 248 -288 q 50 -384 123 -384 q -25 -369 7 -384 q -71 -330 -56 -353 q -93 -286 -86 -307 q -100 -248 -100 -265 q 203 119 -100 3 q 130 146 176 148 q 93 143 108 134 q 77 169 77 153 q 97 209 77 180 q 140 270 117 238 q 182 346 163 302 q 202 428 202 391 q 201 445 202 442 q 195 448 200 448 q 105 410 139 448 q 68 337 71 371 q 61 313 75 319 q 39 322 48 308 q 33 348 33 332 q 82 444 33 404 q 183 485 132 485 q 252 461 222 485 q 281 393 281 438 q 241 276 281 349 q 171 179 200 202 q 252 137 219 168 q 869 212 482 212 q 1077 223 985 212 q 1222 251 1168 234 q 1311 291 1276 269 q 1358 334 1345 314 q 1371 375 1371 355 q 1367 399 1371 386 q 1355 425 1363 412 q 1331 445 1347 438 q 1295 446 1316 451 q 1278 456 1280 443 q 1291 477 1276 471 q 1295 479 1293 478 m -27 -316 q -16 -331 -27 -316 q 30 -345 -4 -345 q 99 -326 64 -345 q 166 -268 134 -306 q 217 -166 197 -231 q 237 -23 237 -102 q 225 81 237 46 q -50 -237 -50 -22 q -27 -316 -50 -288 z "},"":{"ha":4924,"x_min":69,"x_max":4854,"o":"m 4750 485 q 4821 461 4788 495 q 4854 379 4854 427 q 4852 352 4854 365 q 4839 316 4850 338 q 4810 276 4829 294 q 4756 238 4792 258 q 4673 204 4721 218 q 4549 181 4624 191 q 4381 172 4474 172 q 4176 177 4330 172 q 3956 181 4022 181 q 3802 170 3864 181 q 3778 10 3798 87 q 3728 -126 3758 -67 q 3661 -231 3698 -186 q 3585 -299 3625 -275 q 3510 -323 3546 -323 q 3442 -296 3467 -323 q 3416 -209 3416 -269 q 3479 -22 3416 -115 q 3637 131 3541 71 q 3677 156 3651 140 q 3709 175 3703 172 q 3687 399 3709 362 q 3660 334 3676 382 q 3630 248 3644 287 q 3591 178 3616 210 q 3539 146 3566 146 q 3460 197 3491 146 q 3438 125 3450 159 q 3409 61 3426 92 q 3371 11 3393 29 q 3324 -7 3349 -7 q 3244 50 3282 -7 q 3190 216 3206 107 q 3033 67 3113 67 q 2931 117 2974 67 q 2884 253 2888 167 q 2789 220 2839 220 l 2785 220 q 2764 134 2776 173 q 2733 58 2751 94 q 2688 2 2715 22 q 2627 -18 2660 -18 q 2537 31 2582 -18 q 2464 166 2492 81 q 2335 -14 2406 -14 q 2280 12 2304 -14 q 2243 77 2256 38 q 2223 157 2230 117 q 2217 233 2217 197 l 2217 265 q 2175 155 2197 186 q 2121 123 2153 123 q 2057 153 2081 121 q 1917 -37 1992 -37 q 1835 6 1862 -37 q 1808 144 1808 49 q 1815 236 1808 177 q 1826 310 1822 296 q 1810 297 1823 309 q 1780 276 1798 285 q 1737 267 1761 267 q 1688 279 1710 267 q 1552 232 1640 252 q 1489 97 1537 157 q 1380 7 1440 37 q 1263 -22 1320 -22 q 1158 9 1193 -22 q 1123 75 1123 41 q 1198 175 1123 132 q 1159 377 1163 276 q 1078 358 1128 363 q 978 353 1027 353 q 810 356 928 353 q 600 358 692 358 q 391 347 483 358 q 246 318 300 336 q 158 278 193 301 q 110 235 123 256 q 98 195 98 215 q 101 171 98 184 q 113 145 105 158 q 137 125 121 132 q 173 123 153 119 q 190 113 188 127 q 178 92 192 99 q 174 91 176 92 q 102 115 136 81 q 69 196 69 149 q 72 223 69 210 q 84 259 74 237 q 113 299 95 281 q 168 337 132 317 q 252 371 203 357 q 375 394 300 385 q 543 403 450 403 q 748 399 594 403 q 968 395 902 395 q 996 395 978 395 q 1101 397 1072 395 q 1158 412 1131 400 q 1182 606 1158 510 q 1243 773 1206 703 q 1327 887 1280 844 q 1417 931 1373 931 q 1482 906 1461 931 q 1503 845 1503 881 q 1476 719 1503 789 q 1410 589 1449 648 q 1328 480 1370 529 q 1252 410 1285 432 q 1251 369 1251 383 q 1259 228 1251 296 q 1279 313 1265 271 q 1313 393 1293 355 q 1364 455 1334 431 q 1428 479 1394 479 q 1520 424 1484 479 q 1557 290 1557 369 q 1556 267 1557 275 q 1663 298 1623 281 q 1619 419 1619 341 q 1637 522 1619 471 q 1687 604 1655 572 q 1753 637 1718 637 q 1775 634 1766 637 q 1795 625 1784 632 q 1811 600 1805 617 q 1817 556 1817 583 q 1790 419 1817 498 q 1733 309 1763 339 q 1738 307 1735 307 q 1790 336 1767 318 q 1828 364 1813 353 q 1858 375 1842 375 q 1901 357 1887 375 q 1914 300 1914 340 q 1907 202 1914 264 q 1900 100 1900 139 q 1904 49 1900 74 q 1913 10 1908 24 q 1923 -4 1918 -4 q 1950 14 1931 -4 q 1994 78 1968 33 q 2041 182 2020 123 q 2028 254 2028 217 q 2069 393 2028 335 q 2167 452 2110 452 q 2232 432 2209 452 q 2246 470 2239 463 q 2278 480 2259 481 q 2313 469 2297 479 q 2328 448 2330 458 q 2309 198 2309 306 q 2317 97 2309 140 q 2333 37 2324 54 q 2347 20 2341 20 q 2395 80 2364 20 q 2450 222 2425 140 q 2434 380 2434 300 q 2453 470 2434 451 q 2491 481 2469 481 q 2533 471 2513 481 q 2552 449 2553 460 q 2547 298 2543 366 q 2562 178 2551 231 q 2589 90 2574 125 q 2618 36 2604 54 q 2641 17 2631 17 q 2694 77 2664 17 q 2743 229 2725 138 q 2659 297 2694 247 q 2624 428 2624 347 q 2628 474 2624 450 q 2639 526 2631 498 q 2665 571 2648 553 q 2707 588 2683 588 q 2762 558 2739 588 q 2794 490 2785 529 q 2804 407 2804 450 q 2789 247 2802 326 q 2792 247 2790 247 q 2795 246 2794 246 q 2885 287 2839 246 q 2903 372 2888 330 q 2948 448 2917 415 q 3015 481 2978 481 q 3074 462 3052 481 q 3097 411 3097 443 q 3059 282 3097 330 q 2991 239 3021 234 q 3006 140 2991 181 q 3040 99 3021 99 q 3111 150 3067 99 q 3185 262 3155 200 q 3182 346 3182 305 q 3197 545 3182 450 q 3236 707 3212 640 q 3289 824 3260 774 q 3346 898 3318 873 q 3398 922 3375 922 q 3476 795 3476 922 q 3454 650 3476 725 q 3399 515 3432 574 q 3334 412 3366 456 q 3274 343 3301 368 l 3274 321 q 3335 23 3274 75 q 3442 243 3394 54 q 3432 330 3431 290 q 3442 432 3432 379 q 3474 496 3452 484 q 3518 494 3491 506 q 3539 458 3545 481 q 3528 392 3531 425 q 3524 347 3524 359 q 3524 299 3524 334 q 3543 186 3524 214 q 3595 278 3575 226 q 3621 367 3615 331 q 3643 430 3628 404 q 3685 456 3659 456 q 3773 389 3743 456 q 3802 206 3802 322 l 3802 205 q 3887 216 3836 213 q 3982 220 3938 220 q 4135 219 4026 220 q 4324 218 4245 218 q 4532 229 4441 218 q 4678 257 4624 240 q 4767 297 4732 275 q 4814 340 4801 320 q 4827 381 4827 361 q 4823 405 4827 392 q 4811 431 4819 418 q 4787 451 4803 444 q 4751 452 4772 457 q 4734 463 4736 449 q 4746 484 4732 477 q 4750 485 4748 484 m 3419 878 q 3327 689 3370 831 q 3276 387 3284 547 q 3340 481 3305 420 q 3405 617 3375 542 q 3442 761 3436 692 q 3419 878 3448 829 m 3047 435 q 2991 262 2998 364 q 3025 287 3008 266 q 3052 334 3042 307 q 3062 389 3063 360 q 3047 435 3062 417 m 1444 890 q 1398 854 1426 890 q 1342 762 1370 819 q 1290 625 1314 705 q 1257 466 1266 545 q 1313 519 1279 480 q 1379 610 1346 559 q 1435 723 1412 661 q 1458 836 1458 785 q 1454 874 1458 857 q 1444 890 1449 890 m 1240 16 q 1295 28 1264 16 q 1358 62 1326 39 q 1418 124 1390 84 q 1459 215 1447 164 q 1413 208 1428 210 q 1291 179 1351 198 q 1291 94 1287 138 q 1298 76 1293 88 q 1297 52 1305 61 q 1278 44 1290 43 q 1260 50 1267 45 q 1212 138 1241 69 q 1177 68 1177 108 q 1193 32 1177 48 q 1240 16 1208 16 m 1467 251 q 1471 309 1471 279 q 1461 394 1471 347 q 1438 440 1452 440 q 1350 375 1390 440 q 1295 216 1310 310 q 1403 240 1348 231 q 1467 251 1414 242 m 1773 583 q 1731 474 1746 551 q 1721 345 1716 397 q 1770 471 1750 388 q 1773 583 1790 555 m 2132 179 q 2161 232 2147 195 q 2191 319 2176 268 q 2214 389 2206 370 q 2199 404 2205 404 q 2188 397 2196 404 q 2171 375 2181 390 q 2152 339 2161 359 q 2137 286 2143 318 q 2130 218 2130 254 q 2132 179 2130 179 m 2749 264 q 2759 393 2759 328 q 2751 471 2759 434 q 2733 529 2743 509 q 2715 549 2723 549 q 2704 532 2711 549 q 2692 484 2698 515 q 2686 421 2686 453 q 2704 325 2686 365 q 2749 264 2721 284 m 3508 -288 q 3569 -254 3535 -288 q 3632 -165 3602 -220 q 3684 -27 3662 -109 q 3708 140 3706 54 q 3635 91 3666 113 q 3569 36 3604 68 q 3513 -30 3534 3 q 3477 -106 3491 -62 q 3462 -199 3462 -151 q 3476 -258 3462 -228 q 3508 -288 3490 -288 z "}}}
